# .PCD v0.7 - Point Cloud Data file format
VERSION 0.7
FIELDS x y z rgb
SIZE 4 4 4 4
TYPE F F F U
COUNT 1 1 1 1
WIDTH 1567
HEIGHT 1
VIEWPOINT 0 0 0 1 0 0 0
POINTS 1567
DATA ascii
-2.8911595 -2.0467575 2.9370511 4287730830
-2.8802421 -2.0455222 2.9352787 4287467138
-2.9196897 -2.0391483 2.9660339 4288054107
-2.9090638 -2.0381975 2.9646509 4288450166
-2.8039181 -2.0367224 2.9226508 4288390056
-2.8405693 -2.0329566 2.97053 4288450420
-2.7707818 -2.0269477 2.9753361 4288581494
-2.4541028 -2.0164828 2.7458491 4288322695
-2.4502532 -2.0117869 2.7511616 4288454535
-2.4503169 -2.0040092 2.8003623 4288585866
-2.7288499 -2.0279467 2.9905205 4288452508
-2.7100935 -2.0278976 2.990448 4288844664
-2.4534147 -2.0049412 2.8139524 4288651402
-2.4738903 -2.0111482 2.8476436 4288651402
-2.6117702 -2.0211225 2.9532385 4287467396
-2.4901772 -2.0158577 2.918889 4288782988
-2.4907098 -2.0145445 2.9302466 4288783245
-2.4378057 -2.0114214 2.9661512 4288784554
-2.3980143 -2.0091472 2.9627976 4289310900
-1.0067689 -1.9877234 2.7535563 4288651679
-0.95514071 -1.9863546 2.7048233 4290300889
-0.93074638 -1.9884126 2.7076259 4290629081
-0.98023093 -1.9860331 2.7275991 4288652195
-0.93704128 -1.9686464 2.750947 4291215529
-1.0184972 -1.9847637 2.7856333 4290030753
-0.95527029 -1.9191468 2.7539325 4291014524
-0.90723038 -1.9440651 2.7648926 4288981398
-0.9639746 -1.9107354 2.7542131 4292399029
-0.92184103 -1.9126049 2.7569079 4292070322
-0.88150179 -1.9963423 2.7654958 4289441700
-0.89859164 -1.9440686 2.7648973 4291876576
-0.86231649 -1.9974067 2.8157275 4291876315
-0.90067357 -1.9139315 2.7713034 4292268211
0.34148341 -2.0051205 2.8019152 4289704113
0.34318644 -2.0063205 2.8158886 4289702561
0.30430335 -2.0010252 2.9508204 4290426283
0.32558447 -1.9987266 2.894084 4288719279
0.37766612 -2.0170803 2.7466626 4289637285
0.39897013 -2.0033393 2.7163923 4287337630
0.37849194 -2.0042868 2.7526686 4282604137
0.39474094 -1.9651234 2.7460239 4285229409
0.44547829 -1.8053595 2.5009308 4286411365
0.36948735 -1.9247711 2.7496731 4282003749
0.39477268 -1.9566994 2.7462447 4285426531
0.36866629 -1.8947732 2.7435632 4282201129
0.39447647 -1.9037777 2.744184 4285493101
0.48980147 -1.6998993 2.3049481 4285887862
0.48992044 -1.6714932 2.3055079 4286216570
0.49006897 -1.6359656 2.3062069 4286348412
0.49010259 -1.5856259 2.306365 4286742912
0.61953926 -1.3172185 1.7860591 4285952882
0.60657966 -1.3229214 1.8486238 4287073684
0.61029589 -1.3175547 1.8251841 4286019189
0.59191287 -1.3213408 1.9132537 4286676348
0.60710728 -1.3182901 1.8502318 4284375892
0.61188793 -1.303836 1.8299452 4285162838
0.59467 -1.3201673 1.902944 4284769377
0.62481266 -1.2993891 1.7693809 4285623398
0.62206018 -1.2996614 1.7773148 4285557083
0.63502914 -1.1617587 1.575266 4287536178
0.63974833 -1.1389459 1.5509051 4286883998
0.63462454 -1.1511794 1.5742624 4287536437
0.64099681 -1.1120323 1.5539316 4287606697
0.63564914 -1.1136179 1.5768042 4287536946
0.6415484 -1.0886881 1.5552689 4287935662
0.63607132 -1.0897036 1.5778513 4287274542
0.64353758 -1.0344269 1.5254223 4287869074
0.65054756 -1.1045268 1.4976634 4289968788
0.66417396 -1.0735962 1.4557238 4288197280
0.6487698 -1.08444 1.5153748 4284914262
0.66395831 -1.0669124 1.4652873 4286883716
0.66924441 -1.0279244 1.3997269 4285044808
0.67219901 -1.0301231 1.3967772 4284388141
0.66760141 -1.0277548 1.4054766 4284848204
0.67391694 -0.97060996 1.3563108 4281827593
0.65455872 -1.0352241 1.4855233 4286883964
0.66095269 -1.0321727 1.4486635 4286095206
0.64516008 -1.0341536 1.5180236 4287737743
0.65943873 -0.97345716 1.4355129 4283535647
0.66656625 -0.97153121 1.3941255 4282026012
0.67138386 -0.96834213 1.3771976 4287604274
0.66739643 -0.9683792 1.3958619 4288654671
0.6789434 -0.95395839 1.3750752 4288651133
0.679088 -0.96718597 1.3170192 4281367812
0.6847406 -0.96189749 1.3042678 4289574266
0.67402786 -0.96470243 1.3480557 4286225433
0.68017519 -0.95880115 1.3111811 4289968784
0.69479501 -0.9492839 1.2926419 4288322937
0.73367554 -0.95661563 1.2971059 4287925636
0.69700247 -0.94824755 1.2967488 4286940277
0.7256183 -0.95390272 1.3044823 4286741608
0.6747452 -0.96151191 1.3494904 4291086009
0.71424401 -0.95375091 1.3686112 4285431431
0.70849931 -0.94178569 1.3824377 4282328328
0.7140457 -0.94202411 1.3764737 4279836969
0.71943146 -0.95366496 1.3384771 4287925892
0.73732418 -0.78027511 1.145358 4287470504
0.74763733 -0.78177601 1.0924381 4289769905
0.75754213 -0.78079998 1.063217 4288781731
0.75254714 -0.77954441 1.0798883 4288716196
0.75628722 -0.77960885 1.0661317 4286943904
0.7418195 -0.78031021 1.1197276 4289045418
0.74792147 -0.77865797 1.0928533 4288716710
0.74115121 -0.77978945 1.1240208 4288914089
0.7499516 -0.77722251 1.0908387 4286545764
0.80886698 -0.78085423 1.1205083 4287071631
0.80400383 -0.78246796 1.1485769 4287399822
0.80683887 -0.78206748 1.1324054 4286476106
0.81626308 -0.77900636 1.0838349 4287399565
0.8258785 -0.78258651 1.0656497 4286742670
0.82444686 -0.77827787 1.055292 4287004809
0.82058489 -0.780393 1.0717844 4286808977
0.82471639 -0.75926268 1.0472589 4287925396
0.80955827 -0.7784214 1.1070882 4287269010
0.81166917 -0.77756542 1.0913199 4287268492
0.80786783 -0.7593264 1.1095181 4288057495
0.81296682 -0.7583136 1.0930647 4286351769
0.81852114 -0.75862932 1.0647429 4287663250
0.82677376 -0.7589525 1.0334672 4287860116
0.82817477 -0.75700349 1.0352185 4286150746
0.98408157 -0.7724511 1.1286957 4287397216
1.0012758 -0.7765671 1.057453 4285295202
1.006112 -0.77837718 1.0876887 4287659608
1.0886708 -0.83910847 1.157391 4287860112
0.98328418 -0.7693767 1.1040384 4285822564
0.99551451 -0.77314866 1.0947238 4287593819
0.98430049 -0.769418 1.109071 4287528800
2.9852459 -2.317219 3.3401353 4288386957
0.9998641 -0.77540481 1.0882875 4287725402
1.956817 -1.4993794 2.0330567 4288056456
3.3881793 -2.5793881 3.4974756 4288452752
1.0054166 -0.77390629 1.0583334 4287856470
-2.7283044 -2.0251331 3.0001972 4289768356
-2.6688683 -2.0227211 2.996624 4288978062
-2.6584392 -2.0219114 2.9954243 4288715681
-2.6085324 -2.0173903 3.0026274 4289307542
-2.5539718 -2.0093751 3.0046728 4288716695
-2.4293063 -2.0104604 2.9784598 4288191640
-2.5587039 -2.0028806 3.0666115 4289177510
-2.5264077 -2.0133824 3.0975115 4289045905
-2.3816423 -2.0095108 2.9770529 4288718247
-2.336623 -2.0094957 2.9908774 4289046162
-2.5347102 -2.0180192 3.1196432 4289046161
-2.5770071 -2.0065246 3.1474895 4288914593
-2.5743532 -2.0000744 3.1684346 4289177251
-2.5515275 -2.0191219 3.2145226 4289243282
-2.3038812 -2.0123696 3.0091507 4288389532
-2.309202 -2.0133951 3.0534902 4289634696
-2.3272903 -2.0112386 3.0647445 4290689459
-2.2812517 -2.0128694 3.0672293 4290294438
-2.2389998 -2.0207922 3.0359321 4288981671
-2.1726589 -2.0201917 3.0493457 4288981671
-2.2424724 -2.0124753 3.0666289 4289897611
-2.1788936 -2.0149944 3.0851591 4290161039
-2.5762196 -2.0129974 3.3376124 4289374868
-2.1063828 -2.0202127 3.0638294 4289310637
-2.0888653 -2.0217917 3.0662243 4289245879
-2.1250255 -2.0182891 3.1050601 4290159482
-2.0502992 -2.0214217 3.0802615 4288981928
-2.0235295 -2.0235295 3.0688601 4291480011
-2.0520966 -2.0227809 3.1270044 4290357120
-1.9773897 -2.0258553 3.1017878 4289902776
-1.9223244 -2.020905 3.1545835 4291080841
-1.8861523 -2.0222661 3.1111789 4289969603
-1.8194278 -2.0248473 3.1301985 4290429897
-1.7588747 -2.0241799 3.144357 4290956241
-1.8798392 -2.0183535 3.1660447 4291873729
-1.8432919 -2.0216749 3.1712549 4291278218
-1.8112481 -2.0202384 3.184612 4292136902
0.30571923 -2.0010712 2.96455 4290492592
0.31378621 -1.9934652 2.9532819 4287926148
0.29734302 -2.0142591 3.0693471 4290624954
0.36807269 -1.8489233 2.7391455 4282530346
0.39454517 -1.8440698 2.744662 4288253290
0.36758655 -1.7951902 2.735528 4282728240
0.39542311 -1.7708079 2.7507694 4286414198
0.3676821 -1.7443523 2.736239 4283385656
0.39524832 -1.7270632 2.7495534 4286807928
0.36816883 -1.6781648 2.739861 4283846463
0.39536196 -1.6673962 2.750344 4287137666
0.49017549 -1.5570281 2.3067081 4286940292
0.49076819 -1.5156076 2.3094974 4287268999
0.49117103 -1.4590669 2.311393 4287663755
0.49165601 -1.4315866 2.3136754 4287729550
0.5765053 -1.3203831 1.9836742 4285888619
0.58241022 -1.3242171 1.961803 4286873729
0.57643574 -1.3016292 1.9834349 4286676088
0.6364705 -1.0657181 1.5788416 4287143470
0.64188963 -1.0346878 1.5328708 4287803540
0.63675463 -1.0365773 1.5795463 4286881058
0.64463013 -0.97888279 1.5280122 4288392779
0.63687503 -1.0071511 1.579845 4286750504
0.64274532 -0.97850782 1.5349141 4288721238
0.63548648 -0.96061909 1.5764005 4291088089
0.64243233 -0.95640296 1.5457017 4289242500
0.65283525 -0.97693777 1.4816118 4286029348
0.6538167 -0.97612065 1.4733897 4285766949
0.65167135 -0.97985113 1.5002506 4286948142
0.65953535 -0.95724231 1.4656341 4290628311
0.672207 -0.95524156 1.4151727 4288716669
0.69460428 -0.9596507 1.4623249 4287070831
0.65416127 -0.96006405 1.5059828 4289045635
0.66888708 -0.95970756 1.5510426 4287531384
0.71144706 -0.91967547 1.3881893 4282130956
0.71624953 -0.91472828 1.3807219 4280362034
0.70434701 -0.87936652 1.3660063 4288909943
0.71594852 -0.90140504 1.3801417 4282732893
0.69701535 -0.87233818 1.3683736 4290163378
0.69557703 -0.78506649 1.3016646 4290690752
0.70946968 -0.78002471 1.2543111 4288127661
0.70019168 -0.7806735 1.2877089 4289637559
0.70559347 -0.7809096 1.2684826 4289375412
0.72491103 -0.78439093 1.1895976 4290295993
0.71795809 -0.77873766 1.2155905 4288193200
0.72211552 -0.77823848 1.1972899 4288127151
0.73048693 -0.78187793 1.1746523 4289308593
0.73470652 -0.7817567 1.1581581 4289111467
0.7265954 -0.77849507 1.1862782 4287071852
0.7852844 -0.78147233 1.2198592 4287795610
0.71351719 -0.77908361 1.2341919 4288193198
0.75298041 -0.78043282 1.2549673 4285557858
0.76720774 -0.78344494 1.2989761 4287927455
0.77158362 -0.78357714 1.2793096 4287133264
0.78117913 -0.78508508 1.2498866 4286607692
0.78359044 -0.78359044 1.2352164 4287401108
0.77361584 -0.78150988 1.2630463 4287860886
0.77628809 -0.76091605 1.2297633 4289175966
0.7876879 -0.78029174 1.1833808 4285361234
0.79407573 -0.77943838 1.1709872 4287137426
0.78936905 -0.78185123 1.2028481 4288123544
0.7904458 -0.77567112 1.181975 4288584086
0.79855305 -0.78040409 1.1615317 4287137682
0.80439889 -0.76206207 1.1289809 4288386963
0.79403818 -0.75794548 1.1549646 4287860114
0.78332156 -0.76072574 1.2051101 4288386719
1.126017 -0.88678998 1.3198735 4287662985
1.1844313 -0.93031704 1.3782474 4287597194
-2.5817928 -2.0150578 3.3584297 4289440405
-2.5978925 -2.0181975 3.4352298 4289571990
-2.6155138 -2.0186124 3.4728813 4288651669
-2.6535172 -2.0217273 3.6758678 4289571990
-2.6602373 -2.0240936 3.7011998 4289571990
-2.6620533 -2.0226955 3.7198999 4289571990
-1.653363 -2.0285945 3.7523134 4293518029
-1.6785311 -2.0262268 3.8366425 4292795849
0.36820471 -1.626951 2.740128 4284307015
0.39508766 -1.6318839 2.748436 4287532423
0.36835882 -1.5933661 2.7412751 4284438856
0.39484867 -1.5622275 2.7467735 4287861646
0.36918408 -1.5454216 2.7474163 4284767824
0.39458746 -1.501148 2.7449563 4288585368
0.36983535 -1.496543 2.7522631 4285227862
0.39466807 -1.4585559 2.745517 4288783006
0.49197441 -1.3891041 2.3151736 4288124306
0.49184591 -1.3453432 2.314569 4288519577
0.47983155 -1.3066183 2.3622477 4286347370
0.4809528 -1.2652757 2.3677676 4289439645
0.67605031 -0.77939558 1.377937 4289900986
0.66824114 -0.79552519 1.4546746 4291216839
0.66234767 -0.79387766 1.5032003 4290164414
0.66681314 -0.79184061 1.481807 4289245372
0.67021143 -0.78716111 1.4393803 4289770170
0.67481315 -0.77863055 1.384232 4289047735
0.67025846 -0.7880066 1.4492075 4288982456
0.72608298 -0.78582394 1.4705478 4287199572
0.68721861 -0.77884781 1.3327876 4289440946
0.69377261 -0.77998102 1.3136523 4288653237
0.68687618 -0.7790181 1.3402462 4288587437
0.74363601 -0.7871235 1.3915995 4285886294
0.69827759 -0.77947271 1.2991211 4287662960
0.75430048 -0.78363436 1.3409786 4286149723
0.74656802 -0.78069687 1.365153 4287861659
0.75134623 -0.78072846 1.3431888 4287396186
0.74041092 -0.78977168 1.4359485 4287659866
0.743707 -0.78284943 1.3917323 4288255125
0.72968829 -0.78407502 1.4503121 4287927453
0.74243224 -0.76894772 1.4141567 4289045161
0.74352735 -0.77811003 1.3833067 4289111462
0.75292265 -0.76138246 1.3535688 4287596914
0.76522195 -0.78579247 1.3165109 4287527512
0.76638997 -0.76237744 1.2840041 4288189851
0.7583698 -0.76249141 1.318904 4288650404
-3.4109929 -2.0198429 4.2804618 4286223524
-3.3317227 -2.0204425 4.2817321 4282535766
-3.4401233 -2.023602 4.3170176 4288322982
-3.4171913 -2.0124962 4.3221393 4286805074
-3.3098254 -2.031641 4.3054643 4286873970
-3.3194339 -2.0323064 4.335587 4282928714
-3.329659 -2.0363204 4.4028549 4289171786
-2.8471169 -2.0437226 4.5102844 4289176976
-1.7087885 -2.0307343 3.9624083 4292795589
-1.7184416 -2.0320258 4.0138783 4292730053
-1.7275232 -2.0369306 4.1254287 4294177778
0.37037584 -1.4470499 2.7562854 4285425241
0.39478788 -1.4160869 2.7463505 4289242784
0.38651103 -1.3484939 2.7485228 4284769116
0.39461836 -1.3468497 2.7451713 4290492583
0.38662568 -1.3403023 2.7493382 4284769630
0.39563352 -1.29871 2.752233 4288782492
0.38803858 -1.2503465 2.7593856 4285164132
0.39549494 -1.2552665 2.7512691 4290954177
0.48149219 -1.2370646 2.3704231 4289637024
0.48238164 -1.2022434 2.3748019 4290097577
0.48101574 -1.1544378 2.3680775 4290492335
0.48089918 -1.1097673 2.3675036 4290689713
0.60828036 -0.80008048 1.7536011 4290297797
0.65215313 -0.79224527 1.5458444 4289705662
0.63672704 -0.79338211 1.6170846 4288518530
0.64536226 -0.79315507 1.5764574 4289705664
0.62048888 -0.80080187 1.6970636 4290559684
0.63049066 -0.7945208 1.640301 4290034370
0.61716932 -0.79963672 1.7173407 4289968833
0.62554777 -0.76108313 1.6681274 4290623925
0.63248169 -0.79570276 1.6322107 4290493892
0.68943888 -0.79234016 1.6464212 4288383847
0.67711413 -0.78734207 1.6796631 4287468969
0.69024128 -0.77265817 1.6483374 4289047732
0.6598078 -0.79271871 1.5189819 4288255102
0.71138728 -0.78881723 1.5485982 4288585637
0.70006758 -0.78943789 1.5888058 4287594336
0.70261455 -0.78614217 1.5722843 4288847520
0.71911663 -0.78491813 1.5040348 4288387748
0.72121274 -0.7867775 1.4986238 4288387230
0.71190351 -0.76962543 1.5392509 4289111468
0.69558418 -0.79205209 1.6247222 4289045156
0.7029171 -0.77221876 1.5840385 4289177519
0.72854602 -0.76497328 1.457092 4288258219
-4.9254274 -2.0480301 5.4162779 4293056434
-4.88837 -2.0466878 5.4127283 4293056439
-4.7926216 -2.0419269 5.4001369 4293056442
-4.656847 -2.0640237 5.4585752 4290953400
-3.4168696 -1.9760212 4.3911581 4284375377
-4.6485987 -2.0679429 5.4689398 4291018937
-4.525857 -2.0665233 5.4651856 4290953144
-4.3747816 -2.0597224 5.4471993 4290887350
-3.411808 -1.9810498 4.4023328 4286736187
-3.7705674 -2.0729959 5.2232966 4289374369
-3.6944034 -2.0852854 5.2542624 4280822569
-3.8199749 -2.0670857 5.2917399 4289637027
-3.7341316 -2.0322928 5.2872663 4286870355
-3.6817977 -2.0874479 5.2597113 4283257686
-3.5757084 -2.0830963 5.2487464 4287338142
-3.6944466 -2.0211768 5.3014479 4284975775
-3.5946088 -2.0302882 5.325346 4285749782
-3.5040259 -2.0660529 5.2890959 4289505697
-0.41530925 -2.0457826 4.9221835 4290430152
-0.40008467 -2.0465872 4.9241195 4290561225
-0.41782078 -2.0426793 4.9519501 4286678136
-0.4024834 -2.0433774 4.9536419 4287861903
-0.46792001 -2.0330317 5.1632552 4288191639
-0.41333646 -2.0030923 5.0872183 4287336596
0.38764694 -1.214627 2.7566004 4285492584
0.3949545 -1.2106215 2.7475097 4291546057
0.38756528 -1.1626959 2.7560198 4285756527
0.39494768 -1.1676714 2.747462 4291743434
0.3875728 -1.1282675 2.7560732 4285822065
0.39469796 -1.1326115 2.7457249 4292006607
0.38721043 -1.0755845 2.7534964 4286150773
0.39433342 -1.0715582 2.7431889 4292335573
0.48111382 -1.0658522 2.3685603 4291084473
0.48191452 -1.0231416 2.3725023 4291479745
0.4816938 -0.96338761 2.3714156 4291611075
0.48198128 -0.93430215 2.3728309 4291808710
0.54805773 -0.80633783 2.0158446 4291283149
0.55014479 -0.79043788 2.0235209 4290888133
0.56449926 -0.80729467 1.9423631 4291217615
0.56741804 -0.80283612 1.9316359 4290691785
0.58732086 -0.80036861 1.8425752 4290297540
0.59954369 -0.80125934 1.7930279 4290691012
0.58484519 -0.79909545 1.8529749 4288583551
0.55718386 -0.80482119 1.9810983 4290692042
0.57320064 -0.78815091 1.9106688 4291085253
0.55319083 -0.79206872 2.0116031 4290887874
0.61161184 -0.78635806 1.7474624 4289437572
0.62531888 -0.7503826 1.6675169 4290821303
0.62799424 -0.71622485 1.6608113 4289503632
0.62640077 -0.6681608 1.6704021 4291545287
0.62889457 -0.65488195 1.6631923 4289766546
-5.0621662 -2.0353038 5.5666432 4293520624
-5.0713859 -2.0285544 5.5960121 4293451956
-5.074605 -2.0227447 5.6778798 4293452214
-4.7845302 -2.0432158 5.4485755 4293386179
-4.7487502 -2.0498204 5.4661875 4293056440
-5.0689826 -2.0168839 5.7115297 4293517751
-5.136405 -2.0211844 5.933753 4293452217
-5.1848841 -2.0362456 6.03332 4293518008
-4.6051702 -2.0697396 5.5193052 4291807672
-4.5839014 -2.0679255 5.5144677 4291545019
-4.4210043 -2.0631356 5.5479274 4293188546
-3.6071968 -1.6526998 4.5988169 4287206039
-3.6795394 -1.6565256 4.6910462 4288325035
-5.2188487 -2.041321 6.1624784 4293518008
-5.2129602 -2.0381501 6.2712307 4292861919
-5.0952783 -2.0381112 6.2711115 4293718001
-3.5517373 -1.5343505 4.5462236 4288786281
-5.0750914 -2.0300364 6.368742 4291216574
-3.5235488 -1.4433814 4.5282555 4286290607
-3.5012836 -1.6376972 4.5177855 4286676061
-4.2337651 -2.0813048 5.6924572 4293121968
-3.7355847 -1.6619539 4.8791308 4293253743
-4.6970825 -2.115628 6.2110181 4294177780
-4.2213531 -2.0924811 5.822556 4291743653
-4.1867495 -2.0933747 5.8250422 4290887352
-4.2311888 -2.088119 5.8613868 4291349159
-4.2407961 -2.0835214 5.9002376 4293055910
-3.5400741 -1.5669181 4.6427202 4284967531
-3.5964661 -1.5967712 4.7753906 4286809481
-3.4752369 -1.3732791 4.4841766 4285766064
-3.6074958 -1.470282 4.8504148 4287921710
-4.5337667 -1.9787201 6.14748 4293980916
-4.6549153 -2.0118701 6.3117495 4291478968
-4.3240523 -1.9602371 6.1497636 4293125091
-3.6978683 -1.9567196 5.3063583 4286027434
-3.6388106 -2.0404544 5.4412122 4289900454
-3.6730549 -1.8612341 5.2707515 4287342521
-3.8212714 -2.0074883 5.6350546 4290226579
-3.4404387 -1.6107509 5.0042748 4285820212
-3.6227767 -1.7116791 5.3178377 4293910387
-3.5418885 -1.6496468 5.1753621 4286017340
-3.6172447 -1.6758795 5.3097172 4292134482
-2.1291745 -2.0908108 6.1381602 4293385924
-2.0687921 -2.0879476 6.1297545 4291873978
-2.2583537 -2.0784848 6.3953376 4293319864
-2.1046329 -2.0853243 6.1787386 4293651172
-2.2851079 -2.0810804 6.5288796 4293320125
-1.9309295 -2.0838742 6.1177964 4291413953
-1.8345102 -2.0829334 6.1150341 4291479489
-1.9280653 -2.0823104 6.1698089 4293320389
-1.8134073 -2.0834892 6.1733017 4293057990
-1.7758595 -2.0847046 6.1769023 4292137152
-1.5921134 -2.1031623 6.2898307 4293451977
-1.5335284 -2.1036863 6.2913985 4292071359
-1.3666966 -2.0995629 6.3383031 4293451977
-1.3153036 -2.0842502 6.4753408 4293191397
-1.3258111 -2.0805037 6.52707 4294046451
0.38727421 -0.99830687 2.7539499 4286348151
0.39432529 -0.99438542 2.7431324 4292467161
0.38724431 -0.96380806 2.7537374 4286347893
0.39451954 -0.97772235 2.7444837 4292401624
0.38703522 -0.92888451 2.7522504 4286479993
0.39425001 -0.92563045 2.7426088 4292467160
0.38634074 -0.8757056 2.7473118 4286545787
0.39396256 -0.85644037 2.7406092 4291283142
0.50107491 -0.81424677 2.2269998 4290359715
0.4912706 -0.79470241 2.3118615 4291742919
0.62862498 -0.62342972 1.6624793 4289701011
0.62839866 -0.59204501 1.6618807 4289766547
0.62573516 -0.56316167 1.6686271 4291479750
0.62854874 -0.51426709 1.6622776 4289766805
-7.8488121 -2.1609073 7.9481645 4284437821
-7.8382416 -2.1536384 8.0135374 4284437821
-7.7900534 -2.1498523 8.0935621 4283583303
-7.6681457 -1.9170364 7.7652106 4282856742
-7.8327537 -2.1292922 8.1115894 4282397222
-7.5649633 -1.867301 7.6607223 4284238380
-7.6105704 -1.8718555 7.8814969 4285355061
-7.8539572 -2.1443372 8.2673235 4285095239
-7.8961029 -2.146256 8.4790363 4285095239
-7.5009766 -1.8319218 7.9218235 4286344280
-7.4138131 -1.8100612 7.9345155 4285684280
-7.9264498 -2.1495457 8.5981827 4285095239
-7.8458343 -2.1373134 8.6574726 4286084979
-7.9095469 -2.1200848 8.6977835 4282660909
-7.9019613 -2.1327093 8.7495766 4284831813
-7.6353407 -2.1239152 8.6032009 4287465858
-7.9211173 -2.1272259 8.9567404 4283977016
-8.0054092 -2.1386292 9.248126 4283977013
-5.0598712 -1.9507939 6.502646 4289441455
-8.0660353 -2.1647816 9.4894533 4284834656
-7.3892756 -2.1152506 9.0250692 4287531908
-7.3222694 -2.1121931 9.0120239 4287663493
-7.0546198 -2.0881674 9.0299129 4288189838
-3.4708183 -1.3068264 4.4966068 4285567143
-3.7415023 -1.5155452 5.0518174 4287790130
-3.4887879 -1.2622037 4.5382605 4285303713
-3.4551616 -1.2329624 4.5877666 4280034872
-3.7128425 -1.4438832 5.0773916 4286934044
-4.8869505 -1.9764999 6.9503298 4288454554
-3.6781268 -1.4207356 5.0515046 4283514903
-3.730449 -1.4258604 5.3055272 4286410068
-3.4822106 -1.1417084 4.5668335 4286093743
-3.4632416 -1.1832741 4.6176553 4280955448
-3.443285 -1.0910821 4.5343671 4284573279
-3.4346321 -1.0502594 4.5416622 4282335545
-3.8252404 -1.3685127 5.2761936 4284957463
-3.8981349 -1.4236667 5.423492 4288644405
-3.8954613 -1.3040601 5.3499899 4287986986
-3.6954474 -1.5080078 5.3028846 4284319657
-3.6419971 -1.6038153 5.3460507 4289036566
-3.6994717 -1.4432917 5.3086591 4284893981
-5.0946245 -2.1129777 7.5128102 4290097576
-3.6935883 -1.3263339 5.3724918 4286620086
-3.66223 -1.3271383 5.3757501 4290686076
-3.7012856 -1.312274 5.383688 4286817209
-5.8549085 -2.1066728 8.755003 4290887865
-5.498455 -2.1008248 8.2995548 4293122756
-5.1844091 -2.0892396 8.2537861 4293123276
-5.8867664 -2.1044478 9.1003151 4292401369
-5.8846283 -2.1266232 9.3221836 4291019198
-4.1812983 -2.0574641 7.0794463 4288979089
-4.1648402 -2.0602667 7.0890899 4288979091
-3.9564586 -2.0555902 7.072999 4289242004
-5.0184441 -2.0845845 8.2353954 4292202952
-4.9740415 -2.0875509 8.2471151 4291808712
-5.8405218 -2.1317906 9.3448353 4293714615
-5.6356378 -2.1206267 9.2958975 4294046709
-4.8502288 -2.0861199 8.3444796 4293189067
-4.7877502 -2.0896811 8.4645309 4293454312
-5.3825855 -2.123939 9.3104181 4294046452
-5.2929516 -2.122997 9.3062887 4294046452
-3.8819652 -2.0512657 7.0581183 4289899939
-3.7812202 -2.0463076 7.1175914 4288913042
-3.7299697 -2.034529 7.2338805 4288188801
-3.7051785 -2.0333297 7.2296166 4289044106
-5.1202984 -2.12376 9.3096333 4294111985
0.38639385 -0.78137428 2.7476897 4286282360
0.39377016 -0.78754032 2.7392707 4291348678
0.38674352 -0.73910987 2.7501762 4286282615
0.39384776 -0.72776216 2.7398105 4292532953
0.38669401 -0.72182882 2.749824 4286545273
0.39370155 -0.71037453 2.7387934 4292532952
0.38673374 -0.67033851 2.7501066 4286348151
0.39363718 -0.66747177 2.7383456 4292467159
0.62636173 -0.48021063 1.6702979 4291610825
0.62761313 -0.44455928 1.673635 4291479494
0.62786591 -0.42380947 1.674309 4291611080
0.62801158 -0.40820751 1.6746975 4291611080
-7.34972 -1.7464679 7.7620802 4286742646
-7.2419066 -1.7556137 7.8027277 4286353839
-7.44311 -1.8104862 8.0466051 4286541661
-7.6830864 -1.8536117 8.5964603 4285752916
-7.6731224 -1.7707207 8.5853119 4287334013
-7.7472563 -1.8604523 8.8857422 4285160524
-7.7971315 -1.8791647 8.9751148 4284171817
-7.7041106 -1.8224777 8.836256 4287729290
-7.8037872 -1.8661232 9.0478697 4284700489
-8.1740789 -2.1736314 9.796649 4283847501
-8.1300488 -2.1700504 9.780509 4284111446
-7.9397554 -1.8973681 9.340889 4284502855
-8.0761404 -1.8731734 9.8264828 4284832327
-7.6644745 -1.6525633 9.1175909 4283787648
-8.0683527 -1.8100107 9.8170071 4284897865
-7.6641335 -1.5385249 9.1171846 4283853441
-8.0272427 -1.6176573 9.7669878 4285095245
-6.200407 -1.8371576 8.1651449 4286546560
-3.4603317 -1.0295203 4.5756454 4283854206
-6.3308415 -1.6090889 8.4411221 4282862934
-3.8286355 -1.1551917 5.2808762 4284896028
-7.4019098 -2.1883907 10.298309 4285888375
-3.817112 -1.0410305 5.2877741 4280885526
-3.8560452 -1.0394557 5.3649325 4286670108
-3.5045784 -0.80988151 4.712038 4282867057
-3.5549579 -0.79499066 4.7999434 4282337348
-4.1267314 -0.97412121 5.667614 4286734870
-3.8513279 -1.0046942 5.3583694 4286672181
-3.8956532 -0.90285522 5.3502531 4286341922
-7.2204909 -1.5382785 10.0459 4288847511
-4.3365135 -1.3735564 6.2791147 4283724166
-4.082902 -1.2853581 6.0487437 4285884243
-6.7064233 -2.0587161 9.9816532 4287201393
-5.9362903 -2.1264324 9.4508104 4290427058
-6.5947862 -1.8404055 9.8154955 4287399030
-6.5351057 -1.4963561 9.7721214 4289109907
-5.8275647 -2.1298714 9.466095 4290887610
-5.7239017 -2.1243348 9.4414873 4291085246
-6.027678 -1.9566284 10.098727 4289175700
-5.5584226 -2.1287575 9.4611444 4291282625
-5.3205242 -2.1282096 9.4587097 4290492594
-5.9292645 -1.7694664 9.9338465 4289307542
-5.8933496 -1.5736169 9.8736744 4289570459
-5.2070093 -2.1301403 9.4672899 4293583029
-5.0594268 -1.8162044 10.378311 4288717733
-5.013423 -1.574729 10.283944 4288783268
-4.8029966 -1.6009989 10.455503 4288978578
-4.3868003 -1.6041286 10.475942 4288059028
-4.1691236 -2.1497045 10.422809 4288190097
-4.1718712 -1.9866053 10.595228 4287728512
-4.1497006 -1.7784431 10.538922 4288189063
-3.1099234 -2.1147478 9.9517546 4290691003
-3.0292025 -2.145685 10.097342 4291742920
-3.1052225 -2.1573124 10.459697 4290821816
-2.934267 -2.1369119 10.206146 4291677126
-2.7259469 -2.123703 10.143059 4292006349
-2.9909186 -2.145659 10.403195 4291151038
-2.0895739 -2.1784921 14.226886 4293060069
-1.7485564 -2.1958613 13.012512 4290625209
0 -2.159683 10.163215 4294309622
0.10180032 -2.1717403 10.858702 4290229678
0.4305858 -2.1221731 9.8419619 4293254860
0.30451664 -2.1654518 10.827259 4291743177
0.48203063 -2.169138 11.017843 4290887865
0.25260904 -1.9847853 11.547842 4287860875
0.47174412 -1.9958404 11.612163 4287992716
0.25294927 -1.9513228 11.563395 4287861131
0.4721387 -1.9611915 11.621876 4288189583
0.55327302 -2.1208797 9.8359642 4293189064
0.67163146 -2.1064804 9.7691841 4293254599
0.5470823 -2.1541364 10.941646 4290953658
0.72735083 -2.1159296 10.579648 4293191140
1.0157688 -2.1366172 11.208483 4289900711
0.60478944 -1.3607762 8.063859 4288584338
0.68932521 -1.2229965 7.1156154 4289242784
0.68753594 -1.1754647 7.0971456 4289374370
0.38739187 -0.61982703 2.7547867 4286348152
0.39427131 -0.61712039 2.7427571 4292532953
0.3878527 -0.56885064 2.7580636 4286282359
0.39472684 -0.56634724 2.7459259 4292532953
0.38957387 -0.48480302 2.770303 4286216821
0.3956036 -0.51600468 2.7520249 4292532953
0.3896969 -0.46763629 2.771178 4286216564
0.39650145 -0.46545824 2.758271 4292532952
0.49778509 -0.49077401 2.2435384 4292072145
0.50719428 -0.43865451 2.1932726 4292599003
0.49831462 -0.38601834 2.2459249 4291808973
0.49776325 -0.34352675 2.2434399 4291743179
0.62832564 -0.37699538 1.6755351 4291545544
0.63031846 -0.33339158 1.6669579 4289964184
0.63019967 -0.31249571 1.6666437 4290096025
0.63028187 -0.28128284 1.6668612 4290029720
-7.8262963 -1.2801377 9.310092 4283787906
-7.975482 -1.3343012 9.7040091 4284832329
-7.8668203 -1.111298 9.3582993 4283656577
-7.9637413 -1.1119187 9.6165934 4282529058
-7.7714348 -1.1232152 9.7142935 4286282101
-7.687294 -1.1242287 9.7230597 4286676858
-7.8761306 -0.90765822 9.3693752 4282999420
-7.8812904 -0.92196226 9.5170298 4285091612
-7.8805757 -0.73239553 9.3746624 4282539383
-7.939023 -0.74896443 9.5867443 4284171548
-7.6043596 -0.98409355 9.5427256 4282465844
-7.4218736 -0.98362178 9.5381508 4284307278
-7.416543 -0.89355934 9.5312996 4281675302
-7.3337631 -1.3250077 9.8605223 4287464307
-7.3376708 -1.2948831 9.8657761 4287595634
-3.9199169 -0.80066383 5.337759 4284837231
-7.2170744 -1.5061721 10.041147 4288847768
-7.2711082 -1.139962 9.8591299 4288189839
-7.3603354 -0.97939938 9.4972067 4284241743
-7.1438622 -0.99053556 9.6051931 4282266927
-7.2794409 -0.88773668 9.4691916 4286933294
-7.1939926 -0.80596602 9.5521898 4283324507
-7.0057549 -1.0008222 9.7049417 4282332977
-6.8809419 -0.97000062 9.7000065 4283645988
-7.0051217 -0.7516225 9.6207676 4282534227
-6.8358269 -0.90741062 9.6790466 4288116014
-6.5286493 -1.3118312 9.7624655 4288912269
-6.5282221 -1.2812399 9.7618275 4288978062
-6.6636734 -1.0041152 9.7368746 4284899673
-6.6509042 -1.0067883 9.7627954 4284768086
-6.6676798 -0.81460345 9.6545591 4285366150
-6.5595217 -0.78957206 9.7178097 4284038939
-6.4455628 -1.0033187 9.7291508 4285623393
-6.2001657 -0.93758601 9.6783075 4287723598
-6.4354944 -0.78925878 9.713954 4284243812
-6.1747947 -0.90362853 9.6387043 4288316252
-5.8538628 -1.3485339 9.807519 4289570457
-5.8192739 -1.1882287 9.7495689 4289109906
-5.9606981 -0.97816581 9.7816582 4283516989
-5.8031206 -0.982539 9.8253899 4285820259
-6.0675759 -0.87979853 9.7081213 4284505689
-5.8066177 -0.79879397 9.8313103 4284831042
-5.766459 -0.98152494 9.8152494 4285820259
-5.5483499 -1.0422314 9.8092375 4286479738
-5.6995506 -0.91928232 9.8056784 4286933042
-5.5183287 -0.93005532 9.9205904 4286279772
-5.0941019 -1.441727 10.252281 4289703853
-5.0598154 -1.4410866 10.247727 4287733675
-5.1439862 -1.3419094 10.224072 4287930540
-5.061975 -0.98692596 10.187623 4288258986
-5.0346885 -0.9878186 10.196837 4285231728
-5.0892153 -0.96022928 10.242446 4289703852
-5.0471087 -0.95831174 10.221992 4288258986
-4.7870817 -1.4654331 10.420857 4288649615
-4.7367067 -1.4046786 10.453423 4289505958
-4.6557174 -1.2046262 10.418388 4286935885
-4.3894606 -1.5723441 10.482293 4288059028
-4.6510291 -1.1708885 10.407898 4287660132
-4.7514386 -0.93735856 10.343267 4288451977
-4.7186246 -0.96958035 10.342191 4289307804
-4.3836427 -0.8117857 10.390857 4289177765
-4.3740401 -0.97926271 10.445469 4288387995
-4.1421843 -1.4464769 10.519833 4288583564
-4.1335597 -1.3778533 10.49793 4288386186
-4.1012764 -1.1811676 10.499268 4289439648
-4.115531 -0.88189954 10.452143 4288386185
-4.2423525 -1.9326273 15.08392 4291217609
-2.4736784 -2.2717454 16.154634 4290296243
-2.9346678 -2.3138728 18.059494 4293520107
-3.5512719 -2.3244689 20.661945 4292993762
0.25155157 -1.6889893 11.499501 4288321424
0.46504301 -1.5739918 11.447213 4288781975
0.25144857 -1.4727702 11.494792 4288650131
0.46904483 -1.4071345 11.545719 4288913563
0.25174755 -1.2227738 11.508459 4288715925
0.46701103 -1.2932613 11.495656 4288979355
0.69739991 -1.3947998 9.298665 4288847252
0.59307206 -0.96374208 7.9076276 4289242267
0.66697097 -1.0327293 6.8848615 4289703335
0.61032748 -0.82689536 6.3001547 4290032300
0.66657829 -0.94431925 8.8877106 4289242267
0.66472608 -0.83090764 8.8630142 4289373597
0.57162327 -0.64538115 5.9006276 4290163886
0.72560513 -0.72560513 7.7397876 4289045404
0.39054418 -0.39054418 2.7772031 4288059027
0.39724374 -0.4145152 2.7634346 4292467160
0.39081746 -0.36476296 2.7791464 4291348678
0.39698949 -0.36246866 2.7616661 4292927452
0.47401166 -0.33105579 2.4076784 4291217087
0.44057816 -0.33644149 2.5633638 4291874505
0.46243677 -0.31599849 2.4663296 4291345839
0.39416307 -0.29781207 2.8029373 4291151042
0.39924532 -0.31245285 2.7773588 4292795867
0.39565983 -0.23739591 2.813581 4292335573
0.47783437 -0.32851112 2.3891718 4290361520
0.508196 -0.29530308 2.1976044 4291348938
0.48451728 -0.30832916 2.3491747 4290624958
0.50744885 -0.26058182 2.1943734 4292533211
0.50715327 -0.23986979 2.1930952 4292533211
0.50666845 -0.1848655 2.1909986 4292467418
0.63029683 -0.22585638 1.6807916 4291150270
0.63091344 -0.19453165 1.6824359 4290293922
0.63108116 -0.18932435 1.682883 4289766544
0.6317845 -0.15268126 1.6847587 4289634702
-7.7906861 -0.55027151 9.2677307 4282210418
-7.9170089 -0.71701211 9.5601616 4284105238
-7.7100792 -0.45859209 9.1718416 4282210418
-7.9130163 -0.47776705 9.5553408 4283382550
-7.6374383 -0.28391963 9.0854282 4282734955
-7.9305139 -0.20948526 9.5764694 4282395406
-7.6278458 -0.028462112 9.1078758 4281485151
-7.9277978 -0.17949732 9.5731897 4282395406
-7.4490862 -0.20941207 9.573123 4281218365
-7.5974402 -0.059587765 9.5340424 4282136628
-7.5274048 -0.060461082 9.6737728 4283386691
-7.2582765 -0.56059855 9.4416599 4286078250
-7.1194773 -0.55896723 9.4141846 4284184192
-7.2543631 -0.47182852 9.4365702 4286012710
-7.125865 -0.50057733 9.4226313 4284184192
-6.9434075 -0.72139299 9.6185732 4283514140
-6.8021193 -0.57185966 9.63132 4284633130
-6.7098403 -0.4473227 9.5428839 4287130154
-7.2751136 -0.35488361 9.463563 4285880866
-7.1405234 -0.35407555 9.4420147 4284117884
-7.327239 -0.1191421 9.5313683 4284831032
-7.1052232 -0.059707753 9.5532408 4281347113
-6.9412546 -0.23935361 9.5741444 4284701005
-6.664113 -0.35541934 9.477849 4287261742
-7.0458894 -0.059710927 9.5537481 4281478439
-6.8497481 -0.059823133 9.571701 4281676075
-6.6393614 -0.72101659 9.613555 4285366151
-6.5048018 -0.69586259 9.6815662 4283520349
-6.6270318 -0.53975827 9.5957022 4285366665
-6.2864437 -0.69849378 9.718174 4284697894
-6.2469296 -0.66714782 9.703968 4283582018
-6.2042689 -0.51450032 9.6847124 4287394365
-6.6293311 -0.35996369 9.5990314 4285168257
-6.5228157 -0.21336313 9.7537432 4284500770
-6.7163873 -0.091587104 9.7692909 4282533705
-6.0089636 -0.027691076 8.8611441 4282598206
-6.3680186 -0.33356291 9.7036476 4283649336
-6.2147512 -0.36379033 9.7010756 4287065664
-6.3194847 -0.02980889 9.5388451 4281412905
-6.1974211 -0.12092529 9.6740236 4286344230
-6.0306501 -0.72367799 9.6490402 4283581238
-5.8001184 -0.70583451 9.8203058 4284831559
-6.0129271 -0.54116338 9.6206827 4284832847
-5.6020536 -0.73469555 9.7959404 4284045138
-5.5071726 -0.61878341 9.9005346 4285291328
-5.660573 -0.48956308 9.7912617 4287984946
-5.5085454 -0.526097 9.9030027 4285159997
-6.0358572 -0.36215144 9.6573715 4284834393
-6.045846 -0.18137537 9.6733532 4285294166
-5.6364555 -0.33880335 9.8560972 4283913558
-5.509017 -0.34044486 9.9038506 4285094461
-5.6173887 -0.18417668 9.8227568 4283847761
-5.5690203 -0.18771978 10.011722 4284831291
-5.3933954 -0.60635811 10.212347 4288188804
-5.4052248 -0.54372084 10.234745 4287991426
-4.9784212 -0.70661461 10.27803 4287466634
-4.9860601 -0.57902634 10.293801 4287269253
-5.3291798 -0.34893438 10.150819 4288913044
-4.0281091 -0.023556193 7.537982 4285033845
-4.3935809 -0.079883292 8.5208845 4284768865
-5.0124025 -0.38556939 10.281851 4288585890
-4.1121011 -0.025700632 8.2242022 4284902262
-4.8832588 -0.06260588 10.016941 4286019710
-4.7355437 -0.74093544 10.308667 4288386184
-4.5632353 -0.61490405 10.356278 4287798692
-4.5613527 -0.58230031 10.352006 4287535522
-4.5406752 -0.61623454 10.378687 4284640348
-4.3300838 -0.61396712 10.340499 4283790620
-4.5283518 -0.54987133 10.350519 4284114012
-4.3124971 -0.48274222 10.2985 4286086261
-4.8346701 -0.063614085 10.178253 4286148712
-4.6220713 -0.064644352 10.343097 4288650652
-4.2118864 -0.062398314 9.9837303 4286482469
-3.9824672 -0.059886724 9.5818758 4283783005
-4.0920868 -0.68747056 10.475742 4289044632
-4.131597 -0.59022814 10.492945 4287728512
-4.0894613 -0.32715693 10.469022 4288255117
-3.2827039 -0.026688647 8.5403671 4285623661
-3.2129598 -0.026553387 8.4970837 4285426796
-3.2095864 -0.027668849 8.8540316 4285689702
-3.4095998 -0.03247238 10.391161 4287004530
-3.3746688 -0.55664641 11.132928 4290820781
-5.4424181 -0.80399358 19.790611 4289700487
-3.3723896 -0.31290215 11.125409 4290491559
-3.439188 -0.033069115 10.582117 4288189837
-3.3604579 -0.20786338 11.086047 4290228387
-5.0521874 -0.40649781 18.582758 4291676350
-3.444402 -0.03785057 12.112183 4287005045
-6.0170393 -0.072494447 23.198223 4287398258
-5.9608965 -1.3822368 27.644737 4287730831
-5.3374376 -1.4177568 26.687187 4291676868
-5.3287005 -1.3751485 27.502972 4287073160
-6.0499501 -1.0371343 27.656914 4288190856
-5.4060612 -0.85810488 27.459358 4288059004
-5.0754004 -1.0150802 27.068804 4288189047
-2.78122 -0.78599691 19.347616 4288848027
-1.7251364 -1.0455372 16.728596 4288321938
-1.8934143 -0.6652537 16.375475 4288387475
-3.6074681 -0.69079179 24.561485 4292664794
-3.6086838 -0.46068305 24.569763 4292598744
-2.8252814 -0.57789844 20.547501 4289242005
-1.8962929 -0.51251161 16.400372 4288387732
-2.8592138 -0.38989282 20.794283 4289044627
-1.9070966 -0.30925891 16.493809 4288453525
-1.4190346 -0.99857986 16.818188 4287334270
-1.238234 -0.90486336 15.239803 4291413954
-1.4037508 -0.88384312 16.637047 4287729542
-1.2393223 -0.8103261 15.253198 4291413954
-1.4053948 -0.52051657 16.65653 4287926665
-1.2401533 -0.47698203 15.263425 4291479747
-1.3789533 -0.30643409 16.343151 4287860614
-1.2557199 -0.2414846 15.455013 4290821816
0.64862204 -0.502159 6.6954532 4290558644
0.81873864 -0.40936932 8.7332125 4289110942
0.39639181 -0.17617413 2.8187861 4292072401
0.39626986 -0.15850794 2.817919 4291875021
0.39749023 -0.079498045 2.8265972 4291875021
0.39894682 -0.01773097 2.8369551 4291216577
0.50616634 -0.1368017 2.1888273 4292401368
0.50629413 -0.10262718 2.1893799 4292204246
0.53304464 -0.12351035 2.0801742 4292203731
0.53286988 -0.11697143 2.0794921 4292203730
0.50594467 -0.05469672 2.1878688 4292072403
0.48391476 -0.0072226087 2.3112347 4291808974
0.50490308 -0.0068230145 2.1833646 4291875023
0.53174275 -0.045392673 2.0750937 4292006352
0.53153831 -0.038893044 2.0742958 4292006095
0.63154119 -0.12630825 1.6841099 4289700495
0.63063872 -0.073574513 1.6817032 4289634701
0.63024384 -0.063024387 1.6806502 4289634702
0.62854952 -0.015713738 1.6761321 4289437837
-7.6009436 0 9.0757542 4281223007
-7.8350105 0 9.4969826 4280950551
-7.6444411 0.17114422 9.1276913 4281223007
-8.079504 0.18362507 9.7933378 4280425494
-7.8956938 0 9.7177773 4281610539
-6.2660623 0 7.988605 4285553454
-5.6308208 0.22523284 7.2074509 4283515434
-7.6156616 0.45466638 9.0933275 4281222493
-8.6222401 0.48805133 10.411761 4280425485
-7.6484108 0.57077694 9.132431 4280959579
-8.5761776 0.58253276 10.356138 4280423949
-5.5906143 0.35779932 7.1559863 4283120426
-5.2494378 0.42164159 6.7462654 4283714625
-5.578012 0.022491984 7.1974349 4285225296
-5.1127672 0 7.2393165 4285953136
-5.4911551 0.35426807 7.0853615 4284304197
-5.2044568 0.42141351 6.7426162 4283649344
-5.2020798 0.42992395 6.8787832 4283582518
-5.2124872 0.44173616 7.0677791 4282198557
-5.0965042 0.44510955 7.1217527 4282526236
-4.9311094 0 7.2052741 4285558121
-4.8887205 0 7.2425494 4285360999
-4.81107 0 7.261992 4285228899
-4.9964514 0.44611174 7.1377873 4282395679
-4.8559866 0.44550332 7.1280537 4282658337
-4.7452888 0.44766873 7.1627002 4282790953
-4.6219668 0.44873467 7.1797547 4282725417
-4.3633099 0.425143 7.1603036 4284768601
-4.2730565 0.42730561 7.1967263 4284308051
-4.1619344 0.4274419 7.1990213 4283781961
-4.0321188 0.43039471 7.2487531 4283386690
-3.8907924 0 7.2810149 4283978828
-3.8800349 0 7.3035955 4284504915
-3.7931912 0.13547111 7.2251258 4284500285
-3.7484374 0 7.4503107 4284439121
-3.7226787 0 7.5396028 4284308049
-3.8304558 0.38080555 7.1681042 4282399541
-3.7907348 0.36102235 7.2204471 4282987814
-4.0009174 0.43191725 7.2743955 4283386177
-3.9122188 0.43983525 7.4077516 4279637517
-3.7049954 0.36146298 7.2292595 4283251502
-3.6338985 0.36798972 7.3597946 4282988586
-3.773562 0.44257823 7.453949 4279635213
-3.626637 0.45036665 7.5851226 4279635213
-3.5712495 0 7.774148 4284438607
-3.5783165 0 7.8969741 4284635989
-3.3432736 0.047761049 7.641768 4283843896
-3.2710748 0 7.9298782 4284110157
-3.5367134 0.3722856 7.4457121 4282396198
-3.3607647 0.35501033 7.573554 4283514930
-3.5481553 0.45550641 7.6716871 4279635200
-3.437856 0.4388752 7.8022261 4281217586
-3.2644768 0.36271966 7.7380195 4283382578
-3.2412803 0.36555797 7.7985697 4283120430
-3.4200714 0.43972349 7.8173065 4279042048
-3.2220929 0.44959435 7.9927883 4280421645
-3.1452403 0 8.1827393 4283516220
-3.0370317 0 8.3064117 4283781453
-3.0708392 0 8.4712801 4284764483
-3.4972641 0.16653639 10.658329 4285622359
-3.537349 0.33689037 10.780492 4285293399
-3.1674116 0.42734918 8.04422 4282072379
-3.117537 0.43441087 8.177146 4280686093
-3.2067504 0.45094928 8.0168762 4280686093
-3.106828 0.37822253 8.6450863 4284175953
-3.6431413 0.55514532 11.102906 4284899155
-3.6520095 0.79996407 11.129934 4284701775
-3.4795899 0.13383038 10.70643 4287597701
-3.3780391 0.10896901 11.623361 4289113003
-3.4736314 0.23380211 10.688096 4287334529
-3.7748322 0.24353755 12.988669 4288061599
-3.5981109 0.12128464 12.937028 4284244580
-5.1540356 0.25452027 20.361622 4286350475
-3.6530545 0.24353695 12.988638 4286086522
-3.8426106 0.49149671 14.298086 4285625973
-3.5711932 0.54941434 10.988287 4286742134
-4.1483836 0.62448788 14.274009 4286744454
-3.5686412 0.61764944 10.980434 4286610549
-3.1767957 0.47469363 11.684766 4280887588
-2.9669781 0.5651387 11.302773 4286745737
-3.1082666 0.64308965 11.432705 4286019686
-2.8999939 0.64444309 11.456766 4283719256
-6.0232167 0.22587064 24.092867 4289375144
-5.6727228 0.38329208 24.530693 4290887605
-4.7691264 0.69947183 20.348272 4286676342
-5.2993417 0.78773993 22.916071 4289703331
-3.1548395 0.63895482 12.779097 4288190092
-4.8834882 0.85791004 21.117786 4289176987
-3.2241979 0.74404562 13.227478 4284175168
-3.8551304 0.98983079 16.670834 4289440159
-3.6908069 0.39263904 25.128899 4290624949
-3.3659816 0.71616632 22.917322 4289835434
-1.9507344 0.2108902 16.871216 4288453524
-2.3530707 0.6313116 18.365429 4288847765
-1.9312509 0.31317583 16.702711 4287597958
-2.9229505 0.80847567 19.90094 4288454029
-2.3664014 0.94656056 16.827744 4288716952
-2.2878385 0.78121316 17.8563 4288058763
-2.0774288 0.65603012 17.494137 4289374883
-2.1839929 0.93599701 16.639946 4288124816
-1.829964 0.91498202 16.266348 4287532679
-1.5904595 0 15.904594 4288585369
-1.2643545 0.24314511 15.561287 4290032042
-1.3568119 0.30151376 16.080734 4287137406
-1.2609119 0.29097968 15.518916 4290032041
-1.3504281 0.75023782 16.005074 4286807929
-1.2472951 0.67162043 15.351324 4289439904
-1.4920965 0.94499445 15.915696 4286742908
-1.2347476 0.85482532 15.196894 4289110940
0.39825323 0.0088500716 2.8320229 4291414213
0.39704424 0.052939236 2.8234258 4290624694
0.47055784 0.08216089 2.390135 4291807939
0.39745158 0.10598709 2.8263223 4290887867
0.40235385 0.14869599 2.7989833 4290953141
0.39763391 0.19439879 2.8276188 4290427576
0.40192312 0.15727428 2.7959871 4290690225
0.47056732 0.12697849 2.3901832 4291610302
0.47094494 0.14950633 2.3921013 4291474087
0.48185879 0.034917302 2.2347074 4293442232
0.50948954 0.033965968 2.1738219 4290000951
0.4667142 0.072924092 2.333571 4292312154
0.50929868 0.040743895 2.1730077 4288220438
0.51368368 0.03379498 2.1628788 4290474092
0.5302887 0.032334678 2.0694194 4291743181
0.51387346 0.054091942 2.1636777 4289031280
0.53020495 0.038795482 2.0690925 4291743180
0.467172 0.12409256 2.33586 4291524179
0.49165243 0.081942074 2.185122 4289343030
0.46762237 0.1315188 2.3381119 4291786838
0.49034715 0.15884486 2.2100153 4290919218
0.51382411 0.1081735 2.16347 4287836470
0.5307337 0.084140711 2.071156 4291611852
0.51405221 0.15556844 2.1644304 4288375406
0.53110236 0.11658344 2.0725946 4291546058
0.62800604 0 1.6746827 4289503372
0.62668884 0.031334445 1.6711704 4289437325
0.62523425 0.067733712 1.6672913 4289437838
0.62513107 0.10418852 1.6670163 4289240459
3.3163059 0.21190453 3.3904724 4280030733
-7.6127243 0.87935752 8.0398407 4285950817
-7.6435685 0.89773452 8.207859 4287399814
-7.6089239 0.99036801 7.729701 4283053865
-7.6479859 0.98683679 7.8946948 4282856737
-7.718152 1.0746794 7.8158498 4284306759
-7.6799598 1.0550743 7.851716 4283123523
-7.6182394 0.97095215 7.9667864 4285293403
-7.6421938 0.96479523 8.1245909 4285293659
-7.7341032 1.0546504 8.0354319 4283515683
-7.3595977 1.1646502 7.929533 4286545270
-7.70753 0.92702258 8.4756346 4287663237
-7.7558184 0.95246887 8.7082872 4284767574
-7.5672889 0.80385113 8.8700819 4285361000
-7.7866402 0.94552058 8.8990173 4284372816
-8.0399933 0.96479923 9.355629 4283846475
-7.7123032 0.95409936 8.4808836 4285096537
-7.7327347 0.95992565 8.5326729 4284372556
-7.4009485 1.1659029 8.1106281 4286149999
-7.5208611 1.1611154 8.4444752 4285887341
-7.8286033 1.0235276 8.8521309 4283777564
-7.9588575 1.0306435 9.1612749 4283251484
-7.5078835 1.1631932 8.4595871 4286084719
-7.4852991 1.1432092 8.710166 4285755758
-7.8289704 0.81795216 9.3480244 4281221722
-8.4782248 0.92780578 10.237857 4280687629
-8.2154675 0.97009212 9.7009211 4282076515
-8.1414776 1.0406399 9.7942581 4281677109
-7.7142425 1.0979072 9.2455339 4282597435
-7.5687881 1.0977633 9.2443218 4281874474
-7.3641291 1.1371081 8.663681 4286084720
-7.3681612 1.0980004 9.2463198 4282728766
-5.7954588 0.95045531 7.4181876 4284509564
-5.4599199 1.0305872 7.0167642 4284905872
-5.3207917 0.63499159 7.006804 4284696348
-5.2541308 0.5935629 7.0348196 4285885785
-5.3276582 0.65773559 7.0158463 4284696342
-5.2806926 0.72009444 6.9827342 4285551394
-5.098372 0.5738427 7.0626798 4283582273
-5.0421906 0.57498664 7.0767589 4284701259
-5.2940936 0.80609655 6.9716458 4282721814
-5.2092538 0.88255948 6.8882694 4285748774
-5.4163117 1.0264784 6.9887891 4281939517
-5.0478168 0.9584462 6.8156176 4287398523
-5.0995183 0.88593322 6.9146008 4288122750
-5.0326071 0.9596073 6.8238745 4287398266
-4.9803739 0.95276719 6.9292159 4284172856
-4.9655457 0.57635796 7.0936365 4285029709
-4.7598786 0.57830298 7.1175752 4289307804
-4.7244005 0.66540849 7.0976906 4288780681
-4.7089777 0.57751614 7.1078906 4289768357
-4.5016747 0.57942349 7.1313658 4290163370
-4.6787481 0.66522485 7.0957317 4288912268
-4.5452304 0.66515571 7.0949941 4289241233
-4.8172159 0.9018532 7.0388541 4289110161
-4.7984257 0.90245616 7.0435605 4290162594
-4.8055925 0.94356382 7.0218706 4291869836
-4.7054472 0.96747512 7.0361824 4286608490
-4.6265793 0.90328455 7.0500255 4291018937
-4.4654341 0.90635049 7.0739551 4290821559
-4.6608195 0.96733987 7.0351992 4286674284
-4.510006 0.96800125 7.0400095 4286674798
-4.4604716 0.57986134 7.136755 4290228906
-4.2708006 0.58136553 7.1552682 4290031525
-4.3563056 0.66678149 7.1123357 4289241232
-4.2713199 0.67088801 7.1561384 4288714631
-4.226253 0.56200176 7.1936226 4285423958
-4.0825911 0.59300196 7.2984862 4285621584
-4.2138739 0.6724267 7.1725516 4287990390
-4.049612 0.6863749 7.3213325 4287266147
-4.4343085 0.9090333 7.0948939 4289571490
-4.4197626 0.95024902 7.0716205 4292729250
-4.2949772 0.95197946 7.0844984 4283910720
-4.0843 0.91008866 7.1031308 4292729804
-4.0567002 0.89158249 7.1326599 4289439907
-4.0680056 0.95587015 7.1134524 4287201144
-4.0413847 0.95483267 7.1057315 4288122762
-4.0420227 0.64304906 7.3491321 4284242513
-4.0346618 0.6877265 7.3357491 4285098591
-4.0089545 0.8200134 7.2890086 4285295968
-3.9834824 0.95060366 7.2426949 4285098601
-3.5663712 1.1402683 7.7635288 4279635200
-3.5142961 1.171432 7.9757071 4280952358
-3.3998501 1.1749482 7.9996476 4283716432
-3.2978222 1.1759676 8.180644 4282202676
-3.6420302 0.96204567 10.994808 4283781451
-3.602057 1.1566238 10.574846 4285952620
-3.1494646 1.1036584 8.6139202 4281476636
-3.2721016 1.1779566 8.3765802 4283584075
-3.2166753 1.1697 8.5069094 4282794815
-3.1875341 1.1364253 8.8696604 4284568638
-3.4827919 1.1398228 10.131759 4284371519
-3.194839 1.156752 8.8133488 4285095759
-3.5948157 0.89870393 11.060971 4286479220
-3.6403346 1.0500965 11.20103 4286676599
-3.2123096 1.0338467 11.815392 4286151273
-3.0641911 1.0454299 11.535778 4285098591
-3.2084019 1.1432235 11.801018 4287466888
-3.158591 1.138562 11.752897 4287927440
-3.3632915 1.0217595 13.62346 4287137407
0.10993786 0.9894408 11.726706 4286479481
-0.13747998 1.1342099 10.998398 4290032304
0.10797004 1.1156905 11.516805 4288387736
0.33587086 1.0076125 11.942075 4287531652
0.47411203 0.98469418 11.67045 4288716438
0.3300074 1.1000247 11.733597 4287269254
0.35795879 1.1096723 11.454681 4288387735
0.69944108 1.0307553 11.780061 4287597187
0.81290323 1.0346041 11.824046 4287992456
0.67411381 1.09987 11.353496 4288387734
0.77455711 1.0914214 11.266285 4288782492
1.0164889 1.0164889 11.617017 4288321165
0.97913396 1.0840412 11.190103 4287463276
0.39882088 0.24815521 2.8360596 4290229678
0.39805311 0.30959687 2.8306 4289900715
0.47856364 0.18230996 2.4307995 4290225804
0.39633206 0.35229516 2.8183613 4289703078
0.39607674 0.40487844 2.8165457 4288979608
0.48080438 0.17676632 2.262609 4288448378
0.50807148 0.17851159 2.1970658 4285752156
0.48068604 0.26287517 2.4034302 4290755249
0.51414388 0.16236123 2.1648164 4288375406
0.54243314 0.22335482 2.0421011 4289179061
0.48014745 0.30009216 2.4007373 4290623663
0.47919765 0.35191077 2.3959882 4290228904
0.54287285 0.26185635 2.0437567 4289376955
0.54306829 0.2683396 2.0444922 4289376955
0.62444454 0.14050002 1.6651855 4289174410
0.62427717 0.1612716 1.6647391 4288976519
0.62450403 0.2133722 1.6653441 4288779910
0.62460899 0.21861315 1.665624 4288779911
3.1174586 0.37495205 3.428133 4282728498
3.1259007 0.37467986 3.4256446 4282531893
3.2274184 0.37280411 3.4084947 4282070314
3.1422467 0.43192393 3.4553914 4282071086
3.155107 0.46621856 3.4695337 4282400050
3.1406238 0.44097799 3.4417796 4282063872
3.1365855 0.37513977 3.3345759 4280030742
3.1285026 0.46070418 3.4284961 4281670656
3.105392 0.45851427 3.3346491 4278190080
3.3279271 0.25517651 3.4023535 4282530598
3.275851 0.37346834 3.4145677 4281872934
3.2977829 0.33715352 3.3715353 4282196480
3.1854298 0.41235337 3.2988269 4279637526
3.2114537 0.40910235 3.2728188 4280425494
3.2262356 0.46235862 3.2878835 4279045376
-4.8085241 0.77605927 4.8693914 4282195986
-4.7541151 0.75944328 4.8604369 4283513908
-4.8667302 0.8932606 4.9283342 4286672179
-4.6863222 0.85615504 4.8064842 4286340902
-4.655879 0.76829684 4.9171 4284042565
-4.6763659 0.77423275 4.9550896 4286539818
-4.6563244 0.81636858 4.8377395 4288183349
-5.9782829 1.1351171 6.0539575 4288191648
-7.2468123 1.1751587 7.8343916 4286873719
-5.4770226 1.1217998 7.038744 4285170329
-5.4454784 1.1809471 6.9982052 4288387739
-5.4304152 1.1620642 7.1511641 4282399547
-5.3625727 1.1667522 7.1800137 4282662205
-5.4210939 1.1803995 6.9949603 4288454047
-5.2985706 1.1823256 7.0063744 4288782236
-5.1709332 1.1590022 7.1323214 4282925891
-5.1462646 1.1635033 7.1600204 4283386183
-5.1379051 1.1756223 6.966651 4289045408
-5.0021467 1.174417 6.9595084 4289505959
-4.9650669 1.168251 7.1892371 4283649355
-4.9422636 1.1788886 7.2546988 4285163624
-4.8513546 1.1907871 7.0565157 4289769134
-4.8089852 1.1967061 7.0915909 4289769392
-4.7259436 1.1587651 7.2706823 4282991427
-4.6256037 1.1620975 7.2915916 4283319621
-4.6627436 1.1889997 7.4603901 4283386185
-4.3664527 1.1782491 7.3929362 4284374622
-4.3621516 1.1833497 7.4249392 4284966758
-4.1055803 1.1597683 7.4225178 4282267958
-4.0208063 1.168839 7.4805694 4282596923
-3.9795196 1.1773727 7.5351849 4282728507
-3.8347721 1.1817851 7.7177806 4282006077
-3.6821141 1.1792392 7.7011538 4281939507
-3.6585069 1.1793871 7.7021198 4283585361
-3.5277944 1.1841547 7.8943648 4283913297
-3.4697449 1.1896269 7.9308457 4285688156
-3.3090453 1.1853297 7.9021983 4287335047
-3.1602473 1.1850927 7.9006186 4287664011
0.39575943 0.45732203 2.8142893 4289308576
0.39566505 0.50996828 2.8136182 4289045659
0.39459679 0.55243552 2.8060217 4289045404
0.39306048 0.57648867 2.7950966 4288913558
0.47933468 0.35950103 2.3966734 4290294696
0.47835666 0.41108775 2.3917832 4289965731
0.54258239 0.30639946 2.0426631 4289639099
0.54335666 0.3451913 2.045578 4289245112
0.62171519 0.26644939 1.6718392 4290294963
0.62135208 0.2819581 1.6708628 4290163633
0.62510949 0.32297322 1.6669586 4288450945
0.62501204 0.34375662 1.6666988 4288450432
0.67022699 0.34302956 1.688761 4286544494
0.66858745 0.36851278 1.6846298 4286544239
2.5903602 0.74459743 3.355932 4280425494
2.6392024 0.74654728 3.3647201 4281477666
2.8526957 0.59831822 3.418961 4282202926
2.8805947 0.56545007 3.4140382 4280030733
2.9811397 0.56576377 3.4816232 4282531122
2.8855221 0.60916579 3.419878 4280686080
2.931596 0.59266925 3.3866813 4279635200
2.7470272 0.73183352 3.3940105 4282202154
2.8466315 0.73841196 3.4245193 4281872934
2.9008374 0.64225185 3.4253433 4280948224
2.8912668 0.72817087 3.4266865 4281474048
3.070318 0.57020193 3.508935 4282531122
3.1596284 0.55565882 3.4864867 4282400050
3.0005469 0.58958113 3.369035 4280425494
3.0520568 0.57684922 3.3562136 4280427036
3.1297164 0.52519214 3.429826 4281670656
3.0827658 0.57281125 3.3327198 4280689180
3.1394286 0.56986326 3.3155682 4280689186
3.018101 0.63096184 3.3651299 4278190080
3.0624428 0.62498832 3.333271 4279637517
3.1164823 0.61712515 3.2913344 4281675302
3.1610765 0.57003021 3.3165393 4280425500
3.243222 0.580257 3.3157542 4280030742
3.1518626 0.62626588 3.2853291 4280951324
3.1993957 0.63577735 3.2814314 4281215526
0.38922897 0.65736449 2.7678504 4289244071
0.38061157 0.7179718 2.768084 4285295207
0.38767821 0.76674139 2.7568228 4288913816
0.38764161 0.80974025 2.7565627 4288782229
0.62628329 0.3914271 1.6700889 4288319102
0.6245476 0.42511219 1.6794556 4289242273
0.67052186 0.40653688 1.6895038 4286281322
0.6702708 0.43805099 1.6888713 4286149735
0.62130642 0.47261769 1.6992996 4290031794
0.62671906 0.45818955 1.6852949 4288385926
0.62223589 0.5052343 1.7018418 4289900718
0.6278199 0.47482175 1.6882551 4287858803
0.7424866 0.51626027 1.8562165 4284108856
0.74085474 0.54985315 1.8521369 4283977016
2.2857175 0.91634619 3.2947278 4281477660
2.2987733 0.95868123 3.2986879 4279635200
2.321713 0.92457598 3.2873812 4280689186
2.574367 0.77440315 3.3487704 4280948224
2.6508632 0.76790881 3.3661757 4280032284
2.5957971 0.81642008 3.3494158 4280421632
2.4003947 0.91688889 3.2966793 4280689174
2.5189612 0.90185034 3.3171506 4280951324
2.3095872 0.92778289 3.1584101 4279045376
2.3107805 0.92237031 3.1069317 4280953382
2.5922451 0.8780185 3.3448324 4280423936
2.4319839 0.91568631 3.1507485 4281875256
2.5177283 0.91917056 3.1971152 4280689180
2.7312074 0.79529405 3.3486066 4279045389
2.7557187 0.79632938 3.3529658 4280952354
2.7865777 0.81405652 3.3397188 4279637517
2.8069167 0.80646485 3.3515425 4281214502
2.9013422 0.78072482 3.3761072 4282531131
2.8358388 0.81621933 3.348592 4281214502
2.8716636 0.8219617 3.3294649 4281873706
2.5787106 0.91954023 3.1984007 4280425494
2.6678591 0.93626755 3.2215657 4279635213
2.6932569 0.94065964 3.1685376 4280030742
2.7271647 0.94554985 3.18501 4279042048
2.9840598 0.78305113 3.386167 4282069546
3.0582967 0.78581232 3.3981073 4280423958
2.9386897 0.84551775 3.2995815 4281213468
2.951257 0.84616458 3.3021057 4281477670
3.0982225 0.79577631 3.3953123 4280687638
3.1759553 0.81245375 3.376431 4280951324
2.9927454 0.85067767 3.279721 4282859576
3.1852705 0.81997061 3.363982 4281674278
2.9701095 0.85735118 3.2660997 4280427036
2.9916444 0.85475552 3.2562115 4281677102
3.0394845 0.86554861 3.2206459 4281873710
3.2190285 0.81267273 3.3773413 4279635213
3.2185135 0.82040536 3.3657656 4280425494
3.2373741 0.82500827 3.3418057 4280427036
3.0743604 0.86840695 3.1941407 4282531125
3.109503 0.88135594 3.1689203 4282727739
3.0646424 0.8955124 3.1840441 4278190080
3.105401 0.89008313 3.1647398 4280689190
0.38778263 0.87035656 2.7575653 4289045145
0.38771123 0.92189109 2.7570577 4289177503
0.38794225 0.94830334 2.7587006 4289242783
0.38799176 0.99153453 2.7590525 4289506210
0.62261808 0.52150923 1.7028872 4289834927
0.62533247 0.51404446 1.6958169 4289308580
0.62210691 0.56893539 1.7014891 4289374375
0.62474751 0.54533046 1.6942306 4288978842
0.74290997 0.55718243 1.8572749 4283977016
0.6698755 0.54328483 1.6878753 4285688415
0.62233639 0.57446438 1.7021166 4289308583
0.62541443 0.58301342 1.6960391 4288517520
0.62308604 0.60710943 1.7041669 4289439655
0.62558895 0.60438251 1.6965123 4288648849
0.67049778 0.57546651 1.6894431 4285623389
0.6697005 0.60114849 1.6874344 4285424987
2.0121887 1.076521 3.219502 4281675302
2.0347474 1.0778116 3.223362 4281477666
1.9848715 1.112731 3.2078731 4280423949
2.0402992 1.1055808 3.2162352 4280030733
2.0134871 1.1476877 3.2215793 4280028416
2.0587988 1.1393353 3.1981339 4279045376
2.3092227 0.98966682 3.2988894 4280423936
2.3050811 1.0853522 3.3077397 4280689180
2.2979648 1.0879745 3.2537556 4278190080
2.0696011 1.0979574 3.1092598 4280427042
2.0973411 1.0972201 3.1071718 4280690214
2.0442452 1.1089065 3.0856531 4280427036
2.0463901 1.1092582 3.0600226 4280425494
2.1954887 1.0928656 3.122473 4280427042
2.238615 1.0901082 3.1145949 4280690210
2.0705602 1.1098949 2.9845912 4280689186
2.30935 0.92374003 3.0791333 4280427030
2.3313386 0.92301989 3.0450139 4281676330
2.3765271 0.94129103 2.9823084 4280427036
2.3756614 0.95026457 2.9812222 4279045389
2.2632642 1.0879209 3.1083455 4280689186
2.3139005 1.0894616 3.0852008 4280030742
2.2538471 1.0933557 3.0690684 4281872942
2.3126287 1.084937 3.0454371 4279637526
2.3298125 1.0789706 3.0554917 4279042048
2.3155131 1.0868735 3.0243437 4280030742
2.328095 1.0858309 2.9446261 4280030742
2.3807802 0.93929225 2.9759753 4281675302
2.6055374 0.93682241 3.1227415 4282070318
2.3926723 0.94228792 2.9561975 4281674274
2.4169352 0.95016921 2.9519818 4282398758
2.6891232 0.94562566 3.1520858 4280425494
2.7199807 0.94952047 3.1650684 4279635213
2.4858563 0.97031564 2.9571524 4281872938
2.5446486 0.99009961 2.9610455 4283515971
2.4407053 0.98725164 2.92519 4279045376
2.3362341 1.0859839 2.9202926 4280030742
2.4018574 1.045083 2.9335663 4279042048
2.5064628 0.99156773 2.9379785 4280425500
2.5471387 0.99670637 2.9532042 4281676330
2.7838464 0.96401751 3.1478121 4279637526
2.8182552 0.97517478 3.1205595 4280425494
2.8110027 0.98529989 3.0911369 4282070314
2.8525145 0.9832899 3.1153741 4280030742
2.8700228 0.98899442 3.1027274 4280423958
2.9025249 0.99624622 3.0653729 4280030742
2.5773852 1.0033393 2.9455831 4282858808
2.6266751 1.0214849 2.9185281 4282070318
2.639941 1.0342038 2.903028 4280689180
2.6556168 1.0276873 2.910265 4282860096
2.6485505 1.0340232 2.9025211 4281215530
2.7153666 1.0464535 2.8867683 4282530613
2.9143658 1.0000274 3.0477028 4280425494
2.9408605 1.0118073 3.0259659 4281214502
2.8828461 1.0141609 3.004921 4283517765
2.9534578 1.015839 3.0098934 4281477670
2.7429833 1.0543063 2.8591359 4282530613
2.7620854 1.0602844 2.8511851 4283255106
0.38222584 1.051121 2.7798243 4283057988
0.38471952 1.1454149 2.79796 4282927172
0.3849436 1.1548308 2.7995899 4285098085
0.38165396 1.2248429 2.8402154 4289572526
0.53046274 0.91030025 2.0956552 4289572010
0.53810078 0.88402271 2.0499077 4288454049
0.62418813 0.65619779 1.7071812 4289176742
0.62645996 0.64769584 1.6988744 4288780952
0.62412941 0.68814266 1.7070205 4289176483
0.62665009 0.69568783 1.6993901 4288452241
0.66873372 0.63187444 1.6849984 4285359448
0.6691221 0.69019687 1.685977 4284833617
1.2972748 1.2588371 3.075022 4282531118
0.62452304 0.71526569 1.7080972 4288979360
0.62665391 0.70100272 1.6994004 4288386448
0.62481892 0.74230629 1.7089065 4288913565
0.62683553 0.73307884 1.699893 4288385678
0.67061841 0.72342294 1.6897471 4283054115
1.239141 1.2580593 3.0269094 4282398762
0.6710645 0.72918814 1.6908711 4283844410
1.2359693 1.2725906 2.9297051 4281677109
1.3625902 1.2659527 3.0924034 4282728504
1.4205338 1.2659178 3.0923183 4282202162
1.4718298 1.2588017 3.0985889 4282066445
1.5250549 1.2611032 3.1283178 4282531122
1.344877 1.2680268 3.0740044 4281872938
1.3632168 1.2704809 2.9675467 4281676334
1.2452872 1.2727567 2.9300873 4281479730
1.3269405 1.2716514 2.9487567 4281677106
1.4219158 1.2732186 2.9739413 4280953390
1.4490575 1.2725698 2.9724257 4282202936
1.3991919 1.2703189 2.945667 4282533191
1.4186347 1.271244 2.9478123 4282860869
1.6232373 1.2690763 3.1480963 4280951318
1.6341194 1.269888 3.1501098 4280951318
1.7027048 1.2671292 3.1678231 4280425485
1.816541 1.2675864 3.1939182 4280951324
1.5466293 1.2747976 2.9995236 4282532421
1.5744857 1.2745836 2.9990203 4282203458
1.6342567 1.275287 3.0229027 4281478702
1.7523168 1.2735417 3.0641606 4280952354
1.8945723 1.2530239 3.2077413 4282202154
1.9356005 1.2536272 3.2092857 4281674274
1.8435299 1.2724364 3.2061388 4280951318
1.9251913 1.2767059 3.2424276 4280425485
1.9988245 1.229277 3.1981192 4280030720
2.0368888 1.2100331 3.2267547 4278190080
1.9421635 1.2721171 3.1074617 4279635213
1.9812294 1.2660539 3.0926509 4280427042
1.7805974 1.2732229 3.0633936 4280952358
1.8844206 1.2756078 3.0923824 4280690214
1.9280093 1.2724861 3.0848148 4280690218
1.942282 1.2692139 3.0768824 4281480501
2.0832765 1.2225802 3.1298051 4279045398
2.0684109 1.1544619 3.0785649 4279635200
2.0357661 1.2639117 3.0874178 4280428070
2.0733714 1.105798 2.9487948 4281478698
2.0718832 1.104396 2.9207165 4281215530
2.03894 1.2635684 3.0631962 4281215530
2.0321131 1.2629488 3.0386736 4281675306
2.0502038 1.2616639 2.968621 4281215530
2.0543485 1.2600005 2.9217403 4281477674
2.0582533 1.2603401 2.9015024 4281872942
2.0715654 1.0982869 2.8573315 4281477670
2.0878186 1.0965433 2.8071508 4281873714
2.0806515 1.1061691 2.8093185 4280425494
2.0977316 1.104978 2.762445 4280952358
2.2668154 1.0841291 2.8671184 4282202162
2.0986822 1.1050205 2.7411361 4281477670
2.1145616 1.1080301 2.7066386 4281477670
2.0703254 1.2617434 2.8433654 4281477670
2.122647 1.1118628 2.6954248 4281214502
2.3519483 1.0855145 2.8947055 4279635213
2.3587153 1.0858991 2.8482599 4280028429
2.3189878 1.0943538 2.7793112 4282529842
2.3944082 1.0963408 2.8066323 4280030733
2.4103615 1.0996175 2.8150208 4279635213
2.379673 1.0983106 2.7893603 4281213468
2.4149365 1.102471 2.7999263 4280030733
2.1667075 1.1250212 2.6667171 4281873710
2.2012267 1.1379926 2.6580851 4282991168
2.2174799 1.1461132 2.6576538 4282399544
2.2603059 1.1633927 2.6591833 4282531131
2.3038716 1.1850851 2.6519387 4282201390
2.4600832 1.1166335 2.7915838 4279637517
2.4957447 1.1265514 2.7730496 4279635213
2.5266151 1.1335156 2.7688932 4279045376
2.4496098 1.1345561 2.7504389 4282529838
2.4844522 1.1347672 2.7509506 4281214498
2.3219333 1.1858444 2.6536379 4283386185
2.5255027 1.137769 2.7582281 4279045389
2.5593507 1.1555598 2.7391045 4280425500
2.5690823 1.1700771 2.7132223 4282201390
2.7458873 1.066364 2.8436372 4281675298
2.7747655 1.0638077 2.8368208 4283123010
2.5859904 1.1653969 2.722095 4280689180
2.6124079 1.1704944 2.71419 4280030733
2.6547999 1.1836689 2.7055287 4279045389
0.38049656 1.2742211 2.8316023 4290823108
0.46955532 1.1776149 2.3850429 4288585113
0.62520361 0.78551221 1.7099586 4288716187
0.62715948 0.77597702 1.7007715 4288254864
0.62510067 0.82278204 1.709677 4288518806
0.62705874 0.79710859 1.7004983 4288123277
0.89804137 1.0606787 2.2627814 4284635731
0.62482655 0.84912318 1.7089273 4288386708
0.62658972 0.83368289 1.6992264 4287925383
0.62568039 0.87702209 1.7112626 4288189328
0.62766808 0.88299066 1.7021507 4287464574
0.66486013 0.84426677 1.6885337 4285293144
0.66471219 0.85462987 1.6881579 4285293144
2.0786748 1.2683439 2.818542 4281871910
2.0845625 1.2700065 2.802773 4281872938
2.1074479 1.2712945 2.7302969 4282070314
2.1187098 1.2695444 2.6904252 4281873706
2.1256523 1.2688001 2.6364679 4282070322
2.3096755 1.1920905 2.6490901 4281477670
2.1384194 1.2734407 2.5628996 4282399547
2.1479459 1.2713944 2.5269949 4282860098
2.1388044 1.2691807 2.5070236 4282991168
2.1480737 1.2700289 2.5086992 4282859584
2.3560014 1.2069341 2.645335 4282530610
2.3898427 1.2154527 2.6280057 4283254597
2.3991077 1.220024 2.6201859 4282859576
2.4121182 1.2263631 2.5989151 4282399541
2.4187694 1.225618 2.5973361 4282991936
2.1508899 1.2674887 2.4581599 4282728509
2.4350007 1.23352 2.5631585 4282992450
2.4798884 1.2399442 2.5598848 4285031264
2.4607878 1.2423395 2.5483887 4283387205
2.477973 1.2469288 2.5415108 4283650383
0.52923727 1.1303463 2.0908139 4289308323
0.53220069 1.1228136 2.0768807 4286476894
0.53052509 1.1658453 2.0959017 4289374114
0.53315592 1.1573384 2.0806084 4286213461
0.53087318 1.1797181 2.0972767 4289374114
0.53349835 1.1710939 2.0819447 4286147925
0.53131807 1.2200637 2.0990343 4289243045
0.53401226 1.2112961 2.0839503 4286477153
0.62629873 0.89930069 1.7129537 4288189074
0.62685061 0.91902673 1.6999339 4287464830
0.62501335 0.95087498 1.7094382 4287925642
0.62621045 0.92339504 1.6981978 4287399034
0.66497487 0.94468659 1.6888251 4285030229
0.62469113 0.977081 1.708557 4287794570
0.62458622 0.95275867 1.6937932 4287135093
0.62630349 1.0010149 1.7129668 4287662984
0.62446535 0.98432672 1.6934654 4286938227
0.66402256 0.97495383 1.6864066 4284832591
0.69471574 1.0448086 1.7504648 4282595378
0.89052773 1.2788782 2.1426232 4282530610
2.1657369 1.2721813 2.4232023 4282860091
0.62726623 1.0293599 1.7155999 4287662983
0.62320232 1.0140241 1.6900402 4286938487
0.62321621 1.0546736 1.704523 4287399811
0.62119019 1.0423362 1.6845837 4286807416
0.66959304 1.03866 1.6871636 4282199580
0.89692104 1.2822649 2.1260352 4281675306
0.66804665 1.0573022 1.6832672 4281870876
0.6258775 1.1073217 1.7118018 4287334017
0.62454188 1.0955946 1.6936728 4286609778
0.62594849 1.1395472 1.7119958 4287333504
0.6249277 1.1121595 1.6947192 4286740584
0.68613315 1.1237457 1.7288394 4282727985
0.78574097 1.2852042 1.9491249 4282465576
0.79110384 1.2862985 1.9324673 4281874477
0.90973884 1.289342 2.0943627 4281674274
0.91444588 1.2906009 2.0753381 4281215522
0.91676438 1.2912173 2.0659478 4280689180
0.92492902 1.2923666 2.0272417 4280689174
0.93063056 1.2928895 1.9986697 4280427030
0.94185048 1.2927359 1.9698833 4281477670
0.94878817 1.2954607 1.9462321 4280689186
0.96636808 1.2985572 1.9327363 4282399544
-1.223135 1.2845709 1.7872292 4288909169
-1.2219185 1.2835749 1.7936418 4288652981
-0.702663 1.2854919 1.74304 4289246143
-0.70445412 1.2914994 1.7890899 4289373346
-0.69362873 1.2889478 1.747726 4289768877
-0.19996276 1.2911881 1.828231 4290229942
-0.18853651 1.2920296 1.7744613 4290031789
-0.19684368 1.2904197 1.7497216 4289375153
0.28342277 1.2931163 1.8894851 4288059806
0.29323888 1.2937009 1.8399302 4288453533
0.30645588 1.2952096 1.8502996 4288124046
0.3010667 1.2951548 1.8177612 4287599000
0.32232362 1.2948517 1.7783371 4287992720
0.31403965 1.2947248 1.7630296 4286613908
0.32506403 1.2947466 1.7630591 4287860359
0.62521029 1.1756091 1.7099769 4287333759
0.62633032 1.1624267 1.6985229 4285687382
0.62499225 1.1858827 1.7093804 4287267967
0.62596184 1.198876 1.6975236 4285753945
0.71939087 1.2291954 1.8126384 4286087046
0.80185777 1.2948519 1.9007 4281874474
0.68963826 1.2326605 1.7376713 4286151557
0.62398636 1.2426394 1.7066293 4287333760
0.62551254 1.2351223 1.6963053 4285819483
0.6232217 1.2464434 1.704538 4287399039
0.62522835 1.2398597 1.6955346 4285818969
0.69242758 1.2703593 1.7446995 4286087564
0.69480872 1.2801988 1.7506992 4286087305
0.80560827 1.2972662 1.8955489 4281414953
0.81238002 1.2974703 1.8702275 4281546541
0.82236212 1.2963625 1.8274714 4281216806
0.95564443 1.2982339 1.9233094 4280427036
0.86043918 1.2935078 1.8234472 4279635213
0.82461178 1.2958186 1.7950733 4283711259
0.82752591 1.2972027 1.7892451 4281414190
0.87820941 1.2977363 1.789981 4279045389
0.83158219 1.2972682 1.7740419 4281152043
0.88412619 1.3011669 1.7793735 4279635213
0.957528 1.2986473 1.915056 4280689186
0.96648818 1.3003658 1.8744012 4281214498
0.9667303 1.2986798 1.8635764 4281478694
0.96933478 1.2924464 1.8139598 4281873706
0.9127785 1.3055499 1.770237 4279045389
0.92243415 1.3058555 1.7781863 4280030733
0.98358363 1.2947739 1.7782303 4281476636
0.98908556 1.2947018 1.7781314 4282729026
0.98014528 1.2957852 1.772014 4279045376
0.98538035 1.2953876 1.7714703 4281214492
