# .PCD v0.7 - Point Cloud Data file format
VERSION 0.7
FIELDS x y z rgb
SIZE 4 4 4 4
TYPE F F F U
COUNT 1 1 1 1
WIDTH 1579
HEIGHT 1
VIEWPOINT 0 0 0 1 0 0 0
POINTS 1579
DATA ascii
-2.3635411 -1.8828208 2.5638413 4288191364
-2.3611588 -1.8792899 2.5699689 4288125572
-2.3754694 -1.8822924 2.6302776 4290228654
-2.3954577 -1.8827457 2.6896367 4288716937
-2.3953052 -1.8808205 2.6989353 4288716937
-2.4016898 -1.884011 2.7156916 4288651402
-2.4192445 -1.8884032 2.7847419 4290163374
-0.94554979 -1.8996179 2.7259092 4289442485
-0.93829995 -1.9021899 2.7295997 4289311157
-0.96774894 -1.9012413 2.7405279 4290365656
-0.9455002 -1.8738095 2.750546 4291872687
-0.88712341 -1.9021972 2.7296104 4290824657
-0.86020076 -1.9010439 2.7526426 4290033845
-0.85121763 -1.9022108 2.7794862 4289572515
0.36537009 -1.9161631 2.5981872 4289369442
0.41767788 -1.9245942 2.620724 4288909407
0.42806768 -1.9221077 2.6859148 4289243043
0.42658824 -1.9278507 2.6251583 4288382555
0.43531004 -1.9254097 2.6788309 4287797923
0.38702047 -1.9179014 2.7521455 4288192939
0.40831757 -1.9139887 2.7221172 4283064173
0.38090047 -1.9218161 2.7701852 4290097318
0.40317321 -1.8786156 2.7450089 4282464556
0.43541995 -1.9091489 2.6795073 4286149991
0.51604927 -1.6683238 2.2621338 4284508019
0.50944525 -1.6431404 2.2960913 4285952360
0.50960416 -1.6005876 2.2968075 4286215788
0.50975782 -1.5795312 2.2974999 4286412910
0.62311625 -1.2743008 1.7963712 4287663251
0.61062759 -1.2735947 1.8609604 4287926423
0.6147902 -1.2698003 1.8386248 4285098073
0.63667816 -1.2787981 1.7413421 4287401106
0.63906825 -1.2781365 1.7330663 4285689449
0.63427639 -1.2740207 1.749728 4284375382
0.64091575 -1.260288 1.7234708 4285162325
0.62540776 -1.2731515 1.7868793 4285228127
0.65785009 -1.1010824 1.4929931 4287995950
0.66439521 -1.0813605 1.4662515 4289380806
0.65774757 -1.0869162 1.4927604 4288587067
0.66617811 -1.0612906 1.4701861 4288921281
0.6770252 -1.0398753 1.4160004 4287802205
0.67774045 -1.0386153 1.4082919 4288393066
0.67583275 -1.0404267 1.4228058 4287342415
0.67474705 -1.009944 1.3930261 4286358371
0.65874112 -1.0651984 1.4950153 4289376088
0.66553813 -1.0096258 1.4487904 4284651827
0.65758628 -1.0353487 1.4923944 4290230905
0.65653741 -1.0033002 1.479521 4284321298
0.6663686 -1.0085579 1.440797 4284257831
0.67986155 -0.95351648 1.3682748 4288129861
0.67244214 -0.95372516 1.406415 4287407669
0.6780439 -0.95444393 1.3820003 4287932992
0.67118859 -0.99000323 1.3423772 4278218752
0.68806183 -0.94558209 1.2876011 4289574795
0.68209201 -0.946661 1.3228451 4288720989
0.6823948 -0.94548672 1.3154598 4288918115
0.6887241 -0.9449935 1.2813472 4289706128
0.73114496 -0.93890202 1.2785048 4283782754
0.69613636 -0.93492728 1.2951374 4288519545
0.73014528 -0.92780894 1.2908646 4284233731
0.67898792 -0.94558442 1.3329824 4288655187
0.69308215 -0.93504572 1.3123449 4288454008
0.69066584 -0.94066143 1.3559084 4288782718
0.71535414 -0.93416846 1.346549 4286939501
0.72450024 -0.93325454 1.3098309 4288058001
0.72884238 -0.9019928 1.2885611 4285220100
0.72451484 -0.86308324 1.2669111 4287787021
0.73626405 -0.93525428 1.2735378 4286222499
0.73548049 -0.92334777 1.2790965 4280297525
0.73444128 -0.91006851 1.2772892 4280230703
0.72847033 -0.86703807 1.266905 4284439598
0.73397237 -0.77316511 1.1401513 4289243312
0.74665505 -0.7807489 1.0910028 4290098870
0.75591278 -0.77912062 1.0609303 4288847526
0.751095 -0.77816153 1.0826595 4288913578
0.75572145 -0.77902567 1.0653342 4286944422
0.74227828 -0.77712703 1.1151599 4289439665
0.74357235 -0.77455461 1.1015887 4289307565
0.73777103 -0.77307111 1.1296016 4287667371
0.74625695 -0.77415442 1.1158983 4285886566
0.74892241 -0.77615589 1.0893416 4286612072
0.80945969 -0.78142643 1.1213294 4285097809
0.800924 -0.77589518 1.1441772 4286476103
0.80405629 -0.77571946 1.1334714 4287071890
0.81349027 -0.77651346 1.0756897 4286607429
0.81497687 -0.77242792 1.0473598 4287201929
0.81727666 -0.77150911 1.0461141 4287860365
0.81400859 -0.77430081 1.0588729 4286938752
0.82099628 -0.76188451 1.0508752 4287926670
0.81013823 -0.77871042 1.117432 4287466649
0.81572849 -0.78145421 1.0967778 4287067985
0.80805981 -0.77322966 1.1145653 4288650139
0.81475306 -0.75997972 1.0954663 4288188825
0.81673324 -0.76317704 1.0711256 4287926412
0.82637274 -0.76181233 1.0329659 4287531152
2.8960745 -2.2628827 3.3216624 4287465605
1.0473056 -0.81226671 1.1060653 4285495138
1.845948 -1.4295222 1.9889003 4287860367
2.2399538 -1.7298653 2.3656278 4287729812
1.0096579 -0.79001296 1.1336509 4285954150
2.441772 -1.8963591 2.6851101 4287137673
1.7155844 -1.33635 1.9262702 4287334794
3.0004539 -2.3290238 3.3571513 4288123782
1.8077037 -1.4018928 1.9675688 4287794575
1.7838138 -1.3757517 1.8654262 4287663246
3.1590381 -2.4316278 3.3253031 4288845440
-2.9068432 -1.8917551 2.9529836 4288320665
-2.8877234 -1.8913205 2.9523051 4288450423
-2.7999632 -1.8940928 2.928066 4287994001
-2.7294385 -1.8931459 2.9408092 4287665552
-2.9185791 -1.8901274 2.9649057 4289571747
-2.8616948 -1.8892742 2.9635673 4289110163
-2.8329387 -1.8886259 2.9625504 4288255388
-2.7546113 -1.8827814 2.9679313 4288321182
-2.7095213 -1.8920724 2.9391418 4287401860
-2.6542828 -1.8959163 2.9594791 4287994003
-2.4379015 -1.8874077 2.7961595 4287664776
-2.4316192 -1.8893156 2.798986 4288717195
-2.6262386 -1.8957005 2.9591422 4288192157
-2.4372075 -1.8747749 2.8567998 4287862154
-2.7461469 -1.8833373 2.9688075 4287923037
-2.6786494 -1.8853213 2.9866474 4288251750
-2.6242588 -1.8838428 2.9991529 4289109391
-2.6072576 -1.8851036 3.0011599 4288382816
-2.4255621 -1.8815941 2.8536024 4290294962
-2.4318454 -1.8754822 2.8715518 4288914574
-2.4491189 -1.8874788 2.9463084 4290690230
-2.5618598 -1.8837204 3.0139527 4289570201
-2.4491563 -1.8955157 3.0027971 4288520603
-2.5247397 -1.8722788 3.0259051 4290032049
-2.5110209 -1.8691057 3.020777 4288848541
-2.4382033 -1.8942964 3.0008657 4288652449
-2.3609874 -1.8906711 3.0100238 4288915363
-2.4342406 -1.882733 3.0428007 4289965992
-2.3965058 -1.8829687 3.0431819 4289176487
-2.2910066 -1.8856022 3.0169635 4288521118
-2.2811186 -1.8852218 3.016355 4288784292
-2.3229611 -1.8755054 3.0465062 4289702042
-2.3042176 -1.8757473 3.0468993 4289832594
-2.2071519 -1.8850782 3.0312817 4289244586
-2.1665874 -1.8827549 3.0275455 4289639862
-2.2361968 -1.8730538 3.0580468 4289834931
-2.1565681 -1.8690256 3.0671189 4290163897
-2.1202016 -1.883572 3.0288594 4290297794
-2.1467566 -1.8688284 3.0667953 4289699449
-2.0505459 -1.8788723 3.0519753 4289639602
-1.9913664 -1.8764799 3.0636406 4289310380
-1.9546721 -1.8780181 3.0661521 4290034622
-1.8986441 -1.8793685 3.0840919 4290624940
-1.8702157 -1.8798559 3.0848918 4290758346
-1.8194606 -1.8775285 3.0969543 4290625458
-1.7339274 -1.8800447 3.1171727 4290758604
-0.95886052 -1.848614 2.7642825 4288914593
-0.92142284 -1.8256229 2.7556572 4293385121
-0.96389073 -1.8235772 2.778784 4292729036
-0.90850812 -1.8170162 2.7687867 4293388004
-0.89277208 -1.8456347 2.7469912 4289836461
-0.84996241 -1.8300211 2.7753875 4291482845
-0.87493038 -1.8191621 2.7720566 4293057471
-0.85240853 -1.8265898 2.7833748 4291541418
0.35250092 -1.9071203 2.8923151 4290031526
0.35321504 -1.9019272 2.8981748 4288915885
0.34124795 -1.8814751 2.9513335 4289373856
0.34101033 -1.8248661 2.9492786 4288979356
0.35902125 -1.9117882 2.87217 4288587950
0.40247869 -1.8325627 2.7402806 4282859567
0.35960063 -1.8879035 2.8768051 4287794822
0.40218368 -1.7884337 2.7382717 4283450938
0.43153906 -1.7510529 2.6556251 4287202165
0.43155798 -1.7428303 2.6557415 4290160254
0.40232721 -1.7462714 2.739249 4283978050
0.40118057 -1.6730083 2.7314422 4284767313
0.43519711 -1.7073119 2.6781361 4287005304
0.50946009 -1.5499067 2.2961581 4286676338
0.52209985 -1.4604685 2.2577291 4287072135
0.52283376 -1.4201295 2.2609029 4287269773
0.5231002 -1.3996465 2.2620549 4287401104
0.60550535 -1.2697976 1.8811816 4285887350
0.61191541 -1.2469219 1.8472917 4286939513
0.65646613 -1.0056503 1.4898522 4290953877
0.66811854 -0.95900011 1.4544077 4286357800
0.65533102 -0.97602493 1.4872761 4291414444
0.66639131 -0.95850801 1.4605837 4286226216
0.67340928 -0.95695001 1.4177037 4287210802
0.68629473 -0.94420165 1.3988173 4288848253
0.67740864 -0.94209146 1.435568 4288979840
0.70283085 -0.94009221 1.4325215 4287137143
0.66734684 -0.93888789 1.4727653 4289176708
0.69210088 -0.93502367 1.4667039 4287268728
0.70795226 -0.9324249 1.3813703 4287070831
0.71621007 -0.85470372 1.2662277 4289900206
0.7132262 -0.77558482 1.2471715 4290493630
0.70847797 -0.77252114 1.2808641 4289703348
0.71047103 -0.76934981 1.2560813 4289571761
0.72302783 -0.77172917 1.1988026 4289374386
0.73013139 -0.77415937 1.1740806 4289177519
0.73346508 -0.77282172 1.1449211 4289177519
0.72940904 -0.77361566 1.1788429 4289308335
0.78414375 -0.77656752 1.2122029 4284307533
0.71831334 -0.77209079 1.2291993 4289243311
0.72279006 -0.77198517 1.2109572 4287334251
0.71522325 -0.76964247 1.2438666 4287334249
0.76895308 -0.76895308 1.2749481 4285821012
0.77648729 -0.76876104 1.2361987 4287264855
0.7781778 -0.77047306 1.2327569 4286018905
0.77171713 -0.76777983 1.2599463 4287532696
0.7810238 -0.75409192 1.2311705 4288452768
0.77452302 -0.77452302 1.1746321 4285031258
0.79848206 -0.7766059 1.1667318 4287005324
0.78936458 -0.77432907 1.2028413 4287396179
0.79523802 -0.77674413 1.1836101 4286870093
0.80068856 -0.77555484 1.1489701 4287465352
0.80473793 -0.75885379 1.1294568 4288254875
0.79850215 -0.75857699 1.1614577 4288716704
0.78637195 -0.77124941 1.209803 4287860627
0.79400879 -0.75690556 1.1873028 4287926679
2.1900067 -1.7139183 2.5391383 4286939517
-2.5370657 -1.8663471 3.1105785 4289046439
-2.542978 -1.8655052 3.1419034 4288915106
-2.4989448 -1.8668007 3.1607206 4289374868
-2.4982285 -1.858682 3.1977324 4289440662
-2.4965873 -1.8523067 3.2214029 4289571990
-2.5206246 -1.8518877 3.2922447 4289571991
-2.5436208 -1.8604168 3.3634655 4289703320
-2.0093966 -1.863788 3.1063135 4291808713
-1.9886286 -1.8625205 3.1042006 4291874248
-1.901152 -1.862353 3.1039217 4291148191
-1.846247 -1.8657839 3.1259205 4291611599
-1.8383877 -1.8677237 3.1291707 4291146893
-1.7541637 -1.872422 3.1535528 4291409802
0.4004733 -1.6359761 2.7266269 4286939515
0.40325278 -1.5290003 2.6883521 4284569416
0.40296945 -1.4859498 2.6864629 4284964430
0.40269771 -1.4513897 2.6846514 4285161554
0.44056374 -1.4318321 2.7111614 4289176475
0.52372181 -1.3588457 2.2647429 4287401619
0.51332164 -1.3260809 2.2814295 4286938737
0.51437849 -1.2502254 2.2861266 4288980393
0.51614779 -1.2115135 2.2939901 4287991940
0.66961586 -0.76983052 1.4576672 4291217352
0.68374908 -0.76649582 1.3936287 4289900985
0.67583668 -0.76535147 1.4322367 4290164413
0.6835835 -0.76737761 1.4112692 4288057722
0.69817066 -0.76798773 1.3142036 4289900729
0.69029701 -0.7665261 1.3551843 4289703864
0.69738877 -0.76754028 1.3204994 4289834936
0.70562732 -0.77014184 1.29029 4289703350
0.71217537 -0.76818913 1.2803153 4286479734
0.75521284 -0.7722798 1.3653566 4285754966
0.76209396 -0.77042288 1.3326234 4287133782
0.68963701 -0.76626337 1.3622459 4288916150
0.74565017 -0.76309222 1.3953687 4287927197
0.73826277 -0.76527232 1.4405127 4288518813
0.74360424 -0.76560438 1.408008 4287264598
0.75563425 -0.76844162 1.3661184 4288255130
0.7557056 -0.76419669 1.3585719 4288979360
0.74949032 -0.74949032 1.3863405 4288650916
0.76547068 -0.76956409 1.3098963 4288057746
0.76712835 -0.76712835 1.2785473 4287331413
0.76211542 -0.77039927 1.3254181 4286149719
0.76813287 -0.75196165 1.2936975 4288847782
0.77313119 -0.74946392 1.262255 4288978594
0.76605368 -0.74940032 1.3322673 4287662963
-1.6465811 -1.8539283 3.903007 4292861384
-1.6490142 -1.8582176 3.9379447 4293517770
-1.6727692 -1.8501842 4.0551982 4293517511
0.4030984 -1.4108444 2.6873226 4285556569
0.40188581 -1.3312467 2.6792388 4286017378
0.43756494 -1.3715978 2.6927073 4289571489
0.43510675 -1.3136877 2.6775801 4289374886
0.40188894 -1.306139 2.6792595 4286149221
0.40207624 -1.2564883 2.6805084 4286675053
0.43356696 -1.2590117 2.6681044 4289769640
0.43362564 -1.2091485 2.6684656 4288189837
0.51795989 -1.1869915 2.3020439 4289110423
0.5191313 -1.1608353 2.3072503 4289636768
0.51972359 -1.1260679 2.3098826 4289899940
0.51772195 -1.0785873 2.3009863 4290426541
0.64788973 -0.75909466 1.5471994 4290361793
0.62978828 -0.75990975 1.6655557 4290100420
0.64180636 -0.76214504 1.6045159 4290428098
0.64805543 -0.7601251 1.559231 4289705664
0.63843811 -0.76004535 1.62143 4288452220
0.6505416 -0.7506249 1.6013331 4290295481
0.6612308 -0.76440156 1.5006657 4290296513
0.66641432 -0.7629295 1.4707074 4290098878
0.65876317 -0.76302785 1.5165771 4289639871
0.71133345 -0.75972348 1.548481 4287594850
0.67196882 -0.76277548 1.4529057 4288320892
0.73025715 -0.76240689 1.4697 4288519073
0.7180481 -0.76084566 1.5216913 4287989349
0.72246748 -0.7599982 1.5012311 4288518556
0.70896572 -0.75752503 1.5538975 4288914085
0.66322696 -0.72174704 1.5605341 4287992979
0.71975648 -0.74358952 1.5253118 4289309102
0.73150259 -0.76350582 1.4630052 4287331675
0.74092823 -0.7498551 1.4282954 4289373859
0.73621976 -0.74542248 1.4724395 4287268202
-3.3577924 -1.8070047 4.3152351 4285692268
-3.4197726 -1.8128914 4.3948884 4289440425
-3.2630665 -1.8128147 4.2970424 4285954415
-3.2519639 -1.8081459 4.3179603 4282731594
-3.3215013 -1.7968776 4.3560672 4285164348
-3.3112564 -1.807394 4.4150085 4287068501
-3.4990311 -1.8143123 4.6077776 4289439905
-3.2539177 -1.8199879 4.4120917 4290031784
-1.6589129 -1.8518097 4.1151328 4294243829
0.42726049 -1.1728718 2.68085 4285032547
0.42716041 -1.1223431 2.6802223 4285361512
0.43368283 -1.1592677 2.6688175 4290756797
0.43366209 -1.1341932 2.6686897 4291151043
0.4265911 -1.0790246 2.67665 4285756013
0.42623663 -1.0279825 2.6744258 4286019185
0.43325669 -1.0914736 2.6661949 4291414729
0.43283111 -1.0487831 2.6635761 4291743692
0.51621145 -1.0324229 2.2942731 4290887092
0.52022958 -0.92254049 2.2196462 4290625476
0.53378564 -0.88741863 2.1351426 4290425767
0.54740208 -0.89694804 2.110466 4290756282
0.51884758 -0.90265256 2.2744002 4290755247
0.52075011 -0.87029469 2.2827401 4291150264
0.53380239 -0.87410146 2.1352096 4290623146
0.54769051 -0.85782844 2.1115777 4291086021
0.53433704 -0.82154322 2.1373482 4291216058
0.54824215 -0.80584991 2.1137047 4291480523
0.60787737 -0.76121575 1.7524391 4291875024
0.59681147 -0.75596124 1.8188541 4290953928
0.60637558 -0.75521314 1.7640016 4290888135
0.58013529 -0.75180805 1.8943194 4290888391
0.57835984 -0.75127161 1.9079913 4290625991
0.59250242 -0.75357103 1.8407842 4290494406
0.59981269 -0.74127799 1.8107554 4289436795
0.58643115 -0.73890322 1.8765796 4289041520
0.61989892 -0.75884181 1.7100661 4290756805
0.62728918 -0.75907266 1.6868281 4288320634
0.61214757 -0.74332201 1.748993 4288846722
0.66116124 -0.68583143 1.5788925 4291216579
0.65959561 -0.64982384 1.563486 4290162080
0.65929085 -0.63975632 1.5627635 4290753950
0.66034704 -0.61143243 1.5652671 4291348166
0.6621995 -0.69628328 1.5581164 4287992978
0.66079986 -0.64622343 1.5548233 4288124052
0.66039401 -0.62640315 1.5538683 4290029719
0.65983683 -0.61131942 1.5525572 4290029462
-4.9250402 -1.7737033 5.5105348 4293122751
-5.0906615 -1.7621521 5.6958451 4293583540
-4.8768787 -1.7749771 5.514492 4292793264
-4.7670393 -1.7725815 5.5070491 4292859577
-5.1007915 -1.7601322 5.7473707 4293518006
-4.8180089 -1.7677586 5.5459094 4293980400
-4.6393957 -1.7698435 5.4985428 4291415741
-4.5759287 -1.7718823 5.5048766 4291479226
-4.6372499 -1.7649235 5.537015 4293320390
-4.6104145 -1.7679033 5.5463634 4292925112
-4.4131722 -1.7687032 5.4950004 4291216317
-4.3520813 -1.7648203 5.4829369 4291216317
-4.4960642 -1.7638404 5.5336175 4292991168
-4.3592024 -1.7681906 5.6021881 4293056178
-3.7409127 -1.8122642 5.3204088 4285631905
-4.2245107 -1.7980354 5.5861297 4290953144
-3.4468608 -1.390092 4.5390759 4286544475
-3.5998778 -1.4429262 4.760169 4294042514
-3.7611403 -1.8053474 5.3491774 4285697954
-4.1382451 -1.7760708 5.6834264 4292924850
-4.1169481 -1.7798159 5.7529402 4292858528
-3.6559265 -1.8362345 5.2936492 4284441959
-3.5764813 -1.8213562 5.2984905 4283389272
-3.5083709 -1.8123811 5.3207521 4281085483
-3.6489723 -1.7661692 5.3318315 4286013218
-3.6370628 -1.7517964 5.3388081 4285370019
-3.9249482 -1.7742916 5.7350841 4288253561
-3.6198685 -1.6272802 5.3135681 4286356397
-3.5284252 -1.7558514 5.3511662 4285684258
-3.6046314 -1.7343038 5.4409533 4289767062
-0.41924658 -1.8322628 4.9688482 4287007622
-0.40650636 -1.8136437 5.0031548 4289571746
-0.39434069 -1.7981936 5.0475607 4289108089
-0.31339294 -1.8333486 5.014287 4286611571
0.42555013 -0.99295026 2.6701183 4286545530
0.42451081 -0.92393529 2.6635973 4286742910
0.43255663 -0.98988926 2.6618869 4292072402
0.43185392 -0.93014687 2.6575625 4292269781
0.42464334 -0.89924467 2.6644287 4286808958
0.42490774 -0.84981549 2.6660879 4286940545
0.43175954 -0.89673126 2.6569817 4292335574
0.43189096 -0.84717071 2.6577907 4292269523
0.52244598 -0.85881531 2.290174 4291347386
0.52317584 -0.81701422 2.2933733 4292071626
0.5343073 -0.7947821 2.1372292 4291348161
0.54770648 -0.79186481 2.1116395 4291480265
0.52173513 -0.78260267 2.1967795 4292138195
0.5481022 -0.73300415 2.1131651 4290821558
0.52193081 -0.75787205 2.2879157 4291148702
0.52394688 -0.71256781 2.2355068 4289571756
0.52435678 -0.72444028 2.207818 4291151299
0.54772222 -0.71269882 2.1117003 4291283143
0.56863511 -0.65423608 1.9565939 4292401111
0.56829482 -0.62329108 1.955423 4292466904
0.66200846 -0.58845198 1.5692053 4291348422
0.66137594 -0.53889894 1.567706 4291348164
0.66125309 -0.50451165 1.5674148 4291413701
0.66128343 -0.49963635 1.5674866 4291413701
0.66099429 -0.58323026 1.5552807 4289833109
0.66275871 -0.54092807 1.5594323 4289569679
0.66372424 -0.50755382 1.561704 4289634958
0.66363358 -0.49284554 1.5614908 4289832082
-5.1153569 -1.7538366 5.8461223 4293583545
-5.1512308 -1.7484105 6.0160356 4293583547
-5.1728926 -1.7434565 6.130836 4293583547
-5.1864786 -1.7417281 6.1928105 4293583804
-5.2009845 -1.7401791 6.2568235 4293583547
-5.1350427 -1.7250534 6.4188032 4293715132
-4.9441967 -1.7076342 6.3539877 4293849330
-5.2064996 -1.7150822 6.5336466 4290953918
-5.1638975 -1.7144954 6.5314116 4291216573
-3.532037 -1.3352822 4.5945196 4288456364
-3.4963841 -1.3572462 4.7208562 4289243820
-3.4537075 -1.2405154 4.5109649 4288456363
-3.4826255 -1.322516 4.7022791 4281874491
-3.5414593 -1.3655627 4.8019786 4293319549
-4.1738129 -1.7808269 5.9360895 4293455089
-3.550571 -1.3540313 4.8143334 4289175410
-4.6316252 -1.7191622 6.4721398 4293915123
-3.4092789 -1.1317688 4.4711852 4286225587
-3.4060407 -1.1637305 4.5413876 4280427054
-3.4002986 -1.063468 4.4777598 4285764265
-3.3707187 -1.0167871 4.4571486 4283719525
-3.6431324 -1.2766532 4.9820614 4289104955
-4.7007771 -1.7168057 6.5402117 4291020747
-3.6764805 -1.1936624 5.0929599 4281545780
-4.3955193 -1.4203862 6.1422105 4287262230
-4.1694098 -1.7515328 6.092288 4292858796
-3.7977207 -1.5852871 5.574636 4290956501
-4.3796582 -1.6998672 6.3995004 4292795867
-3.586762 -1.418022 5.3384361 4290687827
-3.8272278 -1.7330843 5.7769475 4291084728
-4.2313108 -1.7164751 6.3868842 4294178037
-4.4224095 -1.6962665 6.4619679 4290426024
-3.5723541 -1.3957105 5.3169923 4287658798
-3.5784276 -1.1820146 5.1814337 4284450469
-3.5725741 -1.2454846 5.2441454 4281878610
-4.3225298 -1.7127005 6.5245733 4293191141
-4.8244863 -1.6840187 7.2822433 4290426799
-4.0023971 -1.6713307 7.0371819 4289504917
-3.875174 -1.6733706 7.0457706 4288913296
-3.6400249 -1.6766174 7.059442 4289637022
-3.6055138 -1.6692193 7.1220021 4288912526
-2.0280299 -1.7962549 6.1806622 4293188282
-2.1683905 -1.7705208 6.3659172 4293319865
-1.9483078 -1.7939863 6.1728563 4293188546
-1.8097929 -1.7905397 6.1609969 4293254600
-1.7527974 -1.7913204 6.1636829 4292071616
-1.672007 -1.7886585 6.2214212 4293254338
-1.5546725 -1.7878733 6.2186899 4293320392
-1.4399558 -1.7902153 6.2268357 4293057736
-1.3891881 -1.7860988 6.3505735 4294309365
-1.3223491 -1.7960265 6.3156972 4293254338
-1.2544014 -1.792002 6.3715625 4294045674
-1.2597388 -1.7760252 6.6084661 4294046708
-1.2890874 -1.7751367 6.7624254 4294046708
0.40946618 -0.80221951 2.6740649 4288781456
0.40866727 -0.70891261 2.6688476 4289636254
0.43050265 -0.76993746 2.6492472 4290230972
0.43779248 -0.70212007 2.6432755 4291348678
0.40849963 -0.66693819 2.6677527 4290031526
0.40772232 -0.64070648 2.6626763 4290031526
0.43735963 -0.6519134 2.640662 4292533210
0.4373281 -0.61060899 2.6404715 4292598746
0.53781092 -0.5643695 2.124685 4290951853
0.54502511 -0.55815828 2.1013017 4289901234
0.53739274 -0.55066168 2.123033 4291149233
0.54990643 -0.53681344 2.0948818 4292467162
0.53575343 -0.48283952 2.1165569 4291610300
0.5491966 -0.48381609 2.0921776 4292467418
0.66106749 -0.4651956 1.5669748 4291611080
0.65981245 -0.43987498 1.5639999 4291611080
0.66019309 -0.41078681 1.5649022 4291676872
0.65977937 -0.38120586 1.5639215 4291808716
0.6619556 -0.44292617 1.5575426 4290227617
0.66143173 -0.43771219 1.5563099 4290491304
0.66250086 -0.39653334 1.5474472 4289964439
0.66266918 -0.37728614 1.5478405 4289964438
-7.6124978 -1.7104031 7.7088585 4285425754
-7.6156855 -1.6977642 7.7612081 4284437307
-7.475184 -1.4475753 7.5938377 4284700232
-7.4754257 -1.4522324 7.618268 4284106032
-7.6667085 -1.6926498 7.9654112 4284305720
-7.5941162 -1.6847874 8.0467453 4286150258
-7.6159911 -1.6589289 8.0432911 4282595628
-7.6308317 -1.6676652 8.0856495 4283713590
-7.4601011 -1.4209718 7.578516 4286939517
-7.4599419 -1.4346042 7.6512222 4284897096
-7.500164 -1.4367197 7.7923779 4284304439
-7.4886003 -1.4119918 8.0685253 4285290300
-7.4697824 -1.3581421 8.0482502 4288254597
-7.4995513 -1.6975336 8.1076231 4286874751
-7.7266107 -1.6613531 8.4386187 4285160261
-7.7737756 -1.6522659 8.6676245 4284831808
-7.786109 -1.6723686 8.7730808 4286742393
-7.6154914 -1.671025 8.7660332 4287729286
-7.4899607 -1.4011831 8.152338 4286213214
-7.8108072 -1.6443803 8.7700291 4283318575
-7.4916291 -1.3901992 8.2382174 4286344797
-7.5598588 -1.3960714 8.4291105 4286344540
-7.83706 -1.6557169 8.8304901 4284634432
-7.8507986 -1.6438496 9.0695152 4284109643
-7.5903025 -1.3897736 8.552453 4285950041
-7.6648574 -1.3835483 8.8547087 4285423954
-7.8722429 -1.6267364 9.2956371 4284832589
-7.7925429 -1.6112401 9.3744879 4285360741
-7.7608261 -1.39809 9.1303835 4283843630
-7.8247323 -1.5828657 9.5569248 4283978048
-7.1665931 -1.6019443 8.993372 4287663492
-7.0948195 -1.5984377 8.9736853 4287729029
-7.8495889 -1.5699178 9.6610327 4282727475
-3.644731 -1.0799203 4.7996459 4287140769
-3.3750362 -0.99019653 4.4628577 4285566370
-3.3727868 -0.85724992 4.4970489 4286422193
-3.5141613 -1.0906017 4.8471189 4279049250
-3.660733 -1.1226248 5.2063756 4284303140
-3.3716419 -0.88577032 4.5717177 4280429109
-3.6777234 -1.0599552 5.1391768 4284630307
-6.9572425 -1.5773505 9.0134315 4288124045
-3.3840141 -0.84600353 4.5120187 4285499803
-3.4550662 -0.78064257 4.62603 4283392366
-3.3702865 -0.83181542 4.5893264 4280429106
-3.793328 -0.96075565 5.3007207 4288642854
-3.3758919 -0.70995152 4.6364179 4279640614
-3.8437448 -0.91036052 5.3947291 4286670374
-3.5047901 -1.1362561 5.1211543 4284631583
-3.5068889 -1.1582386 5.147727 4283840529
-3.8949723 -1.1466507 5.8242574 4293449556
-5.7559214 -1.6640342 8.7293596 4293649342
-5.3736901 -1.6776397 8.3881989 4292860361
-6.7250009 -1.651228 9.6071444 4289110940
-5.3861847 -1.2263188 7.6945496 4284307538
-6.6747398 -1.5668404 10.027779 4285690734
-5.6836576 -1.6199799 8.7863312 4293649344
-5.6155095 -1.5767686 8.8520346 4293649084
-6.6715364 -1.5734755 10.070243 4285360744
-5.8589587 -1.5740488 9.3276958 4289900456
-5.2413988 -1.685676 8.42838 4291874762
-5.1120973 -1.686465 8.4323254 4291940298
-4.8886404 -1.6829746 8.5484428 4292991949
-4.8254452 -1.6795747 8.5311737 4292991948
-5.5992146 -1.5632325 9.095171 4290756025
-5.5059824 -1.5609744 9.0820322 4291019452
-5.6903348 -1.5677453 9.2903423 4290032301
-5.4673786 -1.5538867 9.2082167 4290361264
-5.2815261 -1.5451274 8.9898319 4291282370
-5.0678129 -1.5399431 8.9596691 4290492595
-5.4075747 -1.5532395 9.2043819 4290624436
-5.168427 -1.5768082 9.3440485 4290953402
-4.7565756 -1.6756119 8.6483192 4293454569
-5.0107317 -1.5658536 9.1104212 4291940557
-4.9525728 -1.6023029 9.3224897 4294046452
-5.1050344 -1.584321 9.3885689 4291085245
-5.0564866 -1.606178 9.5180922 4291085246
-4.0443068 -1.5981534 10.43692 4287202935
-2.9825292 -1.6676508 10.262466 4291742919
-2.8008931 -1.6550732 10.185065 4291216574
-2.6924796 -1.647164 10.136394 4291413953
-2.5235295 -1.6291139 10.221891 4292269521
-1.2384179 -1.6787443 8.8065271 4288913299
-1.2120054 -1.6802803 8.8145847 4286876291
-1.248028 -1.6640375 8.8748665 4290690746
-1.2324971 -1.6526667 8.9636154 4286151288
0.10742664 -1.7546352 11.458842 4291084988
0.48027891 -1.7610228 10.245951 4292925114
0.31178707 -1.7321503 11.085762 4294112244
0.53558534 -1.7495788 11.425821 4291084990
0.66401809 -1.739095 10.118371 4291018673
0.72561359 -1.735163 10.095493 4290820780
0.60723126 -1.7502546 11.430235 4291743178
0.82082623 -1.748717 11.420192 4294178037
0.87535477 -1.7194468 10.004054 4290886830
0.92906988 -1.6258724 10.617942 4291544495
0.40788817 -0.59934586 2.6637595 4290228906
0.40844259 -0.53347605 2.6673803 4290294957
0.43713927 -0.55261004 2.6393313 4292532953
0.43727773 -0.54453456 2.6401675 4292532953
0.41501164 -0.47311324 2.6560745 4288058512
0.41540647 -0.44033083 2.6586013 4288781978
0.4369112 -0.49461645 2.6379545 4292533210
0.43691087 -0.44515449 2.6379523 4292532696
0.5358513 -0.47631225 2.1169434 4291676093
0.54907972 -0.45102978 2.0917323 4292533212
0.53701013 -0.42430431 2.1215215 4292005575
0.54950857 -0.43175673 2.0933659 4292533211
0.52551788 -0.38348603 2.2725098 4292861657
0.53740603 -0.39807853 2.1230855 4292202696
0.55083722 -0.39345518 2.0984275 4292599005
0.53875506 -0.35917005 2.1284151 4292203470
0.55578792 -0.33082616 2.1172874 4292533211
0.65929389 -0.35162342 1.5627707 4291808973
0.66018283 -0.31297559 1.5648779 4291874510
0.66040689 -0.29351419 1.5654089 4291875023
0.66007221 -0.26402888 1.5646156 4291940561
0.66214782 -0.3479901 1.5466226 4289898133
0.66285193 -0.31449181 1.5482674 4289898133
0.66322047 -0.29046151 1.5491281 4289963924
0.66443795 -0.2376457 1.5519719 4290556323
-7.6732011 -1.3107247 8.7381649 4286874755
-7.5746078 -1.3317991 8.8786612 4287992460
-7.7230134 -1.3729801 9.1532011 4284766539
-7.9111619 -1.3978369 9.5171871 4283448876
-7.6082101 -1.099285 9.2571373 4284182148
-7.8343 -1.3717645 9.7547703 4284700743
-7.780127 -1.1200961 9.6873178 4285160781
-7.6112719 -1.0129069 9.2608633 4283985027
-7.5515776 -0.77525699 9.1882315 4283985027
-7.7484016 -0.96478158 9.6478157 4285424209
-7.7593184 -0.87556517 9.6614084 4285621587
-4.674427 -0.86782616 6.3114629 4282403672
-6.5932488 -1.1684239 8.902277 4283980379
-3.3652396 -0.61315811 4.5630369 4281478694
-3.8390598 -0.81178361 5.4118905 4286209820
-3.467176 -0.54822868 4.7414374 4281876544
-3.653785 -0.61955482 5.0835266 4284696348
-3.6329784 -0.54572636 4.9894981 4281940276
-3.6632431 -0.55988431 5.1189423 4284434987
-7.0861177 -0.8895992 9.816267 4287730578
-3.8799214 -0.50607669 5.3981514 4285623147
-4.3371706 -0.85159051 6.3374181 4286416527
-3.669255 -0.72375214 5.3860626 4281488240
-4.0495195 -0.75812918 5.9171057 4285951072
-4.0589228 -0.78559798 5.9855084 4284433169
-6.5441399 -1.4887142 9.9247618 4285755242
-6.3266439 -1.0594858 9.6867275 4288780683
-6.2767596 -0.84090555 9.6103497 4289175441
-5.7308054 -1.0113187 9.8067265 4288386183
-5.6925578 -0.76103717 9.7412758 4288451719
-4.9503455 -1.0030112 10.353664 4290492595
-4.9688601 -0.90342915 10.324904 4287799469
-4.9309835 -1.2082543 10.449767 4288651424
-4.310729 -1.2268997 10.611025 4288783267
-4.9256759 -1.0045787 10.369844 4289572524
-4.7093492 -1.0209079 10.538404 4288386185
-4.9206281 -0.93880403 10.359217 4288390574
-4.661716 -0.89266908 10.579782 4289703078
-4.2940788 -1.1560981 10.57004 4288980646
-4.6146288 -0.82404089 10.547723 4286937191
-4.0638356 -1.444173 10.747334 4288452237
-4.0278416 -1.231654 10.652143 4288518543
-4.0021658 -1.0914997 10.58424 4289044630
-3.9970875 -0.99101335 10.570809 4289307547
-3.5087121 -1.6010628 10.900853 4286676858
-4.0834761 -1.2010223 15.373085 4290559937
-1.6643431 -1.5425618 12.989994 4292203986
-2.2406347 -1.3941727 15.933402 4289506983
-1.9278221 -1.4794915 14.346583 4293585643
-2.1567817 -1.4215152 15.685685 4290559159
0.10900624 -1.7440999 11.627333 4290558642
0.32378149 -1.7268347 11.512231 4290492592
0.5048095 -1.7307755 11.538503 4290492849
0.43874136 -1.1334151 11.699769 4288321168
0.43862361 -1.0600071 11.69663 4288386960
0.68922305 -1.7411951 11.607967 4290953401
0.79773033 -1.7405026 11.60335 4290953658
0.66332597 -1.4003547 11.792461 4289045405
0.91266525 -1.564569 10.43046 4290427314
0.97079074 -1.1865221 8.6292515 4289374108
0.77337682 -0.98672217 8.5338135 4287926408
0.98341739 -1.0653689 8.7414885 4289834664
0.6544739 -1.1271493 11.635091 4289374114
0.65567225 -1.092787 11.656396 4289374114
0.7663151 -0.8191644 8.4558907 4288452495
0.96857607 -0.96857607 8.6095648 4289769127
0.77975947 -0.77975947 8.6042423 4288452494
0.93840539 -0.78200448 8.3413811 4290163629
0.4153842 -0.35723042 2.6584589 4288912788
0.4153358 -0.34888208 2.6581492 4288781460
0.43659982 -0.39541116 2.6360743 4292533210
0.43691641 -0.34623563 2.6379857 4292269780
0.41505784 -0.28223935 2.6563702 4288781461
0.41461962 -0.20730981 2.6535656 4288913305
0.43685836 -0.29673401 2.6376355 4292401367
0.47998896 -0.25547799 2.4773624 4291545538
0.43643585 -0.20586598 2.6350844 4290559163
0.47523284 -0.23372106 2.4930248 4290952892
0.52534688 -0.30526912 2.2717702 4292927194
0.52487671 -0.26243836 2.269737 4291216830
0.53871328 -0.31258672 2.1282499 4292203732
0.55666775 -0.31809586 2.1206391 4292467419
0.52907324 -0.26110107 2.198746 4290690494
0.56360435 -0.27185625 2.1218047 4291216317
0.50775093 -0.25755483 2.3547869 4290361517
0.51501483 -0.2611343 2.3211937 4291348416
0.48744884 -0.22849163 2.4372442 4292927454
0.52892393 -0.2435834 2.2270482 4291086021
0.54195821 -0.20488665 2.114959 4290820268
0.54022253 -0.193413 2.1342125 4292795869
0.54181004 -0.16518599 2.1143806 4291083698
0.66461492 -0.22315538 1.5523852 4291083961
0.66480863 -0.20380995 1.5528377 4291348167
0.6653921 -0.15429382 1.5429382 4289963924
0.66251922 -0.12573357 1.5474901 4291413701
-7.5471292 -0.68871135 9.1828184 4283984255
-7.662735 -0.37733164 9.2881632 4283262334
-7.7511606 -0.56643093 9.5398893 4282529052
-7.5994759 -0.5684647 9.5741425 4285623399
-7.7172332 -0.38586169 9.4981337 4284500258
-7.3950057 -0.4751811 9.5036221 4285359706
-7.6669798 -0.23233274 9.2933092 4282736505
-7.647069 -0.11586468 9.2691746 4282735989
-7.7042265 -0.23705313 9.4821253 4285025046
-7.6873131 -0.059133179 9.4613085 4285091094
-7.5299401 -0.57689059 9.7160521 4286873978
-7.229918 -0.44629127 9.5208797 4283781188
-6.9126611 -0.37917548 9.3335505 4285105295
-7.0514021 -0.5799855 9.7681761 4287400067
-7.015399 -0.58206367 9.8031778 4288321426
-7.0620079 -0.45269284 9.6574469 4284635729
-6.8337197 -0.45558128 9.7190676 4282595378
-6.9135895 -0.35005516 9.3348045 4285105294
-7.1416612 -0.15066795 9.6427488 4284575345
-7.158699 -0.30333471 9.7067108 4283389788
-6.9097872 -0.24459425 9.7837696 4285025564
-7.1831903 -0.18262348 9.7399187 4283258205
-6.9095488 -0.18343934 9.783432 4285026076
-6.8311195 -0.57942533 9.7587423 4288650648
-6.7846847 -0.45433155 9.6924067 4284767571
-6.52174 -0.45927748 9.7979193 4284570193
-6.1500382 -0.56449622 9.5073051 4288453011
-6.1211467 -0.56457174 9.5085773 4289308578
-6.4942131 -0.4594962 9.8025856 4281938475
-6.1857386 -0.45483369 9.7031193 4282727218
-6.7984495 -0.36914659 9.8439093 4287918894
-6.6540337 -0.36966854 9.8578272 4284376681
-6.7033944 -0.0303321 9.7062721 4287525440
-6.577292 -0.18270254 9.7441359 4282664261
-6.4294305 -0.21229251 9.7048006 4283842588
-6.123826 -0.27420115 9.7493744 4286539835
-6.3240571 -0.18242472 9.7293186 4285228382
-6.0995512 -0.06069205 9.7107277 4286473784
-5.9261265 -0.56581104 9.5294495 4289572008
-6.1209393 -0.39786106 9.7935028 4287656242
-5.807384 -0.4609035 9.8326082 4283714623
-5.6210642 -0.57729852 9.7229223 4289834923
-5.6822906 -0.46072626 9.8288269 4283320126
-5.6432233 -0.4340941 9.9221506 4285815600
-6.10919 -0.3665514 9.774704 4288247861
-5.913476 -0.2144784 9.8047266 4285290030
-5.9577308 -0.18145373 9.6775322 4287535259
-5.8007841 -0.18415186 9.8214331 4286216311
-5.6712799 -0.27739957 9.8630953 4284439125
-5.5975528 -0.30925706 9.8962259 4288839480
-5.6703954 -0.18490419 9.861557 4285953658
-5.5904403 -0.18531847 9.8836517 4287658068
-5.4278383 -0.52427977 9.8687963 4286939516
-5.0150118 -0.76662606 10.221681 4288193968
-4.8773041 -0.41441146 10.200897 4288259500
-5.4814277 -0.28352213 10.080787 4286540871
-5.4727774 -0.18871646 10.064878 4286212423
-5.1987085 -0.15753663 10.082344 4288255112
-4.8791304 -0.3826769 10.204717 4289769903
-5.1740088 -0.094646499 10.095627 4289307543
-4.8510232 -0.41489011 10.21268 4285428073
-4.5697885 -0.45373783 10.371151 4289571233
-4.5590944 -0.65598482 10.495757 4287726441
-4.2562609 -0.75303084 10.476951 4289111976
-4.5428495 -0.5882827 10.458359 4288121716
-4.2509451 -0.4577941 10.463865 4289046439
-4.847002 -0.38265806 10.204215 4289440939
-4.6382055 -0.38922006 10.379201 4288123012
-4.8740897 -0.1613937 10.329197 4288322457
-4.6333456 -0.19440611 10.368325 4288057220
-4.3573503 -0.22593668 10.328534 4289440164
-4.3272142 -0.22774811 10.411343 4289374371
-4.2810469 -0.031478286 10.073051 4284113755
-4.2242603 -0.18914598 10.087786 4284967261
-3.9983857 -0.76002371 10.574243 4289242009
-3.9859586 -0.59295255 10.541378 4289307803
-4.2059932 -0.23001525 10.514983 4286808700
-3.9428852 -0.03129274 10.013677 4284438596
-4.0153432 -0.065825298 10.532047 4287531390
-4.0442801 -0.90401554 15.225525 4291283403
-4.0405149 -0.8556385 15.211351 4291283660
-3.8398767 -0.044136513 14.123684 4290823108
-4.2584925 -0.10139269 16.22283 4290621072
-5.1344557 -0.081499301 26.079777 4292795349
-4.9964662 -0.081909284 26.21097 4292795350
-4.5849543 -0.081874177 26.199738 4292597714
-2.1788585 -0.066026017 21.128326 4291545798
-1.140017 -0.34696168 15.861106 4289374887
-1.6505953 -0.051581103 16.505953 4289308834
-1.0826426 -0.14763308 15.747528 4286873723
-0.93560374 -0.046780188 14.96966 4291084989
0.43645859 -0.80017406 11.638895 4288650131
0.65608692 -0.83833331 11.663768 4289374114
0.6583153 -0.6583153 11.703382 4289440163
0.76419914 -0.57973725 8.4325418 4288781459
0.92831266 -0.63655728 8.4874306 4288913562
0.78601664 -0.4607684 8.6732874 4288978581
0.94784003 -0.48746061 8.665966 4288913562
0.64735186 -0.35963994 11.508478 4289703335
0.98824567 -0.33882707 9.0353889 4289045404
0.99973488 -0.17138311 9.1404333 4288913563
0.41471171 -0.18247315 2.654155 4288913305
0.41457313 -0.1326634 2.6532681 4288979099
0.44307655 -0.1558973 2.625639 4292335575
0.44298404 -0.13945796 2.6250908 4292335574
0.42204523 -0.091029368 2.6481271 4287400840
0.42197338 -0.049643926 2.647676 4287400584
0.4434486 -0.098544128 2.6278434 4292269781
0.44426817 -0.049363133 2.6327004 4292203988
0.52581346 -0.091141 2.2434709 4292269004
0.54083741 -0.16024813 2.1366417 4292795870
0.54185414 -0.15859146 2.1145527 4291083699
0.54224038 -0.12049787 2.1421843 4292664283
0.55728078 -0.08523117 2.0979981 4292204247
0.52568448 -0.049063884 2.2429204 4292400592
0.52586687 -0.0070115579 2.2436986 4292400593
0.5347563 -0.047990948 2.193872 4292466647
0.54344666 -0.053019188 2.1207676 4291282370
0.53437388 -0.0068509476 2.1923032 4292269525
0.55507731 -0.0065303212 2.0897028 4292006867
0.66509044 -0.10602891 1.5422387 4289766032
0.66480398 -0.086713567 1.5415745 4289766032
0.66354096 -0.033657875 1.5386457 4290227615
0.66326243 -0.024031246 1.5379997 4290228132
-7.6368179 0 9.2567492 4282538867
-7.6347528 0.17351711 9.2542458 4282209646
-7.6917105 0 9.4667206 4285288220
-7.6283598 0.17603907 9.388751 4285355566
-7.6314993 0.34688634 9.2503023 4281880424
-7.5795889 0.63163245 9.1873808 4281223007
-7.5978994 0.3506723 9.3512611 4284829994
-7.3928957 0.4750455 9.5009098 4284899409
-7.5902328 0.52547771 9.3418255 4281213975
-7.3987327 0.53058642 9.4326477 4282267182
-7.2137094 0.14843023 9.4995346 4281478694
-7.1589823 0.030206675 9.6661358 4282075212
-7.2555451 0.32844031 9.5546274 4283843110
-7.1860595 0.33353022 9.7026968 4281481283
-7.1560082 0 9.7030621 4281214498
-6.9744377 0.33068454 9.6199141 4282265366
-6.7835836 0.32871991 9.5627613 4282403928
-7.2533875 0.35819197 9.5517855 4283514914
-7.2008376 0.36459941 9.7226505 4282732374
-7.1782594 0.52100265 9.26227 4282727730
-7.1244383 0.4547514 9.7013626 4283254849
-6.6436934 0.44095311 9.4069996 4281545263
-6.6583724 0.060256761 9.6410818 4287327278
-6.5375395 0 9.6852436 4282006330
-6.6221366 0.17978652 9.5886145 4287327805
-6.1351314 0.16963497 9.0471983 4285629320
-6.1133552 0.030414704 9.7327051 4286407992
-6.3681378 0.33356911 9.7038288 4284172066
-6.0867014 0.18169257 9.6902704 4286935613
-6.5215096 0.43866658 9.3582201 4283781192
-5.9454584 0.35617954 8.7674961 4284905342
-5.8289728 0.43992248 8.7984495 4280952096
-6.0895286 0.39385012 9.6947718 4286606886
-5.9279685 0 9.6291876 4287074965
-5.9512978 0.1812578 9.6670828 4287073675
-5.5854535 0 9.874835 4288181810
-5.5811443 0.18707746 9.9774647 4283980116
-6.0462828 0.39300838 9.6740522 4288188542
-5.5888605 0.3746722 9.9912586 4284045917
-5.5232038 0 10.157617 4285620288
-5.5099797 0.1899993 10.133296 4285356861
-5.2320433 0.22196546 10.146993 4287531133
-5.2069883 0.15874965 10.159978 4288913044
-5.2185717 0.25456446 10.182579 4288781458
-5.5189257 0.38061553 10.149748 4284896827
-3.8252461 0.37093297 7.4186592 4284439896
-3.7606533 0.45583677 7.2933884 4283974200
-3.8828311 0.36401543 7.7656627 4290617662
-3.6831322 0.37297541 7.4595084 4287268482
-3.6778579 0.41118908 7.3100281 4283252021
-3.5664051 0.41957706 7.4591479 4283251502
-4.906672 0 10.329836 4289046439
-4.9077291 0.22601385 10.332062 4288914598
-4.2760959 0 10.061402 4284442718
-4.0248632 0.061920971 9.9073553 4286874492
-4.0396419 0.34446558 10.020817 4288518038
-4.1914635 0.41363129 8.8241339 4286216829
-3.4871418 0.39570406 7.9140811 4285227353
-3.5469754 0.42003655 7.4673166 4283252018
-3.4343719 0.42341575 7.527391 4283514933
-3.4964192 0.39959076 7.9918151 4285096024
-3.7615097 0.40822583 9.3308764 4284704368
-3.2835221 0.43458381 7.725934 4283646520
-3.2480233 0.43630162 7.7564731 4283843896
-3.9532948 0.061770231 9.8832369 4287268488
-4.0129499 0 10.52577 4287399548
-3.9394126 0.18465997 9.8485317 4287794840
-4.0077863 0.19710425 10.512226 4287070583
-3.7795253 0.38385803 9.4488134 4283452750
-3.278729 0.41328517 8.8167496 4286939781
-3.1198394 0.41050521 8.7574444 4286610552
-2.8854375 0.5152567 8.2441072 4284237615
-3.2422016 0.13944952 11.155962 4290426282
-3.9329922 0.22603402 14.466178 4290560192
-4.2902789 0.25537375 16.34392 4290226053
-3.7932396 0.43600455 13.952146 4290297019
-4.218154 0.40172896 16.069159 4290028416
-3.4453182 0.57990509 10.91586 4286610030
-3.4444892 0.61386937 10.913234 4286544493
-3.6893983 0.50888252 13.5702 4290033847
-4.3206873 0.89575213 16.861217 4286740064
-3.5254257 0.72939843 12.967083 4286019440
-3.9152551 0.84909141 15.094958 4283979079
-5.3487315 0 27.168161 4285758071
-4.8657846 0 27.316687 4287664783
-5.3057823 0.5895313 26.950005 4288256901
-4.7878308 0.50398219 26.879049 4287204214
-4.9149089 1.0711981 20.163729 4287728770
-4.4534841 1.1875957 19.001532 4285821804
-4.5071707 1.1572465 19.490467 4287071622
-4.7686968 0 27.249697 4287796111
-4.6933994 0.50286424 26.819426 4287335799
-3.2736688 0.38972247 24.942238 4287531909
-2.1981342 0.19983038 21.315241 4291611592
-3.2922692 0.47032419 25.083956 4287466117
-2.171735 0.59229136 21.059248 4291677384
-3.4120984 0.95221347 25.392361 4290690488
-2.1591587 0.78514862 20.937296 4290427316
-3.2437923 1.6218961 24.714607 4286216051
-2.2691755 1.306495 22.004126 4290164143
-1.6604255 0.20755319 16.604256 4288190353
-1.0949047 0 15.925886 4286939771
-1.659755 0.31120405 16.597549 4288256146
-1.171984 0.31963199 17.047039 4289242525
-0.94112092 0.047056042 15.057934 4291084988
-0.9678117 0.53229642 15.484987 4291150781
-1.6472151 0.61770564 16.472151 4288190352
-1.1233791 0.64193094 17.118158 4291084989
-1.7465229 1.2553133 17.465229 4287532165
-1.1226494 1.1226494 16.329445 4287794822
-0.90075845 0.58549297 14.412135 4288979354
1.0136262 0 9.2674398 4288716440
0.42283377 0.024872575 2.6530747 4287335047
0.4226757 0.049726553 2.6520829 4287466118
0.44452071 0 2.6341968 4291875279
0.44462162 0.049402401 2.6347947 4291677643
0.42185694 0.10753216 2.6469455 4287268741
0.4210957 0.1568788 2.6421692 4287795341
0.44435889 0.098746419 2.6332378 4291282884
0.44405121 0.14801708 2.6314147 4291085248
0.5257622 0.021030489 2.243252 4292400593
0.52404857 0.07686045 2.2359405 4292137676
0.53390503 0.034224682 2.1903796 4292006353
0.55402428 0.032589663 2.0857384 4291809488
0.53510439 0.068603128 2.1953001 4290953665
0.55314988 0.071584098 2.0824466 4290821822
0.51293325 0.11626486 2.1885152 4292584078
0.50894076 0.13571753 2.1714804 4292444765
0.52442753 0.10359062 2.0718124 4292967533
0.5528478 0.089998484 2.0571082 4291262581
0.5157069 0.11900928 2.1157205 4290608503
0.53634626 0.11493134 2.0432239 4289542721
0.57268065 0.024112869 1.9290296 4292005839
0.582403 0.035657324 1.901724 4291086285
0.56084448 0.10834496 2.0394344 4289096046
0.57382882 0.072483644 1.9328971 4291743438
0.56062102 0.11467248 2.0386219 4288360244
0.66821206 0 1.53833 4289766546
0.66880381 0.038492307 1.5396923 4289634959
0.6690709 0.067388438 1.5403072 4289503372
0.6688723 0.091428585 1.5398499 4289503115
-7.6145658 0.69223326 9.2297773 4281222491
-7.701684 0.90095168 9.3001461 4283323745
-7.6586509 0.70695239 9.4260321 4280425485
-7.7644563 1.0840938 9.375947 4281222493
-7.5747771 1.3333877 9.0783844 4283716436
-7.8218622 1.2692078 9.4452677 4281223005
-5.5025053 0.5614801 7.1869454 4285090094
-5.4432459 0.75538921 7.1095457 4284103974
-5.238832 0.79768223 6.8988733 4285031518
-5.0975308 0.79581702 6.8827419 4285031259
-4.992012 0.92678702 6.7402692 4287596925
-5.0112576 0.79920918 6.9120793 4284701519
-4.9830589 0.80162251 6.9329515 4284701263
-4.9630566 0.92531556 6.729568 4288518287
-4.8729777 0.93222177 6.7797952 4289768870
-4.8849497 0.80688894 6.9784994 4284240707
-4.7699132 0.8095724 7.0017076 4283250216
-4.7009573 0.93172121 6.7761545 4289899941
-4.6807656 0.94474173 6.8708487 4288057475
-4.6475368 0.81112671 7.0151501 4282592287
-4.4217997 0.90195906 7.0396805 4285160017
-4.5672059 0.93075764 6.926568 4284568646
-4.4069505 0.94278038 7.0160403 4289439389
-3.9375446 0.77861053 7.1187248 4284636511
-4.2972975 0.90353441 7.0519757 4286542441
-4.1712637 0.90487731 7.0624571 4286411114
-4.3873577 0.94328195 7.0197725 4290229420
-4.2527733 1.0083895 7.0148835 4289307024
-4.1139288 0.90683383 7.0777273 4286148198
-4.0255966 0.90686512 7.0779719 4284304706
-4.1414824 1.0133413 7.0493312 4289241232
-4.0245538 0.92874306 7.076138 4286147683
-3.7478633 0.65871537 7.2685838 4284435261
-3.8263936 0.78317994 7.1605024 4284175953
-3.7869458 0.7664057 7.2132301 4282202162
-3.7143083 0.75197655 7.2918935 4282856742
-3.6142368 0.7548722 7.319973 4282528294
-3.9204566 0.80191153 7.1281028 4282989109
-3.8067997 0.80614579 7.1657405 4281211917
-3.8536282 1.0023888 7.1280985 4284503371
-3.7063885 0.81858891 7.2763457 4280030733
-3.5319037 0.83103621 7.3869886 4280030733
-3.428756 0.81637049 7.4639587 4280953390
-3.4117501 0.81788522 7.477808 4279635213
-3.259129 0.83262426 7.6125641 4279635200
-3.1395438 0.82111138 7.7281075 4281873717
-3.4793034 0.83503276 7.4225135 4280423949
-3.0493989 0.84292328 7.9333954 4280028429
-3.0282857 0.85092336 8.0086899 4280686093
-2.8917851 0.67130727 8.2622433 4284039979
-2.8981888 0.77630055 8.2805395 4282068514
-3.4928238 0.93372518 11.066373 4285162069
-3.482861 1.0689969 11.034807 4285030227
-3.7318187 1.2439396 13.72623 4284573023
-3.1214294 1.0906199 12.034427 4285954938
-3.2917762 1.2486049 12.107683 4285888890
-2.827528 1.117048 11.170481 4285692275
-3.4735687 1.3756708 11.005366 4284833107
-3.4497313 1.5028533 10.929842 4285491552
-3.2806308 1.3575025 12.066689 4285954167
-2.9088836 1.2616844 11.214972 4285888357
-2.8465559 1.5814199 11.245653 4286612086
-2.8847129 0.97359067 11.538852 4282598204
-3.410532 1.3930342 15.371411 4285555273
-2.7957292 1.1182916 11.182917 4285560949
-2.6523864 1.2893546 11.788384 4286346338
-2.8149786 1.3160938 11.698612 4282402369
-2.640981 1.3204905 11.737693 4285161806
-2.7555315 1.6678216 11.602238 4288322454
-2.725569 1.6574405 11.786244 4286019699
-2.9665322 1.9316953 22.076519 4289572264
-2.2236006 1.617164 21.562187 4289703591
-2.7393162 1.9111507 20.385609 4289440935
-2.2735877 1.8946565 20.209669 4288848280
-1.9881382 1.7893244 15.905106 4289703590
-1.9065239 1.8061804 16.054937 4289309089
-1.7301811 1.2976358 17.301811 4287400579
-1.0563883 1.2073009 16.097345 4289768869
-1.6597563 1.8153584 16.597563 4288256146
-1.1097131 1.5132451 16.141281 4287268477
-1.3666422 1.8221896 16.197241 4288716955
-1.274814 1.8357322 16.317619 4286413942
0.46121842 1.4546119 11.353068 4289308578
0.28618801 1.6813545 11.44752 4288387994
0.55357254 1.5869081 11.809548 4287268475
0.58958447 1.421939 11.098061 4289900458
0.73134768 1.4975215 11.144346 4288715924
0.89781857 1.4848537 11.050075 4289439648
1.0330168 1.4806573 11.018846 4289703077
1.162184 1.4698209 10.938202 4289176215
0.41820383 0.22140202 2.6240239 4287400065
0.41735902 0.25368881 2.6187232 4287268481
0.44428101 0.20568565 2.6327763 4290493110
0.44404036 0.24668908 2.6313503 4288191122
0.41694814 0.33519357 2.6161451 4287136638
0.41814175 0.36894858 2.6236343 4287070845
0.44181427 0.33545157 2.6181586 4289769385
0.44103414 0.38386303 2.6135356 4286940288
0.50880086 0.18316831 2.1708837 4292050006
0.50830716 0.20332286 2.1687772 4292050008
0.51013649 0.19465734 2.147943 4290403914
0.53648078 0.15328023 2.0437365 4289013549
0.52270186 0.21295258 2.0649948 4291770166
0.53225297 0.21803133 2.0520597 4291518041
0.5335657 0.25611153 2.276547 4290755258
0.53533524 0.24395022 2.1684465 4287791227
0.56433624 0.24000509 2.0757196 4287530883
0.56113213 0.16578905 2.0404806 4287902262
0.56482613 0.21577628 2.0308356 4289105293
0.56392539 0.22810467 2.027597 4288912544
0.57784063 0.2740275 1.9062783 4288648832
0.58847046 0.2706964 1.8831054 4290691011
0.66784775 0.12492117 1.5374913 4289437065
0.66754037 0.15848081 1.5367836 4289239942
0.66585428 0.18203209 1.5329019 4290097323
0.66957617 0.21043822 1.5304598 4289174153
-7.5702257 1.4179152 7.6903877 4287465857
-7.5958571 1.4410146 7.8156729 4283579432
-7.4222212 1.3245041 7.9970059 4285885798
-7.5503221 1.4311068 7.8957615 4284897614
-7.4734716 1.4152422 7.9452195 4285490780
-7.5156031 1.4270132 7.6107368 4283185444
-7.5791178 1.4482391 7.7239418 4283316516
-4.6053395 0.99416846 4.6784401 4283910986
-4.6299615 0.99745148 4.7639475 4284108882
-7.6477995 1.5144159 8.0768843 4283645986
-7.6737494 1.524586 8.1311255 4283912001
-5.1200852 1.154529 5.3543372 4285685546
-6.9771295 1.5479062 7.3929849 4286150768
-7.3775282 1.3345017 8.0573692 4287465610
-7.3763824 1.3717483 8.2822542 4287334530
-7.3884249 1.39781 7.9874859 4285490780
-7.3661346 1.3908087 8.2418289 4285227610
-7.439105 1.4031051 8.4715786 4284964437
-7.4645414 1.4063629 8.654541 4284372046
-7.3894949 1.4050448 8.3261919 4283053860
-7.5187263 1.4875177 8.6546488 4282860345
-7.1428518 1.5900184 7.8277826 4286545014
-7.1798425 1.5871232 8.0615778 4285887857
-7.0828924 1.5792936 7.6571813 4286152572
-6.936985 1.5787621 7.654604 4287005305
-7.3079581 1.6181908 8.3519526 4285624171
-7.2913384 1.6173515 8.4844666 4285690740
-7.4698524 1.4057655 8.8204899 4282924856
-7.6013861 1.3716787 9.1445246 4280423949
-7.6296334 1.5147066 8.9760389 4282992971
-7.4440193 1.6257054 9.1267672 4284637018
-7.3283072 1.6316935 9.1603842 4284703584
-7.1018515 1.612771 9.0541534 4285427308
-7.3130789 1.6131792 8.6036224 4285163877
-6.9964228 1.5900961 8.4805126 4286611064
-6.899653 1.5922276 8.4918804 4286808445
-6.1151185 1.5471985 7.8587866 4288189840
-5.536315 1.5341595 7.114943 4288847771
-5.1510348 1.0516697 6.8680468 4285683238
-5.686306 1.3527906 7.3371692 4284706941
-5.2399054 1.2175714 6.9575505 4285025570
-4.9031558 1.0100923 6.7339482 4288517254
-4.8307729 1.0081613 6.7210751 4288648840
-4.9780245 1.3053486 7.0798569 4290097317
-5.461937 1.431556 7.0476604 4285431696
-5.1760774 1.3540792 6.9887962 4283840804
-5.24822 1.5334306 6.9112363 4284703588
-5.1984382 1.5354036 7.0189881 4282333754
-5.0802727 1.3576591 7.0072727 4283578143
-4.9693804 1.3693404 7.0675635 4286015065
-5.0853648 1.5410197 7.0446615 4282926148
-5.0654302 1.5416527 7.047555 4282925380
-4.726366 1.0127928 6.7519517 4288583047
-4.6381741 1.0212493 6.8083286 4287661685
-4.9491591 1.3035733 7.0702276 4290689455
-4.6885481 1.2987058 7.0438285 4290821299
-4.6650248 1.2982851 7.0415463 4290492076
-4.4693308 1.2926006 7.0107155 4286608994
-4.9195337 1.3677627 7.0594201 4286739559
-4.7851462 1.3609132 7.0240679 4286871148
-4.8386106 1.5465878 7.070116 4285163882
-4.7912855 1.5527315 7.0982013 4287332981
-4.6604681 1.362967 7.0346684 4285950305
-4.527133 1.3405588 7.0324392 4284173884
-4.6430979 1.5402583 7.1432271 4282860355
-4.5416741 1.5361545 7.1241946 4283123015
-4.2538538 1.2587935 6.9450674 4290163371
-4.1657395 1.2584004 6.9428988 4290360494
-4.0906863 1.2620203 6.9628706 4290163373
-4.0028386 1.2976235 7.0379581 4287795854
-4.2634048 1.3268759 6.9606609 4288583054
-4.2119379 1.3243723 6.9475269 4289043862
-4.3293242 1.5319148 7.1045322 4284835174
-4.2981339 1.5366385 7.1264396 4285361263
-4.0727367 1.3285397 6.969389 4289044376
-3.9982808 1.3181145 7.0299444 4287003762
-4.110671 1.5109494 7.1103497 4282662717
-4.0445623 1.5111554 7.1113191 4282663487
-3.8494163 1.0680461 7.1203074 4284899928
-3.8370674 1.1976974 7.097466 4284504661
-3.8941331 1.3275454 7.0802422 4283184675
-3.9319825 1.5191752 7.1490593 4282795074
-3.7952504 1.5270829 7.1862726 4284176986
-3.5718093 1.5174354 7.4704514 4280028429
-3.6776862 1.5400312 7.3553729 4282006071
-3.6170025 1.5435616 7.3722343 4282268473
-3.4772847 1.5375749 7.5695992 4280028416
-3.3842309 1.5601063 7.6805234 4281610288
-3.4658818 1.5561101 7.5447769 4281676334
-3.4532177 1.5610436 7.5686965 4282071350
-3.3413773 1.573837 7.7481213 4283650642
-3.2421424 1.5839474 7.9197373 4283847506
-3.3395467 1.5743577 7.6332498 4285953653
-3.2051926 1.5786769 7.6541915 4287794825
-3.3424511 1.639693 10.090419 4283582003
-3.0093856 1.5712721 8.5221539 4282991943
-3.1172564 1.6153055 9.0683823 4285095241
-3.1285074 1.5767677 8.0089788 4282268729
-3.0814567 1.5789282 8.1493073 4282597694
-3.051518 1.573439 7.6287951 4288452753
-3.0090957 1.5823693 8.3009539 4285293913
-3.4084525 1.6714528 10.487547 4285624172
-2.8389375 1.6823334 11.215556 4288191384
-2.7879338 1.6727604 11.151735 4288519837
0.068359286 1.6748025 10.937486 4290032303
0.20967834 1.6774267 11.182845 4289374887
0.52604496 1.6833439 11.222292 4289506216
0.5923788 1.6725991 11.15066 4289505960
0.83325022 1.6665004 11.110003 4289243300
0.96580279 1.6556618 11.037745 4289177251
1.2136838 1.6644808 11.096539 4288980130
0.41900402 0.42721978 2.6290448 4287005566
0.41938725 0.46872693 2.6314495 4286939772
0.44720578 0.43094373 2.6019244 4289703592
0.44694629 0.47945148 2.6004148 4289440162
0.41964221 0.52660984 2.6330492 4286807930
0.42017341 0.58494729 2.6363821 4286676344
0.44720489 0.48785987 2.6019194 4289309089
0.44879919 0.55487901 2.6111953 4289242527
0.53371632 0.41433239 2.2472265 4290097576
0.53356242 0.45633632 2.2465787 4290097317
0.53278458 0.49773294 2.2433033 4289834145
0.57773691 0.2858904 1.9059361 4289505441
0.58848178 0.28247124 1.8831416 4290822339
0.66743505 0.24790445 1.5255659 4288779652
0.66944778 0.27256086 1.5301663 4288713602
0.66920972 0.30592445 1.5296222 4288516221
0.66589659 0.31618112 1.5329994 4290163375
2.9342041 0.68565595 3.2266161 4282070310
2.9704359 0.65672904 3.2331276 4282859566
3.0333567 0.65942538 3.2464018 4281872934
2.9449441 0.70357025 3.2163212 4281211904
2.9791713 0.68293297 3.1672254 4279045376
3.2053437 0.52061313 3.2665923 4281675302
3.0887618 0.66042602 3.2513282 4282070310
3.2101154 0.65429103 3.2714553 4282071082
3.0207355 0.67892754 3.1486495 4279637517
3.0406985 0.68440157 3.1286929 4279047702
-4.6050067 1.1075332 4.6632981 4286474811
-4.5590658 1.0889488 4.6461816 4285617192
-6.706811 1.567826 6.9681153 4287926409
-5.2017908 1.5349548 6.822021 4287927962
-5.1556082 1.5339 6.8173332 4287796378
-5.0828581 1.5507025 6.8920112 4288848029
-4.9648356 1.5542095 6.9075975 4289308580
-4.7901936 1.5535764 6.9047837 4289572010
-4.705575 1.5541347 6.9072657 4289966770
0.42038351 0.61821103 2.6377003 4286676088
0.42041788 0.64299208 2.6379161 4286610038
0.44962701 0.58860266 2.6160119 4289111198
0.45081267 0.63933432 2.62291 4289045918
0.41874251 0.73074675 2.627404 4287268740
0.41799694 0.76222968 2.6227257 4287860878
0.45108557 0.69713223 2.6244979 4288913561
0.45231932 0.78127885 2.6316762 4291282112
0.53987306 0.50570387 2.1868277 4289439907
0.54024041 0.53340185 2.1883154 4289374115
0.54078794 0.58186042 2.1905334 4289110944
0.54130948 0.6440897 2.1926458 4288848287
0.668109 0.36745995 1.5271063 4288845449
0.667952 0.37691578 1.5267475 4288977808
0.67470121 0.38961619 1.5204535 4287005310
1.3449786 0.74422151 2.8692877 4285095759
0.6703738 0.39937162 1.5214157 4288385151
0.6742807 0.42261252 1.5195057 4286939516
0.66612262 0.44249573 1.522566 4289702312
0.67493594 0.44678861 1.5209824 4286807930
0.71027017 0.42425531 1.5254124 4286149480
1.3238231 0.83842123 2.8241558 4284436792
2.6150231 0.85208625 3.1341102 4281214492
2.6370821 0.86268866 3.1370494 4281670656
2.6670985 0.84426147 3.0700417 4280423949
2.6923289 0.91064072 3.1674459 4280686080
2.8444412 0.82838106 3.1937585 4282070314
2.8786674 0.82961595 3.1985195 4281871906
2.9483724 0.72959721 3.1982343 4281210368
2.9537034 0.78097922 3.2040172 4280948224
2.67273 0.84652299 3.043678 4279637517
2.7116635 0.83507979 3.0025339 4281479730
2.6864469 0.85133886 3.0269825 4279635213
2.6850095 0.84545279 2.9730208 4280689180
2.7533247 0.82785779 2.9765673 4282991936
2.8430014 0.82569015 3.0025096 4281215526
2.6970577 0.83827466 2.9157381 4281675302
2.7108543 0.83757293 2.8819714 4281677109
3.0497689 0.70154434 3.1179748 4279045389
2.8950367 0.82447642 2.9980962 4281214498
2.9202948 0.82898694 3.0144978 4280952354
2.7277067 0.84683704 2.8525038 4280689180
2.7466378 0.84171152 2.8352389 4282531896
0.41631165 0.80813438 2.6121516 4288584859
0.41568571 0.83137143 2.6082239 4288519066
0.45282054 0.83154315 2.6345923 4288650642
0.45167279 0.86228448 2.6279144 4288716182
0.41540831 0.87968826 2.6064837 4288650907
0.4151516 0.92798585 2.6048727 4288585116
0.44851312 0.92149055 2.6095309 4287400834
0.44823638 0.94537127 2.6079206 4285624425
0.5413447 0.65783656 2.1927886 4288782494
0.53303748 0.7061016 2.2152207 4287925626
0.53310645 0.74773371 2.2155073 4287924319
0.53350639 0.8175813 2.2171695 4288517767
0.57780027 0.60162705 1.9061452 4290229941
0.57749426 0.63702977 1.9051359 4290164148
0.58414346 0.58998489 1.869259 4289309618
0.58492601 0.62002158 1.8717632 4289046960
0.57743293 0.64886791 1.9049333 4290164404
0.57738715 0.69048357 1.9047823 4289966767
0.5853278 0.66142046 1.873049 4288849065
0.58579504 0.67952228 1.8745443 4288585638
0.66537535 0.46576276 1.520858 4289373603
0.67536724 0.46609849 1.5219543 4286676344
0.6652714 0.48469773 1.5206203 4289439397
0.67439044 0.49391976 1.5197531 4286610551
0.72697443 0.4846496 1.5508788 4284503357
0.71387917 0.50923383 1.5229422 4285029451
0.66608584 0.5185954 1.5224819 4289439397
0.67388171 0.51252973 1.5186067 4286544503
0.66774213 0.54373288 1.5262678 4289110684
0.67321104 0.54046524 1.5170953 4286347381
0.71249592 0.51774704 1.5199913 4285227345
0.71069497 0.54012817 1.5161493 4285622875
2.3385115 1.0297148 3.0795212 4281215526
2.3583922 1.0299917 3.080349 4280423936
2.3988619 1.0267129 3.0705433 4280423936
2.3571482 1.0390694 3.0787241 4280686080
2.35571 1.0069506 2.9561851 4279045389
2.3855095 1.1446598 3.0780768 4280028416
2.5179694 1.0110028 3.052084 4280689174
2.7016692 0.98332816 3.1784344 4280028416
2.6883953 1.0081482 3.162818 4280028416
2.5654285 0.99456823 2.9744098 4279045376
2.3603048 1.0063314 2.9275098 4279635213
2.3887556 1.0134114 2.8954613 4280690204
2.3944106 1.0223327 2.8697057 4279637517
2.3997226 1.0118233 2.8653402 4281674278
2.5586088 0.99758035 2.9557936 4280689180
2.4109802 1.0179694 2.8574581 4280425494
2.4246097 1.0176281 2.8316607 4280952354
2.5937605 0.98765975 2.9537487 4279042048
2.6329701 0.98506224 2.9459805 4278190080
2.7157011 0.86613721 2.8871241 4278190080
2.5743794 0.98944122 2.9316776 4279637517
2.5990124 0.98144519 2.9079859 4279045389
2.4259048 1.0100743 2.7625961 4281215522
2.4340236 1.0092293 2.7138939 4281214498
2.6423306 0.98862714 2.8760061 4279637526
2.6545873 0.99104583 2.8315597 4280032278
2.5965142 0.99664181 2.797591 4282202936
2.6431918 0.99446821 2.7914898 4281214498
2.739675 0.86002743 2.8372037 4279637526
2.7623901 0.8533498 2.8151746 4280689180
2.6702514 0.99256057 2.810791 4280032278
2.7315664 0.9957 2.8196814 4278190080
2.6819191 0.99589175 2.7954857 4280425494
2.7122827 0.99652559 2.7729406 4280032278
0.41489425 1.0168977 2.6032581 4288782493
0.41509968 1.0336796 2.604547 4288782493
0.4520587 0.98484218 2.5831926 4288914075
0.45192441 1.0410402 2.5824251 4289111456
0.41855034 1.1161343 2.6261983 4288914080
0.42226774 1.1840056 2.649523 4289045923
0.45192605 1.0813944 2.5824344 4289243297
0.45180827 1.1295207 2.5817616 4289374628
0.53457987 0.86782455 2.2216308 4288846990
0.53470665 0.88886297 2.2221575 4288913040
0.53441381 0.92307842 2.2209406 4289044626
0.53372538 0.95654678 2.2180796 4288979090
0.57995105 0.71014416 1.8937176 4287662455
0.58633482 0.70360172 1.8762714 4288388771
0.66833061 0.57285482 1.5276128 4288847253
0.67268276 0.58267587 1.5159048 4287595635
0.67037445 0.59905803 1.5214171 4288124311
0.67209303 0.60109729 1.5145758 4287332722
0.90155065 0.71646416 1.910571 4283910965
0.90160847 0.75830644 1.9106934 4283976504
0.66899925 0.65002048 1.5182961 4288320139
0.67158037 0.63374484 1.5134206 4286937967
0.6692304 0.67872304 1.5188208 4288254345
0.67145038 0.66672182 1.5131276 4286674793
0.71334565 0.63249981 1.5218041 4285557085
0.90282166 0.8250953 1.9132644 4283976507
2.0675819 1.2178907 3.0211244 4281477666
2.1223245 1.1790693 3.0184171 4280952348
2.144213 1.180734 3.0226791 4280689174
2.0830886 1.2309161 3.0299473 4280423949
2.1116846 1.1959984 2.989996 4279637517
2.1037498 1.2793074 3.0324323 4280028416
2.1012599 1.2280091 2.9108365 4279045389
2.081048 1.3158196 2.9862573 4280028416
2.0884094 1.2640373 2.9311008 4278190080
2.2590332 1.1819414 3.0501714 4280425494
2.3288515 1.1788013 3.0668004 4280689180
2.1501622 1.1884862 2.9031725 4280032278
2.1989689 1.1854523 2.8957615 4280690214
2.3676486 1.1790314 3.0673988 4280032278
2.3466527 1.1733264 3.0037155 4279042048
2.2436054 1.1803707 2.8833482 4281677109
2.2899814 1.1766703 2.896419 4280032284
2.1168952 1.1980726 2.8825805 4279637532
2.1179221 1.1924435 2.8476262 4281476642
2.1176734 1.2330755 2.8593056 4279042048
2.1257586 1.2325827 2.8581626 4279045376
2.1270063 1.1845524 2.7668376 4280952354
2.1299367 1.1852068 2.7483056 4280427036
2.1328826 1.1811581 2.7192128 4281477670
2.3497214 1.1748607 2.8919647 4280030742
2.3879845 1.1759015 2.8945267 4279045389
2.4018662 1.1740465 2.8678999 4279045389
2.3185079 1.1770886 2.8535483 4281676334
2.3782835 1.1757807 2.8503773 4279637517
2.1385419 1.177027 2.6524551 4281674278
2.1440206 1.1702096 2.6186509 4282070322
2.3947034 1.1750962 2.8487179 4279635213
2.3970237 1.1682246 2.769125 4279045389
2.4348807 1.0337565 2.7339013 4279045389
2.439822 1.0095814 2.6922174 4281873702
2.4446752 1.0076026 2.6428921 4281214498
2.4475646 1.0035015 2.6107357 4281214502
2.4618382 1.0318596 2.5999613 4279045389
2.4162738 1.1694422 2.7516286 4279045389
2.4346619 1.1662542 2.7240973 4278190080
2.3854022 1.1673245 2.7068396 4280425494
2.4308281 1.1647718 2.7009201 4279045376
2.4235859 1.1623319 2.6379166 4280030733
2.4498439 1.1638792 2.604485 4279635213
2.4524426 1.0018148 2.564646 4281675306
2.4676979 0.99503946 2.5473011 4283518797
2.4545515 1.0008851 2.5419304 4281873706
2.4578819 1.000484 2.5209045 4282200618
0.42259413 1.193207 2.651571 4289111459
0.42252415 1.2592877 2.6511321 4289243045
0.45143515 1.1608332 2.5796294 4289637799
0.45127314 1.2168258 2.5787039 4289440936
0.42245984 1.2922301 2.6507285 4289309095
0.42292705 1.3434153 2.6536598 4289374889
0.44469398 1.3011416 2.6352236 4289046440
0.45764798 1.2309153 2.5249543 4289966505
0.44519323 1.3355796 2.6381822 4290362300
0.53370994 1.0189009 2.2180154 4289176212
0.53529418 1.0637257 2.1960788 4287069541
0.53518236 1.0978099 2.1956198 4287596146
0.53517377 1.1115147 2.1955845 4287859319
0.58209789 0.92066497 1.9007277 4289308581
0.5893715 0.90448105 1.8673156 4288190878
0.58217788 0.92673206 1.9009889 4289308837
0.58169556 0.96157837 1.8994141 4289308838
0.58935326 0.91028821 1.867258 4288125342
0.59024692 0.9467327 1.8700893 4288125339
0.66912633 0.69285423 1.5185846 4288188552
0.67142731 0.68561238 1.5130756 4286542945
0.66850954 0.73014516 1.5171847 4288123272
0.67153704 0.70937014 1.5133229 4286542690
0.9009344 0.88303506 1.909265 4284108608
1.067082 1.0881429 2.2464886 4283187761
1.3552411 1.3464975 2.7979169 4282071086
0.66845989 0.73957264 1.5170721 4288056967
0.67129481 0.76111597 1.5127771 4286872171
0.6684081 0.76795828 1.5169545 4288188811
0.67121845 0.76575625 1.512605 4286872171
1.0755666 1.1180233 2.2643509 4283384368
1.3007684 1.3514477 2.7028954 4280690214
1.1162804 1.1897199 2.350064 4283780421
1.2825092 1.349133 2.6649542 4282861378
1.4624197 1.3631197 2.8887305 4282531122
1.5509149 1.3604516 2.9022968 4282728507
1.6128719 1.3577284 2.9159267 4282399530
1.6234808 1.3589811 2.9186172 4282398762
1.5851802 1.3587258 2.8986151 4281869837
1.6134478 1.359647 2.9005802 4280423949
1.4138459 1.3624333 2.7420042 4281677883
1.4221587 1.3621882 2.7415109 4282071867
1.4786716 1.3590103 2.7351151 4282203456
1.55151 1.3543568 2.743001 4281678648
1.67344 1.3551226 2.9103303 4280687629
1.7618415 1.3580862 2.9364026 4281869837
1.7057699 1.3609866 2.9034381 4280425500
1.7696995 1.3613073 2.9041221 4280427036
1.7972319 1.3570935 2.9342561 4280687629
1.8837563 1.3507911 2.9404976 4280951318
1.7234148 1.3559864 2.7994556 4281215526
1.8207442 1.3545634 2.814677 4280952354
1.6240685 1.35627 2.7643719 4281875259
1.6416981 1.3565611 2.7649653 4281875264
1.7018292 1.3545171 2.7784965 4281480501
1.9118351 1.3511527 2.9412849 4281476630
1.9846575 1.3477209 2.9539087 4280030733
1.8700182 1.3559847 2.8360465 4280427046
1.9271567 1.3525457 2.8288538 4280954418
2.0672536 1.3409214 2.9798253 4280952348
2.05685 1.3378626 2.912354 4278190080
1.9983896 1.3500233 2.8421543 4280032290
2.0473542 1.3500021 2.8609316 4280032290
2.1148651 1.2939048 2.855514 4279045389
2.1227217 1.2843359 2.8540795 4279045398
2.1017191 1.344744 2.8497887 4279637526
2.0996325 1.3441161 2.8112233 4280690210
2.1142793 1.3430872 2.7728252 4280689186
2.0936031 1.3440416 2.7570083 4281872938
2.1107092 1.3384985 2.7456379 4280427046
2.1138437 1.3359492 2.7057199 4280952354
2.1355307 1.1782238 2.6182752 4280032278
2.151474 1.172796 2.5882394 4280952358
2.1547968 1.1738818 2.5728917 4281214502
2.1651406 1.1731126 2.5194364 4281478698
2.1663842 1.1731323 2.5026822 4280952354
2.1302013 1.339697 2.6627517 4280952358
2.1371455 1.3419285 2.650723 4281872938
2.1413968 1.3404162 2.6154463 4280952354
2.1788983 1.1738431 2.4550967 4280952354
2.194478 1.1734362 2.438309 4282070318
2.405539 1.166322 2.5918267 4280951324
2.4461954 1.1625483 2.5834408 4280423958
2.2001429 1.1678841 2.4111154 4282202936
2.1876311 1.1727507 2.4056425 4280689180
2.2001708 1.1704612 2.3705542 4281675306
2.2043021 1.1639879 2.3279757 4282070325
2.4608531 1.1622921 2.5650585 4279045376
2.4543498 1.1600945 2.5253758 4280423958
2.4216275 1.1605244 2.4757853 4281674278
2.2052569 1.1640865 2.3137121 4282202165
2.2136579 1.1643264 2.2999041 4282070322
2.2208514 1.1673707 2.2777965 4282200618
0.49623069 1.2624692 2.3352032 4290164922
0.50010991 1.2611468 2.3193502 4289505440
0.51395929 1.2602563 2.2529721 4289901751
0.53486055 1.1520073 2.1942997 4288451974
0.53847611 1.2048403 2.1539044 4287533457
0.52114445 1.2507466 2.2235496 4288650907
0.5316689 1.247377 2.1812057 4288191131
0.5373174 1.2559794 2.1492696 4288782749
0.55207694 1.2553177 2.1031501 4288453531
0.56790364 1.232609 2.0651042 4288453270
0.66904533 0.81614035 1.5184007 4288189587
0.6711275 0.79401004 1.5124 4287860105
0.66929531 0.83543241 1.5189681 4288124050
0.67088479 0.82679462 1.5118531 4287728516
0.71089852 0.80505723 1.5065398 4285029715
0.71150041 0.84343421 1.5078155 4284898641
0.66902208 0.85881555 1.518348 4288124048
0.67084688 0.8598178 1.5117676 4287530623
0.66902071 0.90151727 1.5183449 4287926414
0.67042005 0.90176219 1.5108057 4287266934
0.71194142 0.84867191 1.5087501 4285029713
0.7121768 0.87725085 1.5092489 4285029717
2.1745155 1.3387587 2.4763167 4281675306
2.1806512 1.3372633 2.4313879 4282070318
2.1873305 1.3333727 2.3970745 4281872938
2.1791906 1.328059 2.3479495 4281873714
2.1928215 1.3258921 2.3312387 4281676338
2.2033741 1.3249047 2.3041821 4281872949
2.2252545 1.3279744 2.2970369 4281215516
2.2052331 1.3274219 2.2837365 4282202165
2.2114489 1.3268692 2.2827859 4282070322
0.55968976 1.24954 2.0825665 4287992977
0.57149351 1.2328849 2.0548081 4288519064
0.56912971 1.2584089 2.0235722 4288519321
0.58161438 1.1926033 1.8799658 4288979355
0.58482349 1.1871916 1.871435 4286081874
0.58352858 1.2318937 1.886153 4288979356
0.5836044 1.2379487 1.886398 4289045148
0.58549392 1.2178273 1.8735805 4286147410
0.58616453 1.2368071 1.8757265 4286344278
0.66908079 0.91108876 1.5184813 4287926414
0.67052758 0.90662879 1.511048 4287332470
0.66890699 0.93931615 1.5180868 4287926158
0.67077881 0.94475889 1.5116142 4287333247
0.71699888 0.92455119 1.5094713 4284307017
0.71681768 0.93374932 1.5090898 4284307017
0.66954964 0.96871012 1.5195453 4287794828
0.67051709 0.963278 1.5110244 4287333502
0.67339504 0.98890179 1.5068979 4286543213
0.71645218 0.98512173 1.5083203 4284438089
0.7141493 1.0101454 1.5034722 4284438089
-0.20400032 1.3373356 1.8133364 4288124568
0.29270262 1.3476517 1.9513509 4288386704
0.29605919 1.3473713 1.9334477 4288056190
0.29534671 1.346781 1.890219 4286678929
0.5857895 1.2780862 1.893461 4288979872
0.58726728 1.3169024 1.8982377 4288914336
0.591488 1.2525628 1.8556486 4287664536
0.58888406 1.3073226 1.884429 4286345049
0.67447561 1.0423715 1.5093161 4286411110
0.67532438 1.0672959 1.5112154 4286411368
0.71648568 1.0349238 1.4985322 4282858278
0.94833863 1.3349226 1.9329195 4281673244
0.71613729 1.0484624 1.4978034 4282263319
0.95065421 1.3357294 1.9253757 4280689180
0.67571157 1.0773584 1.5120819 4286411366
0.67588919 1.1154535 1.5124793 4286477676
0.7156055 1.0663925 1.4966912 4282791978
0.8260355 1.2497809 1.7164373 4281673238
0.71355259 1.0913157 1.4923975 4283648829
0.79653007 1.2206565 1.6551274 4281475597
0.95953786 1.3409692 1.9071561 4280427036
0.96866596 1.3385203 1.8786249 4281215526
0.97298145 1.3335569 1.8314945 4280425494
0.93817425 1.344335 1.8305838 4279637526
0.97363979 1.3323491 1.8220159 4280425494
0.98310709 1.3317672 1.8290365 4282203451
0.97523403 1.3324418 1.8143889 4280427030
