# .PCD v0.7 - Point Cloud Data file format
VERSION 0.7
FIELDS x y z rgb
SIZE 4 4 4 4
TYPE F F F U
COUNT 1 1 1 1
WIDTH 1549
HEIGHT 1
VIEWPOINT 0 0 0 1 0 0 0
POINTS 1549
DATA ascii
-2.3179576 -1.8340743 2.4974627 4288125570
-2.3208361 -1.8285376 2.5005641 4287138432
-2.3126099 -1.8360246 2.5001187 4289834154
-2.3175521 -1.825469 2.539783 4288191364
-2.3126612 -1.8262049 2.5519021 4289899949
-2.3218036 -1.819145 2.5531859 4287598980
-2.3292344 -1.8197143 2.5880382 4288520071
-2.3369081 -1.8203285 2.6238968 4288585864
-2.3352573 -1.8172249 2.6312759 4288651400
-0.8890565 -1.8279665 2.6588604 4289376433
-0.86158049 -1.8308586 2.651017 4290759895
-0.79804486 -1.831303 2.6881511 4290494909
-0.77608913 -1.8305581 2.6994405 4292927454
0.49411091 -1.8728397 2.5502498 4288715667
0.46671373 -1.8750429 2.6201472 4289506217
0.48844346 -1.8723665 2.6050317 4287534751
0.43433061 -1.8480341 2.7252116 4287663234
0.47150642 -1.8694814 2.6470535 4282207833
0.47872704 -1.8736387 2.6412528 4285105819
0.45390242 -1.7588718 2.5937281 4282464041
0.48409271 -1.7968864 2.6255875 4284637274
0.55910605 -1.6290004 2.2088141 4285887079
0.56755906 -1.5945706 2.1621296 4285494657
0.55814588 -1.6124216 2.2050209 4286083946
0.5670979 -1.5797727 2.160373 4285231999
0.56086659 -1.5321233 2.1887476 4286084200
0.56138742 -1.5198538 2.1907802 4286412909
0.63252938 -1.2479634 1.8235081 4285624171
0.65823066 -1.2629466 1.7124699 4284440402
0.64792269 -1.2574093 1.7570785 4285032038
0.66281211 -1.2513893 1.6967989 4285030485
0.66031325 -1.2460749 1.7040341 4285689710
0.64551175 -1.2579205 1.7655023 4287201923
0.6500904 -1.2400883 1.7481422 4285755500
0.63787448 -1.2531693 1.8063703 4285886062
0.6882779 -0.99044877 1.3429813 4290229338
0.69145334 -0.9542864 1.2939477 4284387610
0.68802404 -0.97157335 1.3343496 4286618693
0.69426948 -0.95718813 1.3145931 4288852604
0.69298017 -0.95083332 1.2892655 4290429103
0.716672 -0.95019436 1.2883991 4286347377
0.70579249 -0.94916916 1.2980092 4291480276
0.7305972 -0.94403011 1.3134332 4286807915
0.69638336 -0.9453932 1.3505616 4291546581
0.70162344 -0.94656897 1.3285178 4288651389
0.72891796 -0.94428015 1.3253055 4286807659
0.73674017 -0.79368627 1.138922 4290295994
0.73392189 -0.7923435 1.1684328 4290295737
0.73658502 -0.79101247 1.1611192 4289439923
0.74467838 -0.79316908 1.1083585 4288979883
0.75162739 -0.79544425 1.0785685 4288716199
0.75020486 -0.79433453 1.0862695 4286878625
0.78977931 -0.78977931 1.0988234 4284439121
0.73846543 -0.78793204 1.1306648 4289110954
0.74363911 -0.79228836 1.1119837 4289110955
0.73922479 -0.78898031 1.1372689 4287667370
0.79582131 -0.7885536 1.1628439 4284965709
0.79832858 -0.79123235 1.1354007 4283846983
0.8032198 -0.7891897 1.1224031 4286874511
0.79912561 -0.78832662 1.1518928 4286869831
0.79950178 -0.78535128 1.1320379 4287597199
0.79505724 -0.79170263 1.073495 4284175951
0.81057584 -0.79368889 1.0807679 4285164109
0.81012678 -0.79303545 1.093842 4287267979
0.81116468 -0.79412341 1.0906416 4286738763
0.81818581 -0.78160024 1.0643067 4288058259
0.81560433 -0.7788353 1.069645 4288255381
0.80486649 -0.79098952 1.1101607 4284966728
0.81215221 -0.77477282 1.0874004 4287860630
0.80519658 -0.77048981 1.110616 4288254616
2.9370952 -2.3315086 3.2297955 4287334023
1.0933744 -0.86880922 1.1780465 4287331677
2.9795165 -2.359617 3.1994808 4287662473
2.4582694 -1.949949 2.6665971 4287465608
2.0415645 -1.6260884 2.2922831 4287202690
2.860152 -2.2721765 3.1890197 4287399553
-2.8648591 -1.8132019 2.901123 4287533190
-2.7991576 -1.805908 2.8894529 4287862673
-2.8854196 -1.8045324 2.9312201 4288780426
-2.8631155 -1.8020248 2.9271469 4288189596
-2.737704 -1.7980301 2.8913047 4287664775
-2.7181878 -1.7970743 2.8897676 4287598983
-2.7738843 -1.7943277 2.9295146 4288255647
-2.7396188 -1.7898842 2.92226 4288384888
-2.3649697 -1.8224678 2.7125101 4288716938
-2.3696406 -1.8241117 2.7276437 4288716938
-2.3809457 -1.8181766 2.7705548 4287862155
-2.664973 -1.7916542 2.881052 4288257949
-2.6095667 -1.7907026 2.8795218 4288850091
-2.6786439 -1.7827154 2.9254816 4288255648
-2.6494184 -1.7815053 2.923496 4288450680
-2.6096249 -1.7826312 2.9404223 4288846733
-2.5483088 -1.7884495 2.9653049 4289307544
-2.3825355 -1.8198702 2.8133259 4290426547
-2.3963866 -1.8129965 2.8720737 4288980367
-2.4000373 -1.8135622 2.8872631 4289046159
-2.5290122 -1.7944829 2.9753087 4288186217
-2.409292 -1.8115669 2.9426467 4290426546
-2.3812604 -1.8138508 2.9765756 4289047467
-2.3557329 -1.8135405 2.9914069 4288455068
-2.2829738 -1.805795 2.9940641 4288388756
-2.2617469 -1.8037899 2.9907398 4288849310
-2.2033911 -1.8019259 2.987649 4289442225
-2.147114 -1.8017086 2.987289 4290166209
-0.88375789 -1.7843492 2.6933575 4288719538
-0.89189893 -1.7753035 2.718168 4292527506
-0.8322317 -1.7821528 2.690042 4288324778
-0.82412803 -1.7828076 2.6910303 4289573546
-0.83876926 -1.770735 2.7111733 4290950802
-0.83319551 -1.7684149 2.7206383 4292662724
-0.78012049 -1.8231077 2.7134626 4289638563
0.4241721 -1.8525066 2.7701035 4288719023
0.40282845 -1.8351074 2.864558 4289376181
0.41344672 -1.8473152 2.8149564 4290097834
0.45369777 -1.7094685 2.5925589 4282859051
0.48172206 -1.7635925 2.6127298 4283128424
0.45484561 -1.6894267 2.5991178 4283253806
0.47949004 -1.6985325 2.6006238 4281742635
0.40378699 -1.830501 2.8713741 4289439390
0.40654144 -1.802923 2.8281145 4287861390
0.40244144 -1.7707424 2.8618059 4288913305
0.45692778 -1.6645225 2.6110158 4283845949
0.48146239 -1.6483967 2.6113214 4282071857
0.4576149 -1.6179956 2.6149423 4284569930
0.48173159 -1.6166586 2.6127815 4282335031
0.56971705 -1.4209414 2.1448171 4286612619
0.56980479 -1.4077529 2.1451473 4286481549
0.56148416 -1.346209 2.1647582 4287202425
0.56147289 -1.3326526 2.1647148 4287465853
0.62006366 -1.2460326 1.8897177 4287663501
0.62787902 -1.2442374 1.8433146 4285624164
0.62467849 -1.2260045 1.8681973 4286084466
0.7144109 -0.77687305 1.2492431 4289506226
0.70839089 -0.776815 1.2879834 4289835706
0.71278101 -0.77544308 1.2532413 4289440690
0.72650295 -0.78611344 1.19221 4290164408
0.72180307 -0.78290814 1.2221005 4289375158
0.72687221 -0.78278542 1.1928159 4288914605
0.72807264 -0.7837925 1.1886901 4288980653
0.7362231 -0.78724849 1.1662941 4287137131
0.72938609 -0.78148508 1.1908344 4286874989
0.78712457 -0.78332204 1.2168109 4286804555
0.72051549 -0.78183591 1.2264093 4289375414
0.72523057 -0.77866864 1.221441 4286084976
0.71970278 -0.77446282 1.251657 4286479991
0.76949227 -0.77350008 1.2824872 4286608210
0.77957839 -0.77957839 1.2411199 4285360716
0.78318161 -0.77936119 1.2225274 4287860882
0.77593768 -0.77593768 1.2540407 4287597196
0.78060877 -0.76128674 1.2366079 4288058267
0.79195404 -0.78451788 1.1897901 4287203988
0.79362398 -0.78624141 1.1812078 4286738503
0.79083645 -0.7833758 1.1937155 4287531921
0.79472107 -0.76555699 1.166563 4288518048
0.79692394 -0.78243434 1.159162 4288650397
0.8042084 -0.76862395 1.1387022 4286675811
0.79005802 -0.76384753 1.1981922 4288453026
-2.546021 -1.7840729 2.973455 4289900715
-2.5271471 -1.790451 2.9840851 4289965990
-2.4856181 -1.7941303 2.9902172 4289767837
-2.4593723 -1.7783153 3.0269198 4289374366
-2.3842781 -1.8071314 3.0276546 4289240458
-2.4506905 -1.7587309 3.0753763 4289177763
-2.429965 -1.7864565 3.0734735 4289374612
-2.4558406 -1.754172 3.1185279 4288980641
-2.3088987 -1.797913 3.028064 4289504664
-2.2877483 -1.7961661 3.0251217 4289569680
-2.2083189 -1.7912973 3.0328844 4289703348
-2.1797643 -1.7911974 3.0327153 4289766797
-2.4304152 -1.7585932 3.1615157 4289571990
-2.436209 -1.7516543 3.2214332 4289572248
-2.1138749 -1.7901285 3.0470271 4289568126
-2.0349061 -1.7865139 3.0571361 4290558655
-2.0422595 -1.7833815 3.0681832 4291545284
-2.0259109 -1.7870061 3.0579786 4290093950
-1.9077183 -1.7938248 3.0371635 4289770673
-2.0141535 -1.7839645 3.0691862 4291479491
-1.9274998 -1.7836565 3.0686562 4290818969
-1.888319 -1.7934287 3.0364928 4290427560
-1.8293272 -1.7912163 3.0488787 4289902517
-1.9160465 -1.7819231 3.0656743 4290819228
-1.8559322 -1.7790024 3.0771933 4291282635
-1.7899425 -1.7899425 3.0467107 4290692294
-1.7369076 -1.7846248 3.0539036 4290494397
-1.807703 -1.7788566 3.0769413 4290883720
-1.7570059 -1.7763135 3.089241 4291080842
-1.646834 -1.7808787 3.0638771 4290757827
0.46190387 -1.5153687 2.5931444 4284372291
0.49001631 -1.5435513 2.6134202 4286940545
0.46138129 -1.4731823 2.5902107 4284898636
0.48606163 -1.4824879 2.5923285 4285098597
0.46157211 -1.4575962 2.5912821 4285095501
0.48513937 -1.4554181 2.58741 4283387721
0.46163636 -1.4092057 2.5916426 4285622361
0.48921853 -1.3553759 2.5663922 4288059281
0.5624994 -1.3012034 2.1686723 4287729027
0.57287943 -1.2323568 2.1316442 4289636246
0.5742569 -1.168546 2.1367698 4285100673
0.56946516 -1.1660478 2.1693912 4288518285
0.68849319 -0.7664358 1.3856467 4289901756
0.68186659 -0.76261395 1.4355086 4287860339
0.68071067 -0.76027429 1.4144638 4289835705
0.70303649 -0.77292907 1.3156239 4289769913
0.69740725 -0.76926136 1.3525474 4287663476
0.69952887 -0.77031457 1.332436 4289572790
0.70713198 -0.77582484 1.2930413 4289704378
0.74900931 -0.76947403 1.309743 4285426274
0.75349545 -0.77052361 1.3622516 4285031258
0.76172346 -0.77004832 1.3319755 4287663764
0.69194829 -0.76930892 1.3753009 4290098365
0.74904537 -0.76656687 1.4017223 4286347354
0.7483207 -0.76592827 1.4086037 4286413144
0.75051153 -0.7679652 1.3963004 4286544218
0.75567448 -0.76416528 1.358516 4288255901
0.75402462 -0.74971592 1.3787879 4289045419
0.76687539 -0.77093285 1.2984133 4288059033
0.76830715 -0.77235091 1.293991 4287730329
0.76207268 -0.77035606 1.3253437 4287068244
0.76863205 -0.75245029 1.2945381 4287140771
0.77483732 -0.75902432 1.2650405 4287730332
-3.6774659 -1.7223575 3.7240162 4293257966
-2.472801 -1.7467445 3.3672185 4289769113
-1.5567334 -1.7363565 3.8319592 4293518028
0.46197468 -1.3616097 2.5935421 4286346599
0.48898524 -1.3386973 2.5651686 4287993750
0.46211782 -1.3133875 2.5943456 4287860104
0.46600562 -1.261429 2.5710654 4286082911
0.46119571 -1.2622198 2.5891688 4290163890
0.4647758 -1.2340599 2.5642803 4286214498
0.46023625 -1.211148 2.5837824 4290427319
0.46398416 -1.199959 2.5599127 4286543206
0.57528585 -1.1108968 2.115994 4288783010
0.57448876 -1.0697377 2.1130621 4289178030
0.56913066 -1.0110439 2.1426096 4289176213
0.56865627 -0.98344088 2.1408236 4290031526
0.57708013 -1.0295634 2.0984733 4289768615
0.57704479 -0.99015635 2.0983446 4289900975
0.57612854 -0.95584965 2.0950129 4290164406
0.64008147 -0.75456756 1.6652526 4291808976
0.65974361 -0.75748336 1.5638367 4290493376
0.64713544 -0.74904656 1.6305776 4290427325
0.65207952 -0.7523995 1.6051189 4290427841
0.67372739 -0.76200891 1.4868467 4290361792
0.66551703 -0.75648701 1.5321256 4288255099
0.66908789 -0.75861371 1.5078037 4290361535
0.68065923 -0.76233834 1.4520731 4287860852
0.69100159 -0.75381994 1.4358475 4289637037
0.68276799 -0.74735415 1.4762551 4290756541
0.69970495 -0.71741903 1.4171239 4289899167
0.66305071 -0.75500667 1.5487316 4288189049
0.67246974 -0.73876953 1.5154247 4290953922
0.7011109 -0.68347287 1.4110408 4289503888
0.70181727 -0.65767783 1.4124625 4289568909
0.70278227 -0.68960512 1.4055645 4287861649
0.70217782 -0.67584616 1.4043556 4287861650
0.70139915 -0.64002669 1.4027983 4288649360
-3.2774639 -1.6454757 4.3160019 4286672969
-3.2658782 -1.6397148 4.3364358 4283257913
-3.1622939 -1.6417015 4.3061023 4282667871
-3.1418157 -1.6528683 4.371222 4290097321
-1.5629679 -1.7325922 3.8771296 4293517771
-1.569874 -1.7293144 3.9246852 4293783277
-1.5859163 -1.7243693 4.0277238 4294111725
0.45916986 -1.1600081 2.5777957 4290558906
0.49306956 -1.1292884 2.5448751 4290033075
0.45967397 -1.1128948 2.5806258 4290822077
0.49222866 -1.0876665 2.540535 4290098353
0.4593533 -1.0637655 2.5788255 4290953663
0.49161148 -1.0466566 2.5373495 4290757055
0.4596383 -1.0160425 2.5804255 4291216836
0.49007821 -0.96434748 2.5294359 4289506475
0.56834793 -0.96284831 2.1396627 4290360749
0.56923789 -0.92417449 2.1430132 4290953144
0.56999344 -0.84173453 2.1209059 4290426025
0.57116795 -0.80362004 2.1252761 4291347644
0.5763129 -0.94305754 2.0956833 4290428093
0.57462817 -0.90112144 2.0895569 4291151561
0.58273774 -0.82451189 1.983788 4290096803
0.61812186 -0.74063253 1.781973 4291414479
0.57416123 -0.82861912 2.0878592 4288126116
0.5828563 -0.81847906 1.9841918 4290294181
0.57803339 -0.78586566 2.0783224 4291348939
0.58175623 -0.77361196 1.9804467 4291347903
0.61814147 -0.7350871 1.7820294 4288648567
0.60315406 -0.7155062 1.8922479 4291810521
0.61700219 -0.69552982 1.7949156 4290094472
0.62964189 -0.74803609 1.7220975 4291874768
0.63169694 -0.74411762 1.7130765 4290822342
0.62950003 -0.74248731 1.7217096 4290822599
0.63165319 -0.73871309 1.7129579 4287990640
0.64294434 -0.74664503 1.6592112 4288516985
0.62381977 -0.72231764 1.7510731 4290624705
0.62019515 -0.69771951 1.7719861 4290757834
0.70372617 -0.62405908 1.4163042 4290821048
0.70594078 -0.59050393 1.4207613 4291084992
0.70642638 -0.58646715 1.4217386 4291084992
0.70759284 -0.56073391 1.4240862 4291216579
0.70115167 -0.62227213 1.4023033 4289963667
0.70198411 -0.6054613 1.4039682 4289766288
0.70312595 -0.56689531 1.4062519 4290161565
0.70398098 -0.55438507 1.407962 4290623666
-3.2966084 -1.6414646 4.3772392 4285632419
-3.1886404 -1.6422182 4.3792486 4286476625
-3.5415459 -1.6009728 5.1748614 4286943392
-3.4666817 -1.6037452 5.1838231 4286349440
-3.4223144 -1.59708 5.2149553 4284573287
-3.3837674 -1.6010996 5.2819781 4283717721
-0.31854439 -1.653397 4.8540096 4290692297
-0.27307862 -1.6536429 4.8547311 4286679947
-0.21281478 -1.6569151 4.8643379 4287207071
-0.32068607 -1.6492426 4.8866448 4287598729
-0.27753407 -1.6343673 4.933939 4287858309
-0.21681988 -1.6416363 4.955883 4289108601
-0.26895049 -1.613703 5.0625973 4289371784
0.49023157 -0.94883525 2.5302274 4288519576
0.49438271 -0.87105531 2.5111504 4292204246
0.4930113 -0.83733666 2.5041842 4292270038
0.49252266 -0.7974177 2.5017025 4292270039
0.57131535 -0.79718417 2.1258245 4291479488
0.57210559 -0.72511065 2.1287651 4291546057
0.53871304 -0.71343076 2.3295698 4292204245
0.57180166 -0.71807653 2.127634 4288254074
0.54843688 -0.69088805 2.2792182 4291413437
0.57448781 -0.66033083 2.1130586 4292071368
0.57798553 -0.77930635 2.0781503 4291414988
0.6009841 -0.71136892 1.962397 4290164145
0.577806 -0.70765001 2.0775046 4287927700
0.60053569 -0.69858229 1.9609329 4290493627
0.60693687 -0.71618551 1.942198 4290558130
0.57737231 -0.70063156 2.0759454 4290559162
0.58572662 -0.66587865 1.9729738 4290951852
0.58082187 -0.62599695 2.0651445 4292072918
0.58489144 -0.61567521 1.9701606 4292071108
0.70341307 -0.53087777 1.4156741 4291348166
0.70154697 -0.50299591 1.4119184 4291611337
0.70560783 -0.52920592 1.4112157 4291018943
0.70233428 -0.47549343 1.395944 4290820789
0.70232332 -0.4711237 1.3959221 4290820789
0.70479912 -0.43071061 1.3921958 4289700495
-4.8420215 -1.5792973 5.5535731 4290492593
-4.8285627 -1.5805727 5.5580578 4290558385
-4.9779024 -1.5344073 5.7094221 4293583285
-4.981132 -1.5285063 5.7543764 4293583542
-5.0003886 -1.5273914 5.818634 4293583543
-4.7033539 -1.5735486 5.5333576 4290756022
-4.5535321 -1.5695887 5.5194325 4290953144
-4.7493153 -1.565515 5.628818 4293123011
-4.5767984 -1.5606706 5.6114001 4292859580
-4.4259295 -1.567158 5.5108852 4291018936
-4.3550649 -1.5664462 5.5083823 4291018938
-4.555572 -1.5594074 5.6068578 4292859581
-4.4156165 -1.5594835 5.607132 4292925636
-5.0066547 -1.5149288 5.9119172 4293649338
-5.0350094 -1.4953599 6.0571542 4293649340
-5.0538588 -1.487551 6.1027732 4290690746
-5.0467978 -1.4670924 6.2595944 4293649340
-5.0097971 -1.4512508 6.3616471 4292928226
-4.1184726 -1.5813544 5.5608068 4290821557
-4.3249593 -1.5484421 5.6954193 4292273648
-3.783711 -1.3446245 5.0032539 4288522851
-4.2370725 -1.5260642 5.745183 4294044616
-4.0552092 -1.5610762 5.7418895 4292793265
-4.4021082 -1.5217164 5.7970147 4294243573
-3.379045 -1.1976362 4.5624237 4286610267
-4.9141431 -1.4465019 6.3408298 4293980659
-3.3957515 -1.0894704 4.527669 4284704357
-3.4820895 -1.2007205 4.8028822 4286941065
-3.8657176 -1.32779 5.3783898 4294042516
-3.4714417 -1.1721752 4.8089237 4286610009
-3.5203385 -1.1479366 4.8978624 4286675801
-3.6431611 -1.5970021 5.3233404 4289703334
-3.5336483 -1.544944 5.2593837 4287464047
-4.0580502 -1.5607885 5.8759098 4292726945
-3.8629544 -1.5596906 5.8034997 4288253819
-3.4840989 -1.5336703 5.3345056 4287589645
-3.42557 -1.554039 5.3472309 4285158172
-3.5959308 -1.5265744 5.4278202 4286421419
-3.6556942 -1.5439097 5.6787481 4290032298
-4.0392537 -1.5493028 5.9021058 4291283115
-4.0188398 -1.5094235 6.037694 4291480238
-4.0815668 -1.4946582 6.1319308 4294177781
-3.5238163 -1.3319689 5.3953171 4290221090
-3.7399592 -1.5250319 5.8096457 4290358679
-3.4797146 -1.2203739 5.2772923 4283256652
-4.1584263 -1.4736172 6.4596915 4294177780
-1.9976591 -1.5321852 6.2063198 4294045931
-1.8527241 -1.54712 6.1120791 4292990902
-2.0307727 -1.5181506 6.3091969 4293254072
-1.6767762 -1.5433962 6.0973678 4293123013
-1.6392002 -1.5438979 6.0993495 4293188808
-1.5229172 -1.5421946 6.1687784 4293452237
-1.3863957 -1.5404396 6.1617584 4293254340
-1.3081949 -1.5390528 6.1562114 4293123014
-1.1732123 -1.5386389 6.1545558 4293189064
-1.1285287 -1.5245037 6.3355999 4294309366
-1.089408 -1.5368435 6.2251887 4292990902
-1.1001455 -1.520201 6.400846 4294046452
0.49153322 -0.74900305 2.4966767 4292270295
0.49037734 -0.70053899 2.4908054 4290493884
0.49007043 -0.63009059 2.4892466 4286545531
0.4902429 -0.60696745 2.4901228 4286808703
0.49678794 -0.70637035 2.4839396 4292861658
0.54167891 -0.68612665 2.3111634 4291874248
0.4959999 -0.65874988 2.4799995 4290361785
0.54486978 -0.68825662 2.2941887 4291676868
0.57420939 -0.63361037 2.1120346 4292269262
0.57281011 -0.5925622 2.1068878 4292598229
0.49616653 -0.65121853 2.4808326 4291151300
0.49696493 -0.59791094 2.4848247 4292401625
0.57546979 -0.50270921 2.1166704 4292861657
0.58075917 -0.6194765 2.0649216 4292072662
0.59889233 -0.55611426 1.9555666 4290691781
0.57934588 -0.57934588 2.0598965 4292533213
0.59887797 -0.54999 1.9555199 4290296507
0.57550943 -0.5166505 2.0927615 4291873731
0.58755434 -0.495749 1.9585146 4291478712
0.57628977 -0.47805858 2.0955992 4292466642
0.60256404 -0.46257442 1.9476818 4292270296
0.7025156 -0.39895949 1.3876852 4290755509
0.70247799 -0.39026552 1.3876108 4290887355
0.70401818 -0.34121126 1.3821216 4290162078
0.70446485 -0.332784 1.3829985 4290359716
-7.0902901 -1.3955491 7.2028341 4287068767
-7.1511374 -1.3936722 7.3110671 4286873975
-7.3844404 -1.3787405 7.4779148 4285425238
-7.4207931 -1.3600811 7.6355429 4284502843
-7.2589846 -1.125602 7.3508701 4284503111
-7.281518 -1.1362879 7.4206553 4282793010
-7.4256668 -1.3501213 7.7149787 4284633917
-7.3671126 -1.3416927 7.8062124 4286413171
-7.4522538 -1.3281244 7.8703671 4283515435
-7.4422674 -1.3307366 7.8858466 4284897861
-7.4306474 -1.305384 8.0331326 4285029191
-7.4349389 -1.2693799 8.2898273 4285950549
-7.3958635 -1.2760469 8.3333673 4287136891
-5.0054712 -1.4415758 6.4070034 4291413954
-4.9533491 -1.4380691 6.391418 4291940556
-4.169467 -1.2508401 5.5592895 4291155167
-3.4610171 -0.95576209 4.6339979 4286356402
-3.4206576 -1.066179 4.7385736 4280427042
-3.8017719 -1.1953169 5.3125196 4293319292
-3.2479217 -0.84668046 4.4416022 4281480504
-3.6223457 -1.0142567 5.1517806 4287788572
-3.3395615 -0.78909463 4.5091124 4285697441
-3.4569938 -0.78766954 4.6676712 4284315018
-3.2455246 -0.75637221 4.4007111 4282400315
-3.4742808 -0.87625664 4.9193358 4279045398
-3.5080485 -0.72836602 4.7566762 4285894818
-3.5415654 -0.81849509 5.0368929 4280689174
-4.6064253 -1.4600724 6.5806079 4291216571
-3.9267585 -1.2351776 5.8993559 4287802814
-3.455127 -0.9563297 4.9358954 4281677366
-3.4598451 -0.98163044 5.1495366 4285305261
-3.5004425 -1.1948626 5.3852963 4293449823
-4.2278142 -1.4571593 6.5674782 4293059298
-3.4646645 -0.99690807 5.229682 4284171023
-3.4939544 -0.90938538 5.1053214 4285490002
-3.4642854 -0.96230143 5.1322746 4282203707
-3.6550381 -0.88507652 5.2448978 4288709176
-3.4688148 -0.98174012 5.2359471 4288774678
-3.4470818 -0.80816758 5.2778287 4287853855
-3.890765 -1.3848485 7.0341511 4289045140
-4.9162602 -1.274586 8.3238268 4292926156
-4.1011376 -1.3517716 7.3316426 4288847246
-4.7787023 -1.2845974 8.2214231 4291940298
-4.5577698 -1.2875056 8.240036 4291742919
-3.8674095 -1.3843567 7.0316534 4289439381
-3.6751759 -1.3864435 7.042253 4289110162
-3.6121044 -1.3875767 7.0480084 4289373848
-3.4921703 -1.3743379 7.2096419 4288320645
-3.9106553 -1.3347746 7.4934711 4289176213
-4.5578561 -1.2761996 8.3343649 4292794828
-4.4326601 -1.277649 8.3438301 4292003229
-3.8296227 -1.3310274 7.4724345 4288912779
-3.4803092 -1.3648273 7.2790785 4288451968
-3.9985905 -1.2815995 8.2022371 4289113779
-3.4579606 -1.3649845 7.2799172 4290031515
-3.8868248 -1.304132 8.1827888 4289436535
-2.1012588 -1.4857384 6.7919469 4294309365
-1.1498318 -1.5052344 6.6899304 4294111988
0.49005032 -0.56005752 2.4891446 4287071874
0.49021047 -0.51355386 2.489958 4287268999
0.47737011 -0.46954435 2.5042367 4289767062
0.47629347 -0.42163688 2.4985888 4289635993
0.49679416 -0.55889344 2.4839709 4292467418
0.49648571 -0.51200092 2.4824286 4292335831
0.49649042 -0.42667145 2.4824522 4288650908
0.50229377 -0.37865224 2.472831 4292401624
0.58290017 -0.44838476 2.0497589 4292138455
0.60164213 -0.40717196 1.9447019 4290823110
0.58156979 -0.4217979 2.0450807 4292270041
0.59230262 -0.39079759 1.953988 4290622887
0.60719544 -0.40682092 1.9430254 4292796124
0.60823488 -0.37710565 1.9463516 4292336089
0.59179199 -0.36605689 1.9523034 4291017904
0.57786733 -0.31815165 2.0777252 4292466383
0.5908528 -0.32892835 1.949205 4291741886
0.60762131 -0.36457282 1.9443883 4292402140
0.60587633 -0.3271732 1.9388043 4292467676
0.70648074 -0.29723886 1.378499 4290029716
0.70695531 -0.27588502 1.379425 4290029202
0.86210191 -0.32204956 1.5854748 4289046697
0.7057752 -0.24529994 1.3771224 4290952375
0.709131 -0.23495305 1.3669995 4288255636
0.70663011 -0.21841295 1.3704342 4289898132
0.70865643 -0.22198877 1.3660847 4288190099
1.5107287 -0.51796418 2.7624755 4289179058
1.4993465 -0.4455201 2.7416623 4289179057
-7.2534666 -1.1052902 7.3686013 4286742138
-7.2713423 -1.1150941 7.4339604 4284568648
-7.3289895 -1.1017435 7.6643023 4284766027
-7.3279176 -1.0919082 7.7646809 4284831818
-7.3467879 -1.0708878 7.9693975 4284368951
-7.4529228 -1.255229 8.3681936 4284369965
-7.3085237 -1.051226 8.0093412 4285884248
-7.345015 -1.0308793 8.2470341 4284962110
-7.5058832 -1.237529 8.6088982 4284238380
-7.5123796 -1.2292985 8.7416782 4285753686
-7.3635473 -1.0029205 8.4456463 4286147421
-7.4698019 -1.0050279 8.6921329 4284764217
-7.3398156 -0.94707298 8.4184265 4287333754
-7.4527907 -0.98278558 8.7358723 4285894570
-7.5143304 -1.2155534 8.8403883 4285688150
-7.4997849 -1.2123712 9.0222979 4285689189
-7.600605 -1.1956007 9.1093397 4283778350
-7.5840349 -1.1974791 9.1236506 4285227347
-7.2989302 -1.2071308 8.9832993 4286873462
-7.6317725 -1.1741189 9.392951 4284898639
-7.673471 -1.1479995 9.6673651 4284438603
-7.511117 -0.97728288 8.9351578 4285358164
-7.5748467 -0.95408374 9.2517214 4284569420
-7.3913851 -0.84312379 8.9933205 4287335048
-7.5494628 -0.93275213 9.3275213 4284174921
-7.7384768 -1.109901 9.8657866 4281870876
-7.3792677 -0.72345763 9.2602577 4284181891
-7.5272317 -0.88904315 9.4831266 4283259502
-5.9739151 -1.2099068 8.0660458 4289770418
-7.6025605 -1.1342529 9.8097553 4284899930
-3.2358403 -0.63339847 4.4062505 4284641402
-3.5658519 -0.76071513 5.071434 4280952348
-3.426609 -0.61241519 4.6660209 4283985536
-3.4516468 -0.58036542 4.8872876 4279045376
-7.6542487 -1.1111007 9.8764505 4284306242
-7.6099257 -0.92055559 9.8192596 4285161810
-3.8215175 -0.58792579 5.226007 4282865504
-3.3132424 -0.52314353 4.6501646 4279045398
-3.4252224 -0.38552287 4.7448969 4282207066
-3.5920212 -0.41507801 5.1086526 4285947189
-3.7732537 -0.74449843 5.4145341 4288052810
-3.7761493 -0.71120298 5.4186897 4287985970
-3.5377922 -0.63290775 5.1930895 4286276129
-3.5051837 -0.80118483 5.3412323 4287079607
-5.544158 -1.2412293 8.82652 4293649342
-3.5208943 -0.55509597 5.0751629 4284697372
-3.6195247 -0.48912495 5.2173328 4284567090
-6.2552757 -0.96474397 9.9586477 4288517514
-6.2461343 -0.83487928 9.894866 4287925631
-5.6135125 -1.2252845 9.1183958 4293649085
-5.5236664 -1.2243178 9.1112022 4294243573
-5.6328859 -1.213237 9.2437105 4292202161
-5.529501 -1.1995213 9.3621178 4291019455
-5.4215403 -1.1850362 9.4802895 4291085245
-5.3822088 -1.1829031 9.4632244 4291150782
-5.6121984 -0.78382653 10.03298 4289109648
-4.5411968 -1.2673107 8.4487381 4293914347
-4.4904041 -1.2678788 8.4525251 4293650657
-5.2102895 -1.1841567 9.4732533 4291282625
-5.0663519 -1.1920829 9.5366631 4291414211
-3.9064624 -1.2175987 8.1173248 4288321161
-4.932075 -1.2029451 9.6235609 4291348162
-3.8789387 -1.0456269 10.793569 4287202424
-3.876636 -1.0112964 10.787161 4287662719
-2.7374542 -1.1956697 10.068797 4291479748
-2.6601291 -1.2178905 10.255919 4291940556
-3.1761377 -1.0917974 10.587126 4287465599
-2.7091222 -1.1893708 10.572185 4291150781
-2.5595915 -1.198796 10.367966 4291808712
-2.5634673 -1.1831386 10.516788 4291545540
0.30743665 -1.2639062 10.931081 4293454312
0.50112957 -1.2361196 10.690764 4294177780
0.47776884 -1.2285485 10.920431 4290032044
0.74072176 -1.2740414 9.4812384 4290492072
0.59682202 -1.2268008 10.610169 4294178036
0.73375523 -1.2340429 10.672804 4294112244
0.88594782 -1.2698585 9.4501095 4290491815
1.0043777 -1.2702425 9.4529667 4290426022
0.99413902 -1.2652678 9.6401358 4292728515
1.11034 -1.2083112 10.450259 4294309622
0.67652023 -1.2177365 10.824324 4290098092
0.81671369 -1.2250706 10.889516 4291019454
1.0730338 -1.2071631 10.730338 4293454312
1.1299344 -1.1964011 10.634677 4292730331
1.2840072 -0.92733848 11.413397 4288518287
0.47539195 -0.37407893 2.4938595 4289768097
0.47507352 -0.31931171 2.4921889 4290031529
1.4023868 -1.0868498 11.219094 4288979865
1.4809649 -0.9520489 11.283543 4287926667
0.48104343 -0.24052171 2.4828048 4288715929
0.48099956 -0.23274171 2.4825783 4289044894
0.50235736 -0.34005731 2.4731441 4292467161
0.50232011 -0.32457608 2.4729605 4292401624
0.50219321 -0.27813777 2.4723358 4292467161
0.50192887 -0.22393748 2.4710343 4291348937
0.53251058 -0.2115453 2.3342929 4291742659
0.55591911 -0.22236764 2.2236764 4291742916
0.57073236 -0.22829294 2.1486394 4291677123
0.54267937 -0.21421555 2.2849658 4291084471
0.56133538 -0.20536658 2.190577 4290623669
0.58368468 -0.27280915 2.0302076 4292401627
0.5919773 -0.26852578 1.9529148 4292531921
0.58386016 -0.25385225 2.030818 4291414731
0.59342122 -0.23615742 1.9377019 4290491558
0.60325277 -0.2654312 1.9304087 4291612367
0.61040092 -0.22141993 1.9149833 4291151044
0.5804528 -0.23478989 2.0870214 4292137677
0.59415042 -0.20613381 1.940083 4291347644
0.58279932 -0.1618887 2.0721755 4292202696
0.59389919 -0.16968548 1.9392626 4291676351
0.60597044 -0.21598944 1.9199063 4290822595
0.60508633 -0.16774671 1.9171052 4292401883
0.70833892 -0.18889037 1.3737482 4290096543
0.70743406 -0.18325099 1.3637283 4288386961
0.70955145 -0.17201248 1.3760998 4290821303
0.70946217 -0.15813312 1.3676379 4290029715
1.4612128 -0.35700086 2.6567504 4289113522
1.4580814 -0.33966666 2.651057 4289113265
0.7070058 -0.13711628 1.3711628 4291150529
0.70924163 -0.14099382 1.3672128 4289897616
0.70688683 -0.11995655 1.370932 4291150014
0.70921922 -0.11108253 1.3671696 4290029979
0.99510574 -0.19223635 1.8092833 4289244592
1.5094879 -0.22173266 2.7290175 4289113263
1.5307819 -0.22359736 2.7519674 4290426800
-7.306746 -0.54442418 9.1692495 4284182148
-7.5435305 -0.71277452 9.5036602 4282332465
-7.3227158 -0.45946449 9.18929 4284181890
-7.6087546 -0.53920305 9.5858326 4282135343
-7.368113 -0.20147184 9.2101412 4284116612
-7.5296373 -0.35573092 9.4861574 4281870886
-7.348887 -0.02870659 9.1861086 4283656319
-7.4721894 -0.029651543 9.4884939 4285422131
-7.5824814 -0.73378849 9.7838469 4285886050
-7.5214005 -0.54590809 9.7050333 4286478190
-6.3378115 -0.65847397 8.7796526 4285031775
-3.5576038 -0.37947774 5.0597034 4284302621
-5.9746037 -0.42486072 8.4972143 4287926423
-7.4446802 -0.24015097 9.606039 4286347121
-7.2402639 -0.029795324 9.5345039 4283847241
-7.0096521 -0.029452318 9.4247417 4283517505
-6.743535 -0.26974139 9.5908051 4288056961
-6.8353434 -0.059180461 9.468874 4289438612
-6.7584901 -0.029773083 9.5273867 4285293657
-3.5895736 -0.38459721 5.1279626 4287265885
-3.7437561 -0.30083752 5.3482227 4285952113
-6.1612539 -0.67102766 9.7604027 4288254080
-6.1305685 -0.48558959 9.711792 4288714375
-6.6666846 -0.029761985 9.5238352 4282726961
-6.4346533 -0.02965278 9.4888897 4285425500
-6.1016254 -0.21144247 9.6659412 4288583563
-6.2034497 -0.029824277 9.5437689 4282661682
-6.1763372 -0.029982219 9.5943098 4282398509
-5.5934277 -0.74995679 9.999424 4289175699
-5.591383 -0.49701181 9.9402361 4288649099
-5.9694853 -0.030148918 9.6476536 4282727987
-5.7069845 -0.030195687 9.6626196 4286675308
-5.5222044 -0.27765274 9.872097 4290031525
-5.7040725 -0.030503061 9.7609797 4285885536
-5.4530492 -0.030635107 9.8032341 4285951842
-5.3946857 -0.030651623 9.8085194 4287136116
-5.251761 -0.092678137 9.8856678 4288321685
-4.6179647 -0.60931474 10.262143 4288387992
-4.7428427 -0.41660103 10.254795 4288127917
-4.6780624 -0.44858131 10.253287 4288193966
-4.4112272 -0.64870989 10.379358 4288517772
-4.3692856 -0.420746 10.356825 4289374114
-4.3822818 -0.42514676 10.465151 4289966251
-4.772378 -0.38435262 10.249403 4288128174
-4.7695055 -0.06359341 10.174946 4288390829
-4.3156495 -0.38361329 10.229688 4283651677
-4.198688 -0.22265771 10.178638 4287463012
-4.1872778 -0.1903308 10.150976 4286409015
-4.0458136 -0.65785581 10.525693 4288585373
-4.0372715 -0.52517354 10.50347 4288519836
-3.7971318 -0.62735218 10.565931 4288254857
-3.7901337 -0.56028068 10.546459 4288386443
-3.9924133 -0.32458645 10.386766 4288322199
-3.9842899 -0.19435561 10.365632 4288124563
-3.7853074 -0.23041001 10.533029 4288583821
-3.7859924 -0.19753006 10.534936 4288583821
-3.7701218 -0.48334894 15.467166 4290099128
-3.710844 -0.2378746 15.223975 4290757314
-1.3398647 -0.94578683 12.610492 4292203986
-1.6337385 -0.81686926 14.52212 4293717487
0.68898827 -0.68898827 11.604012 4288386703
0.89986467 -0.68389714 11.518268 4288913562
0.68653333 -0.57813329 11.562666 4288452753
0.89969271 -0.57580334 11.516067 4288781976
1.2706625 -0.70592362 11.294778 4289505440
1.2804571 -0.64022857 11.381841 4289439647
0.68521029 -0.32457328 11.540383 4288715924
0.90100831 -0.25228232 11.532907 4288716183
0.68333042 -0.21578856 11.508723 4288847254
0.89898664 -0.17979732 11.507029 4288716183
1.2994332 -0.31607836 11.238341 4288518544
1.3003536 -0.21086816 11.246302 4288649873
1.4781519 -0.68751252 11.0002 4289308577
1.4826715 -0.55169171 11.033834 4289374370
0.48839584 -0.14729398 2.4807408 4287203462
0.48878628 -0.11637769 2.482724 4287532426
1.4902046 -0.3465592 11.089894 4289242784
1.4762617 -0.20599 10.986134 4289176992
0.48886132 -0.085356742 2.4831052 4287532169
0.48883453 -0.023277834 2.482969 4287729290
0.5082559 -0.1463161 2.4642711 4292270039
0.50830138 -0.13862763 2.4644914 4292335575
0.50790924 -0.09234713 2.4625902 4292203989
0.50813407 -0.046194006 2.4636803 4292138196
0.58265412 -0.12300476 2.0716591 4292532178
0.59404325 -0.13941832 1.939733 4292005834
0.58883119 -0.10130429 2.0260859 4292138455
0.5954442 -0.078189649 1.9246682 4290426023
0.60298419 -0.11343267 1.910445 4291019973
0.60311842 -0.095543511 1.9108702 4289967284
0.58704191 -0.075747348 2.0199292 4292335835
0.59555203 -0.072188124 1.9250166 4290623145
0.58323705 -0.006409198 2.0509434 4291610298
0.59690416 -0.036176015 1.9293873 4291083958
0.60745394 -0.071465164 1.9057378 4292204504
0.60728508 -0.023815099 1.905208 4292007381
0.7055378 -0.10262368 1.3683157 4291281600
0.70778376 -0.093802668 1.3644024 4290689461
0.70545584 -0.07695882 1.3681568 4291348422
0.70773309 -0.076282606 1.3561352 4289701263
1.4881067 -0.20177718 2.6903625 4289047470
1.5324514 -0.20662268 2.7549689 4290361265
0.78828418 -0.075710908 1.4251465 4288717732
1.5246322 -0.11991489 2.7409117 4290163629
0.70534766 -0.051298011 1.367947 4291479495
0.7074641 -0.038126804 1.3556198 4290030235
0.70759451 -0.025422558 1.3558698 4290557618
1.532403 -0.10330807 2.7548819 4288850605
1.4925362 -0.050310206 2.6832111 4288718763
-7.359066 0.057492703 9.1988325 4283261561
-7.5079484 0.14837843 9.4962196 4284105238
-7.3235345 0.28496242 9.1187973 4282867575
-7.5131063 0.17817645 9.5027437 4284434198
-7.3319311 0.48499161 9.1292534 4282407025
-7.484849 0.3550126 9.4670029 4285419804
-7.3139296 0.56917739 9.1068382 4282209902
-7.4209623 0.67197692 9.3492441 4283118870
-6.9511194 0.029705638 9.5058041 4287197501
-6.8187575 0 9.5283947 4282730826
-6.8420005 0.32580954 9.478096 4284710023
-6.8245611 0.29672006 9.4950418 4283192922
-6.849833 0.50410026 9.488946 4284643714
-6.8280921 0.38593563 9.4999542 4281940538
-6.8302827 0.68007147 9.4618635 4284117369
-6.8393111 0.65419495 9.515563 4280821798
-6.4993067 0.14838599 9.4967031 4283973660
-6.3873043 0 9.5066853 4285223463
-6.6199822 0.17891844 9.5423164 4283258208
-6.4184713 0.32686657 9.5088463 4283913031
-6.2726259 0 9.6040201 4284376168
-6.0922794 0.14932057 9.5565166 4281870114
-6.291307 0.17975163 9.5867538 4286155151
-6.0298996 0.26999551 9.5998402 4283783519
-6.5235329 0.35745385 9.5321026 4282991146
-6.4002333 0.50606495 9.5259285 4287129902
-6.6127105 0.68510067 9.5318356 4281476636
-6.4039788 0.536147 9.5315027 4287064366
-6.2632065 0.35789752 9.5439339 4285299071
-6.0184517 0.35931054 9.5816145 4282071093
-6.2451515 0.53529871 9.5164213 4284507750
-6.1307726 0.6912145 9.6168976 4282858278
-5.855422 0 9.6088972 4283382823
-5.8211069 0.060011409 9.6018257 4288316253
-5.8474793 0.29987073 9.5958633 4282793272
-5.7456894 0.18144283 9.6769505 4285494644
-5.7404709 0 9.7710142 4282858798
-5.434586 0 9.8252401 4282398762
-5.7075086 0.21479872 9.8193693 4285946666
-5.4680581 0.18431656 9.8302164 4286279522
-5.8349991 0.35907689 9.5753832 4284304432
-5.8108377 0.41933885 9.5848875 4287393066
-5.8225412 0.53746533 9.5549393 4285356078
-5.8007941 0.53821802 9.5683203 4287594596
-5.3621159 0.15320331 9.8050117 4287523362
-5.1558022 0.092619196 9.8793812 4285357376
-5.3638015 0.30650294 9.808094 4287918118
-5.1421885 0.18474929 9.8532953 4285159995
-5.0887375 0.096621595 10.306304 4289109906
-5.0550871 0.25595376 10.238151 4289044114
-5.3652525 0.36790302 9.8107471 4287984946
-5.1511078 0.43182939 9.8703861 4285161035
-5.3405485 0.54931355 9.7655745 4287984949
-5.188344 0.648543 9.8825598 4285553981
-5.081418 0.54329622 10.226753 4287596928
-5.0371003 0.5419665 10.201722 4288846737
-5.0825143 0.73520643 10.228959 4287399289
-5.0393095 0.60599291 10.206197 4288846993
-4.6738596 0.031580132 10.105642 4288521644
-4.6334114 0.09520708 10.155422 4289572268
-4.6163111 0.19101974 10.18772 4288585631
-4.2560782 0 10.088482 4286870602
-4.2734098 0 10.205158 4289637027
-4.3503079 0.22391291 10.236018 4289110423
-4.1345987 0.34985068 10.177474 4284771422
-4.6240058 0.47834545 10.204702 4288256665
-4.6186981 0.60520875 10.192989 4287598735
-4.1362433 0.44544163 10.181522 4284968810
-4.1102867 0.28900453 10.275717 4286087517
-3.884053 0.31836501 10.18768 4283526690
-3.7613022 0.1308279 10.466232 4288846994
-3.7552307 0.32654181 10.449338 4288452237
-3.8950264 0.5025841 10.051682 4286811799
-3.8423615 0.50391626 10.078325 4284637796
-3.8369241 0.68627912 9.9822416 4286090782
-3.8013351 0.65432823 9.9707155 4287662997
-3.7588363 0.42491192 10.459371 4288386701
-3.7589676 0.58836013 10.459736 4288255115
-3.0677462 0.61354923 11.549162 4291873986
-2.9726691 0.76939672 11.191225 4291676349
-4.1433053 0.59968889 17.445496 4292664280
-4.4024005 0.8004365 18.295691 4290029192
-4.2693591 1.0111641 17.97625 4292664279
-5.1187439 1.4368403 28.736807 4287796109
-5.0954528 1.5286359 27.175749 4289768873
-4.8113337 1.4804103 29.608208 4285494123
-4.8107805 1.5394499 30.788998 4287270022
-4.5634618 1.9685522 28.633486 4287007094
-4.6509151 1.7084996 30.373323 4288583818
-2.99509 1.4547579 27.383678 4289637799
-2.9634831 1.7780898 27.094702 4287334787
-0.74743736 0.54812074 15.945331 4286873981
-0.67101437 0.52722561 15.337471 4291150782
-2.4313715 1.3333328 25.098028 4289110681
-1.7694509 1.1569487 21.777857 4291611848
-2.499068 1.6929171 25.796831 4289374110
-1.8513626 1.4953313 22.786001 4291743176
-0.74835426 0.6485737 15.96489 4286611066
-0.67994553 0.67994553 15.541612 4291216831
-0.74588257 0.89505899 15.912161 4288979869
-0.6923672 0.89018643 15.825537 4290624694
0.92528832 0.39146811 11.388164 4290032045
1.3076501 0 11.309406 4288978838
0.92594087 0.42735735 11.396195 4290032301
1.4731392 0 10.962896 4289308577
1.4765826 0.30905217 10.988522 4288782233
0.48871675 0.007757409 2.4823709 4287860877
0.48658317 0.069511876 2.4715335 4288255116
1.4892851 0.41561443 11.083052 4288782233
0.48516908 0.11551645 2.4643509 4288452496
0.48520002 0.13862857 2.4645081 4288518290
0.50805211 0.038488798 2.4632831 4290559420
0.50866044 0.061655812 2.4662325 4288716699
0.51333988 0.11492684 2.4517725 4291414729
0.51246816 0.16062434 2.4476089 4291217350
0.58394003 0.032084618 2.0534155 4292203469
0.58873892 0.0313159 2.0042176 4292006868
0.58450365 0.038538702 2.0553975 4292269005
0.5893296 0.062694639 2.0062284 4291809490
0.60670197 0.029740293 1.9033786 4290559422
0.60606045 0.053475924 1.9013661 4289046181
0.58415288 0.07703115 2.0541639 4292269262
0.59056991 0.081674561 2.0104508 4291743954
0.56461138 0.14115284 1.9638656 4292444246
0.57370871 0.13745104 1.9123623 4290613386
0.60941982 0.094667152 1.8933431 4290624701
0.60256422 0.11008386 1.8540438 4291255372
0.60976243 0.12537172 1.8235886 4288768367
0.7084747 0.021085557 1.3494756 4289568905
0.70833683 0.025297742 1.349213 4289568906
0.88951665 0.0049972846 1.5991311 4288519838
0.71207803 0.071629152 1.3483135 4289634443
0.71196997 0.075831115 1.3481088 4289568649
-7.3201051 0.73768497 9.0791998 4283588204
-7.3804345 0.84264803 9.2981853 4284302614
-7.2914109 0.90436107 9.0436106 4281880424
-7.3303504 0.86578941 9.2350874 4284170774
-7.3094001 1.0199163 9.0659227 4281879909
-7.3537445 1.0422629 9.2645597 4280425494
-7.3442178 1.2760223 9.0739365 4282798432
-7.1035271 0.86920798 9.59126 4282071099
-7.0932817 0.95153773 9.2270327 4282398761
-6.6124024 0.87436724 8.7436724 4284438860
-6.8629332 0.71303201 9.5070934 4284114021
-6.8631492 0.71615469 9.5487289 4280425494
-6.9698992 0.90518171 9.6552715 4283913559
-6.8304582 0.89874446 9.5866079 4280952362
-6.0990496 1.0290577 8.0316706 4283383850
-5.4897761 0.83934593 7.2592082 4283843118
-5.9187231 1.022989 7.7942028 4283515434
-5.2770715 0.93766147 6.9779458 4283848278
-6.596766 0.80593967 9.551878 4282534742
-6.3976984 0.85895026 9.4780712 4282463010
-6.4879355 0.88471854 9.4369974 4281544496
-6.4067316 0.88572329 9.4477148 4282926662
-6.2893968 0.74518919 9.5384216 4285497219
-6.1364903 0.75202084 9.6258669 4283974946
-6.3237886 0.90772086 9.6823559 4283189831
-6.2158051 0.90521431 9.6556196 4280887332
-5.8357425 0.80802584 9.5766029 4286475292
-5.8000765 0.80722713 9.5671368 4287924336
-5.2742848 0.73169267 9.7559023 4283979866
-5.2206564 0.74580801 9.9441071 4285093947
-3.7581468 0.68329936 7.2885265 4284702039
-3.6698003 0.66933459 7.3857613 4285429133
-3.7900033 0.68464571 7.8245225 4286407203
-3.654943 0.68530184 7.309886 4284833877
-3.5158801 0.68938822 7.3534746 4285096274
-3.5970807 1.063288 7.2394075 4283383086
-3.5134273 1.0653619 7.2535276 4283250730
-4.1313472 0.79343754 8.7551727 4288781979
-4.1620841 0.82671535 9.1223764 4287139220
-3.484508 0.69228637 7.384388 4285162324
-3.433305 0.7054736 7.5250521 4284899411
-4.1662531 0.89497292 9.8755627 4288848030
-4.2074885 0.91742229 10.123281 4289637547
-3.2647064 0.72549027 7.7385631 4285293141
-3.2475395 0.72706109 7.7553182 4285227860
-3.3588231 1.0739094 7.3117237 4282396194
-3.3405032 1.0753675 7.321651 4282198562
-3.1530647 1.0743777 7.4739313 4283383090
-3.0551791 1.0894438 7.5787392 4283251502
-3.4693329 0.78976685 9.0259066 4286612886
-3.3316116 0.73732388 8.7386532 4283452753
-3.1426046 0.73654795 7.8565116 4285227860
-2.9886694 0.74099243 7.9039192 4284110157
-3.0108216 0.77268875 8.5262203 4285952366
-2.907012 0.76639408 8.4567623 4285886572
-2.8920977 0.76781356 8.190011 4284175438
-2.8691292 0.80442876 8.5805731 4284633666
-3.0318158 1.0895588 7.5795393 4283119658
-2.8766806 1.1064155 7.8678441 4283777077
-2.8587146 1.1089841 7.8861089 4283514933
-2.8865223 1.2798731 8.7140293 4284700747
-3.1511414 0.95190728 10.503804 4285952360
-3.0302598 1.0416518 10.100866 4283979085
-2.9542148 0.86888677 11.12175 4291544760
-3.5838459 1.5296904 13.985741 4286150771
-3.0348628 1.1380736 10.116209 4284110415
-3.1447117 1.5227025 10.592713 4284833105
-3.6500859 1.5831697 14.07262 4285165175
-3.5201676 2.0425663 13.906835 4284375385
-4.2127023 1.6289114 17.974195 4288715145
-4.1238918 1.6382583 18.077333 4286741615
-4.2405901 1.696236 18.093185 4287926662
-4.6140642 2.0145917 20.795784 4287464045
-5.0625086 2.0250034 27.000046 4290952630
-4.5259514 2.3295341 21.298595 4286873718
-4.3596683 2.2746096 20.218752 4288125334
-2.7271323 1.6083088 11.188235 4280624675
-2.5499096 1.6195371 11.026636 4286416772
-4.4441347 2.8470237 22.220673 4287268993
-5.1109319 3.1325068 26.379004 4290689969
-4.0895371 2.7476578 20.447685 4287069546
-4.4537582 3.1607316 22.987139 4290690485
-4.7320628 2.1428208 28.570946 4289178512
-3.0249944 2.0166628 26.888838 4292467157
-2.8800023 2.8800023 26.33145 4286742650
-2.4211235 2.8361733 22.135986 4286282612
-1.8971828 2.5476456 17.345673 4287598441
-2.3089147 1.8471317 24.628424 4290756021
-1.8487718 1.7065586 22.754114 4291743176
-1.8498476 2.4190316 22.767355 4290295728
-0.75560224 1.2089636 16.119514 4289176476
-0.70248002 1.2544286 16.056686 4291084988
-1.0005132 1.5007699 16.008211 4288782747
-0.70488453 1.7622114 16.111647 4289703076
-1.8928648 2.5869153 20.190557 4288387211
-1.8224388 2.6635642 22.430016 4290032555
-1.8627369 2.9546862 20.554338 4288782489
-1.776613 2.8699136 21.866007 4288848025
-0.74703515 1.8924891 15.93675 4287531908
-0.69575024 1.9878578 15.902863 4289637026
-0.73979992 2.2687197 15.782398 4286939513
-0.68240654 2.242193 15.597864 4289308318
0.85086471 1.5244659 11.344863 4288782752
0.48506826 0.18478791 2.4638388 4288715669
0.48462805 0.23077528 2.4616029 4288781978
0.48297125 0.27598357 2.4531872 4288913565
0.48206696 0.32137796 2.4485941 4289966511
0.51254147 0.18359695 2.4479594 4291085507
0.51116431 0.22887954 2.4413819 4290888384
0.51027775 0.28179517 2.4371474 4288651418
0.51343954 0.32467496 2.4161859 4290757059
0.57952052 0.28642967 2.1315696 4289174672
0.5638417 0.15934658 1.9611887 4291852610
0.57390082 0.1434752 1.9130028 4287123009
0.56610513 0.20921275 1.9690613 4291656781
0.58026356 0.18355277 1.8947382 4286217580
0.58869225 0.13851582 1.8468776 4288555301
0.60931826 0.13666952 1.8222603 4287639606
0.58856785 0.17310819 1.8464874 4288617757
0.60953075 0.17089647 1.8228956 4287441712
0.56633794 0.22776635 1.9698712 4291983178
0.57979888 0.23426218 1.8740975 4291836991
0.59185159 0.2800158 2.0364785 4290163885
0.60675919 0.27579963 1.9612418 4289308844
0.59070408 0.23743987 1.8531892 4289602070
0.61268395 0.22904074 1.8323259 4287311664
0.60849512 0.2624881 1.9090043 4285487184
0.61480016 0.24132343 1.8386546 4287111972
0.62555891 0.18335347 1.7256798 4291414214
0.70983428 0.10920528 1.344065 4289964184
0.71094084 0.12964216 1.3382416 4289503113
0.71068394 0.15049778 1.3377581 4289305477
0.70970565 0.17533904 1.3359165 4289503890
0.71506178 0.19539478 1.3303475 4287465604
-7.1752768 1.6813354 7.5778499 4286675314
-7.1955161 1.6916611 7.6243882 4287465865
-7.241395 1.7668009 7.9630461 4286740848
-7.2434907 1.7857215 8.0483227 4283645990
-7.2311463 1.788348 8.293788 4285358936
-7.2331591 1.7952805 8.3259382 4283251491
-7.3505592 1.4190269 9.0817719 4281485149
-7.3700724 1.6219851 9.1058807 4281221723
-7.2938552 1.7756577 8.7416992 4285031784
-7.3420744 1.7654607 8.9674196 4281410842
-7.2842522 1.821063 8.6976147 4284240459
-7.3165183 1.8291296 8.8685074 4282996072
-7.3783617 1.7594554 9.0810604 4281483866
-7.4877152 1.9583256 9.2156496 4281874488
-7.3612051 2.098978 9.4601831 4282071090
-5.054347 1.0815886 6.65593 4284109125
-5.0252542 1.0888051 6.7003388 4283780416
-5.1327896 1.2777832 6.9303489 4284631846
-5.0278616 1.107834 6.8174396 4283381027
-5.0587983 1.1437284 7.0383282 4282986271
-5.1141844 1.2894738 6.9937563 4288320907
-5.0614295 1.2983668 7.0419888 4290361008
-5.096375 1.3762362 6.8811812 4285354274
-7.0535927 2.0357931 9.1754055 4281479726
-5.0658073 1.4748553 6.8399086 4285551394
-5.1115632 1.3106573 6.9901719 4292861647
-5.0017967 1.3601377 7.0200653 4288649097
-5.0900359 1.4234847 6.9017439 4286805341
-4.9437742 1.1476618 7.0625343 4282855199
-4.6374698 1.1103802 6.9670911 4284900187
-4.9392357 1.2789092 7.0560508 4285950303
-4.7900167 1.2802809 7.0636191 4284898639
-4.5538654 1.1219668 7.0397921 4284438605
-4.5077395 1.1269349 7.0709643 4284438603
-4.593307 1.2870136 7.1007648 4289176474
-4.5658178 1.2855215 7.0925326 4289636770
-4.922637 1.3405395 7.0323381 4288451718
-4.5854902 1.3512797 7.0886807 4289899680
-4.5589571 1.3499824 7.0818748 4290228647
-4.515687 1.5123291 6.8161311 4286938218
-4.4225245 1.1277437 7.0760393 4284109125
-4.3103352 1.1331294 7.1098313 4283053862
-4.4183793 1.2813299 7.0694065 4290163370
-4.298521 1.2851249 7.090344 4290163113
-4.1448703 1.1364968 7.13096 4282197789
-4.0596623 1.1375977 7.1378679 4282000918
-4.0756245 1.2694567 7.1267748 4284832587
-4.0511732 1.268774 7.122942 4284898637
-4.4084234 1.3445691 7.0534773 4290491821
-4.2769613 1.3517855 7.0913343 4290425768
-4.1377335 1.5543866 7.0056863 4288912010
-4.1061335 1.5507205 6.9891629 4288977804
-3.9477668 1.5571748 7.0182524 4288912009
-3.932946 1.1396605 7.1508107 4281868822
-3.6970184 1.1203086 7.1699753 4283123522
-3.8913887 1.2747653 7.1565766 4289044887
-3.8048816 1.2533728 7.1621299 4284172348
-3.5809734 1.1260923 7.2069907 4281480501
-3.5549209 1.124975 7.1998401 4279635200
-3.848763 1.3425916 7.1604891 4288253560
-3.7725189 1.3616784 7.1432309 4285360479
-3.7683671 1.538564 7.1353693 4284702037
-3.3696945 1.1461546 7.3353896 4280028429
-3.2507641 1.1527531 7.3776202 4280028429
-3.1320572 1.1368208 7.4241357 4281480498
-3.1187603 1.1404421 7.4477859 4279635200
-2.945262 1.1733158 7.6624703 4280423949
-2.8993726 1.159749 7.7316604 4281677106
-2.8492608 1.1892567 7.9283776 4280423949
-2.9222903 1.3233012 8.8220081 4285226321
-2.862695 1.9357269 8.7244034 4282397994
-2.9682686 1.4400511 9.4044151 4283646514
-3.1303575 1.6146055 10.544362 4284701519
-3.1138656 1.9338745 10.488811 4284898643
-3.4248738 2.0295548 13.530365 4285428598
-3.1043735 2.0382252 10.034339 4281214498
-3.1385975 2.0817227 10.248482 4282333741
-2.9303372 2.0005186 9.0164223 4284043327
-3.1680746 2.1336012 10.344733 4285492587
-2.6154847 1.6518853 11.012568 4286349426
-2.758745 1.9039227 12.433781 4284903015
-2.5961847 2.0423322 11.077055 4288388751
-2.5201623 1.8901218 11.200722 4285632169
-3.0157745 2.2389841 14.621937 4286082884
-2.8500597 2.3821394 13.612226 4287466889
-2.6185746 2.1706605 11.025577 4287401869
-2.5579367 2.1431363 11.061348 4284571995
-1.8803453 2.5787594 17.191729 4287730541
-1.6029093 2.5853374 16.54616 4287927954
-1.0445232 2.5366993 15.916545 4288519576
-0.94475114 2.5359111 15.911599 4288520093
-0.68336093 2.342952 15.619679 4289176733
0.26634619 2.1307695 10.653848 4289900718
0.52634549 2.1755614 11.228703 4288190614
0.77081913 2.1289289 11.745815 4285886311
0.93400019 2.0063708 11.069632 4287794304
1.098745 1.9914753 10.98745 4288846998
1.318246 1.9604685 10.816378 4288913300
0.72520179 2.2118654 11.603229 4287138183
0.95570385 2.1591828 11.32686 4287199330
1.1418415 2.1766353 11.418415 4287401613
1.208946 2.1689916 11.378316 4287598736
1.3458611 1.9514986 10.766889 4288913557
1.6044977 1.9800184 10.924239 4288914076
0.48286074 0.37555835 2.452626 4289769391
0.48296648 0.4293035 2.4531629 4289637805
1.4082485 2.147579 11.265988 4287730836
1.6300516 2.1615901 11.339489 4287137925
0.48338532 0.46036696 2.4552906 4289572011
0.48259529 0.50557601 2.4512777 4289440424
0.51458102 0.38593575 2.4215577 4289901231
0.51435852 0.40846118 2.4205108 4289703850
0.515104 0.46965367 2.4240189 4289243299
0.51760179 0.54043716 2.4357731 4287268476
0.59445691 0.33877653 2.0454431 4290229161
0.59663105 0.33285731 2.0097046 4287862938
0.59322488 0.37634695 2.0412037 4290623920
0.59616286 0.3702485 2.0081275 4286546303
0.59234422 0.39489615 2.0381737 4290558127
0.59829473 0.4050954 1.9943159 4289769391
0.59225422 0.42030945 2.037864 4290426540
0.59811068 0.42366171 1.9937022 4289506734
0.62669611 0.2571061 1.7140406 4290293398
0.63347697 0.25339079 1.6892719 4288258992
0.62753868 0.31376934 1.7017998 4290227607
0.63461471 0.34090874 1.6783199 4287796376
0.63494194 0.36732179 1.6791853 4287271838
0.71196496 0.21234043 1.3323321 4289042307
0.71071374 0.24521701 1.3299906 4288450426
0.71494013 0.19951817 1.3301212 4287465860
0.71429241 0.22425458 1.3289161 4287006083
0.71042949 0.26173717 1.3294587 4289308066
0.71027225 0.27414018 1.3291645 4289636518
0.71398461 0.26981977 1.3283434 4288910465
0.71362919 0.27383447 1.3276823 4288713599
-6.9323158 1.6725588 7.0423527 4285094220
-6.9856806 1.6900841 7.2110252 4285424215
-4.0297003 1.0584339 4.080709 4282656019
-3.9887187 1.0449679 4.0779233 4282984986
-7.1373382 1.7316822 7.4883552 4285555802
-7.2327423 1.7658535 7.7407279 4283711012
-3.721524 1.0160739 3.9173937 4284436778
-7.1654615 1.9758583 7.6177669 4286080319
-4.3146067 1.2190475 4.3830924 4284499242
-4.6590676 1.2816206 4.8249245 4285947164
-4.3485332 1.2424381 4.4175577 4285618752
-4.3451362 1.2454212 4.4281645 4286474306
-3.8891559 1.0606788 4.0406814 4284305186
-6.9296255 1.9274457 7.3426499 4285757301
-7.2378883 1.7725441 7.877974 4285160784
-7.2663398 1.8040568 8.0180302 4282005037
-7.095829 1.9791086 7.723351 4286413943
-7.1964393 2.01299 8.05196 4285821807
-7.431179 1.9040744 8.462553 4283583041
-7.5911493 1.966053 8.7380133 4283980123
-7.1504722 2.0246856 8.2012587 4286544246
-7.2189307 2.0401325 8.3697748 4285823095
-6.8503594 1.9506109 7.4308987 4287202428
-6.6622744 1.9364395 7.3769126 4287794825
-7.1917038 2.0394382 8.5871086 4285756532
-7.3849831 2.0655315 9.0543852 4284637277
-7.0497713 2.0216255 8.293848 4286610550
-7.4477911 2.1029058 9.3462477 4281219904
-7.1686926 2.0645835 9.1759272 4283255111
-5.5078783 1.7310474 7.1939635 4284708745
-5.0179791 1.5879681 6.7753305 4285880358
-5.1440496 1.7498201 6.7462945 4283324772
-5.0205064 1.6523186 6.7787428 4283643170
-4.9653473 1.6338962 6.7902184 4292199578
-4.8987174 1.6400055 6.8156071 4291545247
-4.9269199 1.6564643 6.7957516 4286146907
-4.8892035 1.6580778 6.8023705 4285094218
-5.1010237 1.8262924 6.7173972 4285947424
-5.1000204 1.8334783 6.7438288 4286084986
-5.0318213 1.8336298 6.8228083 4283189573
-4.8614659 1.8337109 6.8231101 4284834919
-4.6507192 1.6139482 6.7955713 4287267696
-4.5623102 1.6263793 6.7589784 4288517002
-4.6467862 1.6550198 6.7898245 4283776309
-4.5246234 1.6414913 6.7343235 4286015842
-4.4549799 1.6180824 6.7244983 4289043862
-4.3479257 1.6251953 6.7540588 4288978069
-4.4643884 1.6425579 6.7386994 4286213736
-4.3474832 1.6461344 6.7533717 4286147686
-4.7832656 1.8364322 6.8332367 4285690999
-4.6392984 1.838616 6.841362 4287137929
-4.5624003 1.8734496 7.0529861 4283650124
-4.3772273 1.8510662 6.96872 4286019709
-4.1637378 1.6227901 6.8328009 4284304702
-4.0893388 1.6443901 6.923748 4286608489
-4.2561769 1.659909 6.8098836 4283251502
-4.1372066 1.8168685 7.0047946 4282399549
-4.0701518 1.6453806 6.927918 4286674538
-3.9538963 1.6510776 6.9519057 4286674540
-4.0225916 1.8244543 7.0340405 4281871922
-3.8944561 1.8262141 7.0408249 4282004790
-4.3066802 1.8488274 6.9602914 4287598740
-4.1582308 1.8287508 6.9666696 4282860355
-4.0019255 1.8369496 6.9979029 4282992453
-3.9737306 1.8340294 6.9867787 4282795333
-3.8694541 1.6489151 7.0353713 4286279780
-3.7677143 1.60518 7.1341333 4283846998
-3.800633 1.8447516 7.1122952 4282267190
-3.7003922 1.8614094 7.176518 4282400316
-3.6746273 1.85972 7.1700048 4282399545
-3.4818294 1.8660786 7.2822576 4281873720
-3.8558865 1.8403095 7.0107026 4285756535
-3.7261291 1.8520405 7.0553923 4286020224
-3.6136012 1.8508688 7.0509291 4287203981
-3.476994 1.8485283 7.0420127 4287006858
-3.3999124 1.8710926 7.301825 4282005557
-3.2406838 1.8616693 7.3547435 4281676341
-3.1959977 1.8624159 7.3576927 4281741875
-3.0873196 1.8711029 7.4844112 4281544752
-3.3580432 1.8557608 7.0695648 4287926667
-3.170547 1.8494858 7.04566 4287860875
-2.8950174 1.905268 7.9179964 4281677112
-2.958976 1.885154 7.6360669 4282071093
-2.8949664 1.8975408 7.7847834 4282465340
-2.8569217 1.9128954 7.9496951 4282269246
-2.8630784 1.9717426 8.6432552 4284109116
-2.8374715 1.9079549 7.827508 4285952880
-2.9570975 2.0472214 9.0987616 4286742395
0.52317673 0.58383489 2.4263268 4289111456
0.52602065 0.5786227 2.4046659 4290031523
0.52325523 0.62942296 2.4266908 4288848540
0.52360237 0.63742894 2.4283009 4288914332
0.52205402 0.68093997 2.4211199 4288387472
0.52481824 0.71225327 2.399169 4289571229
0.59217387 0.45845717 2.0375874 4290294696
0.59721208 0.44790906 1.9907069 4289243563
0.59245217 0.49689537 2.0385451 4290163110
0.59403288 0.52451837 2.0222397 4289308057
0.59303939 0.55518579 2.0188575 4289439386
0.59273142 0.56750882 2.0178092 4289373593
0.634956 0.37782505 1.6792225 4286877083
0.71065295 0.29922229 1.3298768 4289834153
0.71102875 0.32848698 1.3305801 4289900203
0.71308863 0.31923154 1.3266765 4288648581
0.71266192 0.33147067 1.3258827 4289044637
0.70955503 0.36930054 1.3278222 4289900463
0.70966727 0.37350908 1.3280323 4289966256
0.7117523 0.36415231 1.3241903 4289505704
0.71268594 0.38723975 1.3182629 4288451717
0.75266272 0.39072654 1.3161315 4286083685
1.1931132 0.61600959 2.0749795 4285161553
-4.3916521 1.6538184 4.4472427 4287333479
0.51974338 0.76078379 2.4104042 4286940286
0.5234617 0.75528044 2.3929677 4289439642
0.51965028 0.76817864 2.4099722 4286677113
0.52267957 0.79895306 2.3893924 4288850344
0.5188424 0.82714003 2.4062257 4283321419
0.52274305 0.82145339 2.3896825 4290098870
0.51867074 0.85693425 2.4054296 4284769118
0.5245685 0.89176643 2.3980274 4288058765
0.59914607 0.5929693 1.9765644 4288848803
0.59385127 0.63760877 2.0003412 4287201129
0.59461343 0.70101798 2.0029085 4288715148
0.59473443 0.72620201 2.0033159 4288846991
0.631015 0.53026474 1.6968471 4290295734
0.63414317 0.53018528 1.6633264 4288980655
0.63092428 0.62566656 1.6824647 4289966510
0.71275198 0.40375549 1.3183852 4289044122
0.75272322 0.4154374 1.3162373 4286149481
0.71256864 0.43248382 1.318046 4289307811
0.75218248 0.42335954 1.3152918 4286149482
0.71078241 0.45605111 1.314742 4289044119
0.75044757 0.44288707 1.312258 4286215790
0.71422923 0.46794328 1.313525 4287992981
0.76211739 0.41833621 1.3254216 4285160777
0.75492322 0.43900427 1.31291 4285688415
1.5379565 0.93940037 2.660249 4284437307
0.79399174 0.50214612 1.3733912 4285030221
2.7052231 0.90174103 2.8570013 4280952348
2.7077374 0.920452 2.8596568 4281873706
2.6897626 1.0669391 2.8690801 4280032269
2.7146211 0.89003962 2.8481269 4280030733
2.7440472 0.89402831 2.8325648 4280030733
2.7052078 0.91656715 2.8475871 4281472512
2.7586215 0.90185702 2.8293552 4279637526
2.7458637 1.0017483 2.862138 4280423936
2.7442403 1.0157253 2.8511586 4280423936
-4.3298821 1.6716633 4.3846908 4286152326
-4.3432217 1.6598299 4.4262133 4286409788
0.51816493 0.90866601 2.4030838 4283058759
0.5235225 0.93486154 2.3932457 4288190352
0.51736933 0.9447614 2.399394 4283057989
0.52149379 0.97593844 2.3839717 4287861385
0.51582575 0.98679703 2.3922353 4282861381
0.5202049 1.0106838 2.3780794 4285492841
0.50012237 1.0674253 2.388644 4284635464
0.5236463 1.0546678 2.360096 4288651159
0.59057838 0.78108752 2.0320976 4289310132
0.59778994 0.77837235 1.9926332 4287797404
0.59784365 0.78466976 1.9928122 4289965479
0.60702074 0.76484615 1.9424664 4287135328
0.61874694 0.76467782 1.8679153 4286742645
0.59690887 0.85183871 1.9896963 4288254338
0.59718543 0.87089539 1.9906181 4288517768
0.63103831 0.64681423 1.6827687 4289900975
0.63683516 0.65236771 1.6568068 4288191391
0.63277417 0.71644676 1.6734524 4288979096
0.63304573 0.74291313 1.6741705 4289308063
0.63922161 0.70623678 1.6496042 4288585638
0.63940275 0.73737574 1.6500716 4288125344
0.71364307 0.51267463 1.3124471 4289044639
0.71543592 0.53146672 1.3082258 4287727739
0.71574336 0.54396498 1.3087878 4288255379
0.71634668 0.56898391 1.3098911 4287925380
1.0705609 0.71946299 1.8418252 4284107570
0.98016357 0.68506056 1.6863029 4283777826
0.75963366 0.54726297 1.3068966 4284832585
0.75795108 0.56235081 1.3040018 4284832589
2.451004 1.1020701 2.8212996 4280421632
2.4548054 1.1086218 2.8155475 4279635200
2.26404 1.2310179 2.7547255 4280689174
2.3296974 1.2384636 2.7713873 4280030733
2.4238183 1.2425351 2.8000791 4280030742
2.4727273 1.0735685 2.8159173 4279637517
2.4821227 1.0735824 2.7483711 4279045389
2.4593959 1.1155118 2.8107383 4279637526
2.4814372 1.0781416 2.7381375 4279045389
2.4867456 1.0608983 2.7158997 4280030733
2.6721425 1.0724318 2.8598182 4279635213
2.4684031 1.0626684 2.6775897 4279637517
2.4645956 1.0633205 2.6376944 4280030733
2.4834821 1.1800944 2.8181357 4279635200
2.4934783 1.2290549 2.829479 4279631872
2.7182641 1.069481 2.8519492 4279042048
2.6096206 1.0388618 2.6594861 4280032278
2.4757783 1.0587209 2.6060824 4280690210
2.4916658 1.0529298 2.5720422 4281478694
2.4848704 1.0614979 2.5733285 4279637517
2.4895768 1.0566692 2.5616224 4280689186
2.6394625 1.1852363 2.689898 4278190080
0.49927726 1.1028812 2.3846078 4284767052
0.52342153 1.0837038 2.3590829 4288716953
0.49914736 1.1174941 2.3839874 4284832590
0.52231055 1.1181859 2.3540757 4288717212
0.49916321 1.1622307 2.384063 4285096275
0.52168983 1.1462481 2.3512781 4288848798
0.49862891 1.2205245 2.3815112 4285490780
0.51891202 1.2205396 2.3387585 4287726959
0.59718591 0.89577883 1.9906197 4288781197
0.60505188 0.92896855 1.9557233 4288388509
0.5970279 0.99094325 1.9695766 4287860094
0.59669626 1.0149987 1.9684824 4288583817
0.6077491 0.97847605 1.944797 4288584336
0.6080668 1.0154716 1.9458138 4288387733
0.63303649 0.75336581 1.6741462 4289505959
0.63312805 0.78486943 1.6743882 4289506218
0.63919997 0.74229676 1.6495483 4287994015
0.63912672 0.77313721 1.6493593 4287730840
0.63554817 0.86476231 1.6670116 4289111202
0.64067686 0.85594428 1.6401328 4287862171
0.71557343 0.60108173 1.3084772 4287793278
0.7168538 0.61910105 1.3033706 4287663247
0.71481627 0.65389442 1.2996659 4287924865
0.71493334 0.65806365 1.2998788 4287859329
0.71846336 0.67002761 1.2916195 4286543203
0.77846891 0.62027735 1.3321393 4284502594
0.76019728 0.60978389 1.3008723 4284437057
0.75641674 0.63102144 1.294403 4284898129
0.75634772 0.65523165 1.2942848 4285030225
2.1569371 1.2804129 2.7498801 4280030720
2.1730406 1.2934765 2.7594166 4279637517
2.0462744 1.4120985 2.7058175 4281214498
2.2026565 1.3647833 2.764118 4280423936
2.0908508 1.4136522 2.7087946 4280425494
2.1906731 1.4003127 2.7490799 4280421632
2.1947086 1.2456454 2.7116091 4280032278
2.2449253 1.2338521 2.7418935 4280030720
2.2011738 1.3241436 2.7514672 4278190080
2.1768513 1.2415502 2.6486404 4279045389
2.2993493 1.2354711 2.7454915 4279045376
2.3366973 1.2276127 2.7092144 4279635213
2.1740177 1.2308776 2.557668 4280032278
2.1852434 1.2282025 2.552109 4281214498
2.1972249 1.3732655 2.746531 4278190080
2.1791005 1.3959862 2.7238755 4279042048
2.1985445 1.2784129 2.6056824 4279045389
2.1905336 1.2248145 2.51244 4280690210
2.2427485 1.3390769 2.6288626 4278193421
2.2838511 1.3453959 2.6575723 4279045389
2.4620519 1.2483643 2.774143 4279045389
2.3730068 1.2150447 2.6094921 4279635213
2.2506285 1.2137319 2.5721469 4280690214
2.3401072 1.2145885 2.5911222 4280032290
2.4214108 1.2230176 2.626615 4279045389
2.4559703 1.2279851 2.6372836 4278190080
2.4229264 1.2237003 2.6105607 4279637526
2.430788 1.223551 2.6102421 4279637526
2.1897779 1.2234702 2.4936972 4280425494
2.2064519 1.221565 2.44313 4280425494
2.2523685 1.2985184 2.5649748 4279635213
2.2144248 1.2599314 2.4435034 4279635213
2.2140396 1.2207547 2.4263449 4280690210
2.2182393 1.222295 2.4144101 4280689186
2.2228789 1.219238 2.3790009 4280425494
2.4928977 1.2301555 2.606952 4279045376
2.4948664 1.2315423 2.5425389 4279637517
2.4771681 1.230695 2.5245025 4280427036
2.2310681 1.2182807 2.3484929 4280425494
2.2485411 1.2113109 2.3210747 4281477670
0.50139737 1.275614 2.3595171 4284503620
0.51882476 1.2276417 2.3383651 4285624942
0.49958521 1.3003908 2.3509891 4284700743
0.51911509 1.2868207 2.3396738 4281939767
0.49898642 1.3208464 2.3481715 4284898125
0.51204991 1.3313297 2.3407996 4288783783
0.50525922 1.3620031 2.3432312 4283650641
0.51219708 1.3609807 2.3414724 4290033853
0.55035913 1.2977604 2.1742582 4288980128
0.59705174 1.0340691 1.9696553 4288715404
0.59846193 1.0735296 1.9743074 4289044627
0.6079514 1.0395968 1.9454445 4288585886
0.60786378 1.057683 1.9451641 4288914596
0.60158288 1.1356411 1.9643521 4287464302
0.60220253 1.1736804 1.9663756 4288781197
0.60712659 1.0928278 1.9428051 4288257436
0.60754102 1.1604035 1.9441314 4284835419
0.63539332 0.88017595 1.6666055 4289177252
0.63670444 0.90588027 1.6564668 4287661686
0.64063537 0.88151425 1.6400266 4287599252
0.64090335 0.89213753 1.6407126 4287401873
0.63629794 0.9466871 1.6554092 4288650392
0.63658488 0.96264058 1.6561558 4288781979
0.64312041 0.94426405 1.6333216 4287599513
0.63803887 0.97764027 1.646552 4287530623
0.71639025 0.67996359 1.2951688 4287004276
0.71824408 0.67789328 1.2912253 4286345568
0.71698606 0.72103679 1.2962459 4287596153
0.71746147 0.72149217 1.2898184 4286411362
0.71680194 0.73300087 1.2959131 4287595641
0.71790016 0.7380659 1.2906071 4286741893
0.71652615 0.75295973 1.2954146 4287794308
0.7163046 0.76861894 1.2877386 4287267190
0.755813 0.69550878 1.2864902 4284503623
1.5634325 1.4235464 2.6331494 4282398766
0.89963675 0.85203683 1.5231944 4282725666
1.5395513 1.4099048 2.5929284 4281476630
1.6639063 1.4238402 2.6490049 4282400059
1.6901643 1.4167554 2.6512382 4282201382
1.6606842 1.4107754 2.5797036 4280691246
0.85171461 0.81115687 1.4420565 4283318831
1.4629622 1.4013637 2.4639363 4280690214
0.75850141 0.74646175 1.2842352 4284175687
1.4087785 1.3865347 2.3726797 4283648320
1.5498145 1.4033145 2.4673662 4280691250
1.5575289 1.403318 2.4673724 4281216565
1.7553244 1.4092041 2.6371071 4280423949
1.7815984 1.4104321 2.6394053 4280951318
1.6854566 1.4099493 2.5930102 4280032284
1.7159786 1.4025578 2.5073659 4280030742
1.832412 1.4095477 2.6532662 4280687629
1.8773483 1.4121647 2.6581924 4280949773
1.7604246 1.4005156 2.503715 4280690214
1.7686068 1.4007992 2.5042219 4280427046
1.6340708 1.4017384 2.4782116 4280954414
1.703446 1.4000926 2.4890535 4280954418
1.7113928 1.4002304 2.4892986 4281217589
1.7554079 1.3981125 2.4855332 4282400056
1.9570696 1.413439 2.6763344 4280687629
2.0017428 1.412995 2.6914189 4280689174
1.848218 1.3939949 2.5060582 4281215530
1.9000601 1.3897134 2.5124762 4280952358
2.0651097 1.410319 2.6863217 4280028416
2.0937304 1.4068545 2.6481967 4279045389
1.9516833 1.390673 2.5284965 4280689186
2.0394523 1.3996241 2.5593128 4280032278
2.1487458 1.4101144 2.6859322 4279045376
2.1801183 1.4015048 2.6226988 4279045389
2.0658088 1.4012269 2.5622435 4280032284
2.1196542 1.4023569 2.579047 4280032278
2.1972635 1.4026811 2.5945547 4278193421
2.2235851 1.3958272 2.5968878 4278190080
2.1885228 1.4000108 2.5747325 4279637526
2.1945484 1.3965309 2.5536563 4280032284
2.1937175 1.3896146 2.4981835 4280689180
2.2348893 1.2580502 2.3680944 4279042048
2.1915915 1.3841631 2.4607344 4280425500
2.2058194 1.3795846 2.4256432 4279637526
2.2035031 1.3809625 2.4147978 4280427036
2.2224696 1.3797209 2.3865445 4280030733
2.2169406 1.3791002 2.3726456 4280690210
2.2401721 1.2550802 2.3350329 4279045376
2.250087 1.2149031 2.3004084 4280689186
0.50304449 1.3997761 2.3329601 4285557600
0.50962341 1.3978243 2.3297071 4288320643
0.5496338 1.3028357 2.1713927 4290230458
0.55533171 1.2980043 2.1410379 4289242009
0.56852913 1.2938939 2.0911417 4288848282
0.5797016 1.2689024 2.0611613 4288318835
0.60231495 1.1800457 1.9667428 4288912784
0.58339977 1.2872843 2.0292165 4288256149
0.60123438 1.214739 1.9632144 4289110678
0.60750914 1.1724926 1.9440292 4284440918
0.60707265 1.2020038 1.9426324 4284111954
0.58648062 1.2864735 2.0179977 4288255892
0.60253739 1.2720234 1.9475956 4283912771
0.60172856 1.2763939 1.9449811 4286415758
0.60871375 1.2596155 1.9285979 4286941058
0.61041743 1.2567418 1.915035 4288190619
0.61885542 1.2552255 1.8682427 4286937178
0.63849646 0.99378884 1.6477327 4288188536
0.6388436 1.0200889 1.6486286 4288254336
0.7168231 0.78972036 1.2959514 4287926671
0.71762931 0.79019856 1.2901201 4287399295
0.71971166 0.80816782 1.2866354 4286872949
0.72042286 0.83311474 1.2879068 4287069558
0.71999943 0.84871447 1.2871499 4287004022
0.75770527 0.76973236 1.2828872 4284635723
1.1925404 1.21137 2.0084891 4283516733
0.75490391 0.80283433 1.2781442 4284635725
0.80268061 0.85337627 1.3518832 4283977538
0.75263655 0.83228064 1.2743053 4284833621
0.75821012 0.83403122 1.2769855 4284175173
0.75215828 0.83573139 1.2734956 4284833621
0.75762016 0.83736962 1.2759918 4284306757
0.29300007 1.3856462 1.9533339 4288388513
0.29624063 1.3844717 1.9346328 4288651682
0.31293043 1.3841155 1.9257258 4288386962
0.30682102 1.3806945 1.8881292 4288059294
0.61505747 1.2711188 1.8744608 4288189839
0.62541616 1.2508323 1.836084 4287597963
0.62684447 1.2650861 1.8235475 4285166211
0.63288945 1.2488266 1.8082557 4288320399
0.63715827 1.2519602 1.7885145 4286345811
0.64202887 1.156671 1.6305494 4286740586
0.63467914 1.2583205 1.7660637 4285560969
0.640737 1.1943338 1.6402868 4288452755
0.6413219 1.2108157 1.6417841 4288453011
0.72008741 0.86893225 1.287307 4286937456
0.71998459 0.88798094 1.2799726 4286411369
0.72142786 0.93384826 1.2825384 4286674544
0.72052848 0.93668699 1.2809395 4286740341
0.77341878 0.88275021 1.2957802 4283845954
0.75853932 0.88165301 1.2708511 4283977536
0.75829214 0.90915662 1.2704371 4284175173
0.84964675 1.035507 1.416078 4283517243
