# .PCD v0.7 - Point Cloud Data file format
VERSION 0.7
FIELDS x y z rgb
SIZE 4 4 4 4
TYPE F F F U
COUNT 1 1 1 1
WIDTH 1592
HEIGHT 1
VIEWPOINT 0 0 0 1 0 0 0
POINTS 1592
DATA ascii
-2.2282517 -1.8181913 2.4758351 4288125571
-2.2313228 -1.816375 2.5053449 4288322437
-2.2327354 -1.8160629 2.5157583 4288322694
-2.2515125 -1.8188375 2.5640001 4288454278
-2.2570357 -1.8186188 2.5980268 4288520073
-2.265033 -1.8103731 2.645294 4288717194
-2.2643747 -1.8065048 2.6639702 4288717195
-0.79020661 -1.8278517 2.5542033 4290299857
-0.7823056 -1.8280405 2.5544672 4290365651
-0.7338447 -1.8266351 2.5525033 4291482073
-0.80050009 -1.8251404 2.5616004 4289244848
-0.7800613 -1.8013786 2.5733981 4291083174
-0.80129337 -1.772558 2.5900393 4287928215
-0.75370783 -1.7586517 2.5934033 4290754719
-0.72660196 -1.8003582 2.5834737 4290886826
-0.69426256 -1.8163846 2.5833025 4289638568
-0.7349059 -1.7766956 2.5842845 4288784283
-0.69816822 -1.7616571 2.5978353 4292401366
0.51785249 -1.8494732 2.6303618 4288390831
0.50839514 -1.8418907 2.666991 4290229163
0.53805292 -1.8324989 2.4953177 4286216567
0.5432083 -1.8313881 2.483238 4283715398
0.53815073 -1.8250329 2.4957716 4286347894
0.54070252 -1.7688696 2.4717829 4284702035
0.53655577 -1.7729667 2.4883745 4287071619
0.54062665 -1.7608984 2.4714363 4284767828
0.54272991 -1.6740544 2.4461067 4283515438
0.57804656 -1.6580811 2.4338803 4286478963
0.64226955 -1.4653723 1.9954005 4283521385
0.63696396 -1.4694316 2.0181036 4285886566
0.64570564 -1.3907506 1.9867866 4285628305
0.63888425 -1.359195 2.0043428 4286280807
0.67646563 -1.2697593 1.7743361 4286740860
0.68223727 -1.2724266 1.732666 4285556063
0.68051779 -1.2684853 1.7421256 4285492565
0.67256415 -1.2666624 1.7935044 4287793021
0.67992032 -1.2501762 1.7546332 4286479996
0.72982097 -0.89333278 1.2761897 4290032305
0.73539484 -0.8996852 1.2517359 4289242521
0.73606122 -0.89707458 1.2267687 4289900463
0.74742556 -0.83047283 1.1554404 4289177522
0.73764932 -0.82087123 1.2105014 4289308594
0.74360168 -0.82499093 1.1838435 4288712554
0.74693358 -0.83073586 1.1659451 4289243315
0.74264371 -0.8243345 1.1882299 4289242800
0.75005037 -0.83142376 1.1321515 4288979886
0.75266469 -0.83004141 1.1254799 4286546279
0.74898326 -0.83062601 1.1358988 4288980143
0.81418526 -0.83188498 1.1327795 4286743181
0.81044102 -0.8284508 1.1526272 4287136910
0.8116411 -0.82959783 1.1492264 4287071633
0.80279988 -0.82499713 1.1838524 4285755736
0.79995364 -0.82259387 1.2074772 4285558605
0.8018471 -0.82058179 1.1990237 4288058272
0.80823815 -0.82636011 1.1598036 4287596426
0.81439781 -0.81439781 1.1430144 4287663254
0.80854785 -0.80854785 1.1707481 4287728791
0.81959885 -0.81614065 1.1066314 4287400082
0.82109851 -0.81419861 1.1039981 4285295698
0.81831205 -0.81482995 1.1142973 4287662994
0.9876138 -0.82843792 1.1576425 4285755753
1.0063078 -0.83556253 1.1625217 4281940255
0.99685478 -0.83257902 1.1947323 4285492581
1.0228486 -0.8504144 1.2540673 4281879896
2.3475144 -1.9150774 2.8240774 4281283619
1.0532944 -0.87450647 1.2437426 4281940255
2.3802743 -1.9366391 2.7300639 4281745189
2.3547359 -1.9170529 2.801173 4281349412
2.4624906 -1.9951566 2.8759015 4285426030
1.002491 -0.83245718 1.1335588 4281742879
2.5737007 -2.0928016 2.8497725 4284237591
2.4797988 -2.0186431 2.7843354 4281351463
2.3697624 -1.9306107 2.6514823 4281416998
2.6470082 -2.1393628 2.9008307 4287333240
2.2955956 -1.8692707 2.6235378 4281414175
-2.8153985 -1.7729881 2.8510363 4288384375
-2.7930079 -1.7700908 2.8463774 4287923298
-2.8082881 -1.7652096 2.852864 4289439904
-2.7987309 -1.7648048 2.8522098 4289374113
-2.6933923 -1.7749895 2.8258541 4287730568
-2.6367927 -1.775618 2.8409889 4287467653
-2.7279866 -1.7651678 2.8527963 4288714113
-2.654232 -1.7605512 2.8597786 4288846476
-2.6031566 -1.7768986 2.8430378 4287533447
-2.5491824 -1.7737319 2.8522322 4287598982
-2.6413343 -1.7638741 2.8651762 4288648061
-2.5654366 -1.7643001 2.8804901 4288387231
-2.5096076 -1.7772665 2.8579161 4287664518
-2.4853644 -1.7790918 2.860851 4287994003
-2.5491748 -1.7655061 2.8824589 4288516473
-2.4929042 -1.7676957 2.9008338 4289175183
-2.263618 -1.8025109 2.6828067 4290029709
-2.2641063 -1.795964 2.723737 4290360497
-2.2776628 -1.7914202 2.7297831 4287927690
-2.2721615 -1.7883552 2.7646072 4290360755
-2.2811229 -1.7829468 2.7967792 4288980111
-2.4577756 -1.7685102 2.9021707 4288779388
-2.4109313 -1.7649838 2.9113133 4289438613
-2.2821383 -1.7798917 2.8196306 4290161810
-2.3701274 -1.7661568 2.9283428 4289833887
-2.2539887 -1.7832763 2.8966925 4289574071
-2.2118855 -1.7840723 2.912771 4289309076
-2.1862357 -1.7837489 2.9271774 4288388756
-2.1567996 -1.7821013 2.924474 4288849311
-2.0803394 -1.7779114 2.9326372 4288520600
-2.010771 -1.7720493 2.938113 4288783515
-1.9551153 -1.7715365 2.9372625 4289310121
-1.937075 -1.771827 2.9377441 4289835423
-1.8935744 -1.7740768 2.9414747 4290429123
-0.8073678 -1.7615297 2.6096737 4292594855
-0.79871964 -1.7604433 2.6080642 4293057221
-0.72993958 -1.7518551 2.5953407 4291477651
-0.69871235 -1.7549055 2.59986 4291548124
0.49318081 -1.8256342 2.7687342 4290492851
0.50174546 -1.8368986 2.7213314 4290163627
0.49514827 -1.8242304 2.7797797 4290427059
0.50055826 -1.8123661 2.7617009 4289044631
0.50605047 -1.8111279 2.8409848 4290689713
0.54317391 -1.6524729 2.448108 4283713330
0.54443061 -1.6102877 2.4537716 4284438083
0.57965171 -1.6092962 2.4406388 4287202426
0.57826281 -1.5597879 2.4347908 4287400064
0.5483309 -1.5155256 2.437026 4284503360
0.54811203 -1.4996955 2.4360535 4284766788
0.57741326 -1.5119112 2.4312139 4286546304
0.57669318 -1.4644972 2.4281819 4287138439
0.64722246 -1.312937 1.9724876 4286678922
0.64592814 -1.2672495 1.9685429 4286613651
0.64838719 -1.2539564 1.9573953 4287667372
0.64087379 -1.2381929 1.9910641 4287664273
0.64769489 -1.2159555 1.9553053 4287402128
0.6408428 -1.2319114 1.9909679 4286081358
0.64708292 -1.2025975 1.9534578 4287599767
0.64713275 -1.2422639 1.8489509 4288057474
0.73118079 -0.81908226 1.2785674 4289769400
0.71776801 -0.81011248 1.3431916 4290822081
0.72388601 -0.81386054 1.3087205 4290690495
0.7265107 -0.81174386 1.2987901 4289571764
0.72055107 -0.80385178 1.3328112 4287465577
0.72750723 -0.79698825 1.3078781 4287597942
0.73509139 -0.82065761 1.2445992 4289572021
0.73685706 -0.82085115 1.2217319 4289308336
0.73278463 -0.81641769 1.2744081 4287334251
0.74152642 -0.80787355 1.2488866 4289176748
0.74113649 -0.81676263 1.2100188 4286019442
0.79259211 -0.81556576 1.2252631 4284769088
0.7476716 -0.7858181 1.2206883 4289702822
0.73610705 -0.80734318 1.2664207 4287597944
0.747455 -0.78195298 1.2265929 4290294961
0.7482022 -0.77492368 1.2215546 4290097841
0.7493819 -0.75318587 1.21727 4289768614
0.79701883 -0.81979072 1.2145048 4285493069
0.80446166 -0.80446166 1.1917951 4288320926
0.80017614 -0.80017614 1.219316 4287072660
2.3091302 -1.89331 2.8311176 4285487420
2.3201702 -1.895101 2.8337958 4285487937
-2.3617187 -1.7643969 2.9406614 4290032306
-2.3705983 -1.7591345 3.0102837 4289243815
-2.3722134 -1.7554381 3.0364332 4289046437
-2.2544603 -1.7740017 2.9566693 4289570716
-2.2277377 -1.7747952 2.9579918 4289437835
-2.3220658 -1.7557083 3.0205734 4289308820
-2.3399267 -1.7501104 3.0941179 4288585620
-2.1482303 -1.7685862 2.9630764 4289833371
-2.1289182 -1.7679278 2.9619732 4289701009
-2.3742239 -1.7443278 3.101027 4288520096
-2.3416913 -1.7489809 3.1092994 4289506198
-2.3508286 -1.7332382 3.1875644 4288717205
-2.0344639 -1.7650601 2.9727325 4289567612
-2.0240979 -1.764122 2.9711528 4290029457
-1.9324644 -1.764424 2.9873846 4290358677
-1.9236778 -1.7649276 2.9882374 4290490006
-1.8492537 -1.7647699 3.0038638 4290291583
-1.8028778 -1.7749983 2.973819 4289309862
-1.7376137 -1.7563988 3.0056021 4291148191
-1.694092 -1.7685575 2.9786234 4290165689
-1.7349745 -1.7538328 3.0173469 4292071885
-1.6712391 -1.7562174 3.0214493 4291741626
-1.6429205 -1.7642727 2.9871283 4290033842
-1.5719515 -1.7684454 2.9941933 4291085751
-1.6440722 -1.7574564 3.023581 4291146894
-1.5815454 -1.7625656 3.0487621 4291348158
-1.54581 -1.7720261 3.0162146 4290231479
-1.5639677 -1.7642319 3.0516443 4291541651
0.54780883 -1.4608237 2.434706 4285424464
0.54729259 -1.4138391 2.4324114 4286017374
0.57665855 -1.4568217 2.428036 4287138439
0.57658029 -1.380758 2.4277065 4286019441
0.55161136 -1.322356 2.4180224 4285950809
0.55059052 -1.2746547 2.4135475 4286543205
0.57667387 -1.3658066 2.4281006 4285624684
0.58092964 -1.2901164 2.414253 4287993749
0.6413362 -1.1531718 1.9733422 4287004012
0.64635533 -1.1646591 1.9512614 4287271840
0.64182532 -1.1355371 1.9748472 4287530357
0.64812863 -1.0963671 1.9383285 4288060061
0.64215964 -1.1114302 1.9758759 4288649614
0.64745867 -1.0589278 1.9363251 4287995561
0.64354885 -1.0358073 1.9612918 4287529582
0.64714944 -1.0463257 1.9354001 4287206047
0.70782584 -0.80576402 1.4245552 4291217095
0.70888186 -0.79804933 1.4266804 4289834675
0.69710618 -0.79067743 1.4971408 4290164412
0.70224631 -0.79344714 1.4592131 4290164157
0.71332407 -0.80843401 1.3834164 4290953924
0.71601367 -0.80176383 1.3720022 4287531367
0.71318561 -0.80069304 1.4001189 4287596904
0.71514934 -0.80131197 1.3786012 4287465835
0.72003055 -0.80375499 1.3395917 4287334766
0.70988578 -0.79862154 1.4197716 4288778606
0.74898899 -0.71494401 1.2104872 4290162859
0.75079322 -0.6866551 1.2073057 4289832343
0.75046384 -0.67881149 1.206776 4290358940
0.74965328 -0.64095354 1.1994452 4289833371
-3.4500828 -1.6867071 3.5048461 4292929005
-3.4535542 -1.6771253 3.5307901 4293060336
-3.6254928 -1.6635964 3.671385 4293323503
-3.6015124 -1.663119 3.6703312 4293323503
-3.4482923 -1.6681674 3.5826411 4293121959
-2.383374 -1.7054365 3.3896875 4288914328
-2.3884711 -1.7060509 3.4121017 4289703322
0.54956234 -1.2346332 2.4090405 4287069808
0.54910171 -1.2185545 2.4070213 4287398775
0.57968545 -1.2572399 2.4090824 4288125338
0.57534254 -1.1955169 2.3910339 4288717728
0.55333507 -1.1440576 2.3928003 4287003242
0.55331755 -1.1215897 2.3927245 4287332464
0.57731992 -1.1250336 2.3684919 4289309350
0.57634503 -1.1083558 2.3644924 4289441454
0.64345014 -1.0233922 1.960991 4288385923
0.64945757 -0.98019993 1.9243188 4289376181
0.64371151 -0.99315488 1.9617875 4289571232
0.64933306 -0.96197492 1.9239497 4289508282
0.64276487 -0.95496494 1.9589025 4290229163
0.64395297 -0.91732913 1.9440088 4288977801
0.64339125 -0.91913044 1.9608115 4290689970
0.64904648 -0.86341047 1.9054575 4290494662
0.67731929 -0.76261133 1.6054976 4291676870
0.67722028 -0.75246698 1.6052629 4291677129
0.69151276 -0.78689384 1.5260972 4290558656
0.68316489 -0.77654713 1.5727537 4289041264
0.68718576 -0.7791332 1.5485877 4287727977
0.69594431 -0.77118146 1.5047444 4290098618
0.69600159 -0.76183957 1.5048683 4291151815
0.68527955 -0.75818169 1.5552444 4290361533
0.68697435 -0.75470418 1.5481112 4291216837
0.6780234 -0.74781996 1.5953492 4289568386
0.74931794 -0.62942708 1.1989087 4290163114
0.75198615 -0.60680073 1.1912652 4287926409
0.7508899 -0.59398752 1.1954466 4290162858
0.75128525 -0.58763897 1.1901549 4289568647
0.75089395 -0.58278334 1.195453 4290228654
0.75206345 -0.56218606 1.1913877 4289833116
0.74983805 -0.55585015 1.1937721 4290821564
0.75208777 -0.55848104 1.1914262 4290029445
-3.6446438 -1.6608503 3.6907785 4289703847
-3.6229668 -1.6614879 3.6921954 4289704361
-3.5305367 -1.6506405 3.6680901 4292007639
-3.0847039 -1.6019278 4.2365031 4290164144
-3.0494757 -1.6042894 4.2427487 4290295472
-1.4369199 -1.6644323 3.8317866 4293783277
-1.4441702 -1.6607958 3.8511207 4293451978
-1.4362799 -1.6467692 3.9621513 4294309365
-1.4428837 -1.6419022 3.9803691 4294309365
0.55379683 -1.0701749 2.3947971 4288056959
0.55366606 -1.0325124 2.3942316 4289242012
0.57279241 -1.0207454 2.3499174 4288915107
0.57206142 -0.9901064 2.3469188 4287335304
0.55611169 -0.94909734 2.3727434 4288056445
0.5560838 -0.91197741 2.3726242 4288649355
0.57679582 -0.92725402 2.3363881 4291283400
0.5762223 -0.88986236 2.3340652 4291612109
0.64843071 -0.85664243 1.9036498 4290560712
0.64398909 -0.80649102 1.9259486 4290096285
0.64881563 -0.76678216 1.8874637 4291415505
0.64380705 -0.74804246 1.9620786 4291545804
0.65142632 -0.72841305 1.8950584 4287599513
0.6529544 -0.77573216 1.7858582 4289768352
0.67330205 -0.76712286 1.7660382 4288384862
0.65220964 -0.75254965 1.7838213 4290425767
0.67584687 -0.75277251 1.7583008 4288913303
0.67025292 -0.74532127 1.7158475 4288979097
0.67699873 -0.72213191 1.6047376 4292006350
0.67432433 -0.7504577 1.7401918 4289176736
0.6543116 -0.75362676 1.8694618 4290096536
0.66433191 -0.7307651 1.7715517 4289967798
0.65625727 -0.73828948 1.8750209 4288914080
0.65246063 -0.67457795 1.7693847 4290097316
0.6779362 -0.7178148 1.595144 4290028417
0.74910659 -0.53667343 1.1926075 4291018431
0.75163406 -0.52947623 1.1848419 4289964441
0.75300658 -0.51189607 1.1870054 4290360750
0.75269318 -0.48703676 1.1806952 4289832600
0.75285876 -0.44437027 1.1751941 4289898904
-3.0960803 -1.5880758 4.2704558 4285231468
-3.0611463 -1.5847527 4.3343663 4282799972
-3.1567683 -1.5442201 4.3730125 4283793571
-3.1745675 -1.5320739 4.4167895 4287068766
-3.0378029 -1.5867095 4.3397183 4286805039
-3.0800545 -1.5675278 4.4000778 4289768610
-0.14805767 -1.5546055 4.7378454 4285955194
-0.13584296 -1.5395536 4.8299723 4289504395
-0.045098171 -1.5483706 4.8104715 4288449642
-0.029923543 -1.5560243 4.7877669 4289505430
-0.060317885 -1.5381061 4.8254309 4288910967
0.55513728 -0.88821965 2.3685856 4289110164
0.55538893 -0.84419119 2.3696594 4290031786
0.57465798 -0.83652747 2.3277285 4289244851
0.57468724 -0.82929552 2.327847 4288585629
0.55615699 -0.80086601 2.3729365 4291348165
0.55576187 -0.73360568 2.3712506 4291743437
0.57905066 -0.78171837 2.3162026 4292072660
0.577878 -0.73679447 2.311512 4292138711
0.58494133 -0.69907624 2.2826979 4292072403
0.63044465 -0.73233473 2.037801 4289832311
0.62861609 -0.73124731 2.052624 4290226813
0.64232588 -0.74114525 1.9763874 4288713835
0.65310389 -0.6766392 1.882822 4291547346
0.63415009 -0.7157734 2.0091884 4290492077
0.65289199 -0.67053777 1.8822112 4291744726
0.6067012 -0.68850356 2.1813974 4292203729
0.65253663 -0.63490051 1.8811867 4291810780
0.64997733 -0.57842022 1.9081904 4292202953
0.64971483 -0.66637421 1.7769979 4292269780
0.65152752 -0.64600617 1.7668544 4291149746
0.65556842 -0.60047865 1.7628731 4289900196
0.65338832 -0.6008839 1.8668238 4292007125
0.65413767 -0.58267725 1.7590257 4290360232
0.65272731 -0.56530845 1.8649352 4292007641
0.65486199 -0.55030417 1.7609733 4291478712
0.75300038 -0.4407807 1.1754152 4290096285
0.75414181 -0.40635794 1.1714824 4289898647
0.75419366 -0.39540252 1.171563 4290426543
0.75450748 -0.36449638 1.1663884 4290096545
0.75380975 -0.37328079 1.1597073 4287729806
0.7544269 -0.3518241 1.1606568 4290029456
-4.6410761 -1.4253494 5.5623388 4292661938
-4.5878029 -1.4249994 5.5609732 4292662199
-4.8334966 -1.3939297 5.7929544 4293583543
-4.8433361 -1.3890322 5.848557 4293649338
-4.4550638 -1.42146 5.5471611 4291481022
-4.4369483 -1.4149324 5.5898561 4293123270
-4.8440776 -1.3653193 5.984961 4293649340
-3.9330134 -1.4409748 5.4248462 4289441713
-3.936645 -1.4548471 5.4770713 4290294961
-4.3038321 -1.4113781 5.5758152 4292727995
-4.1165781 -1.4069318 5.558249 4292925635
-3.4250464 -1.1563191 4.6838245 4288522345
-3.1816218 -1.1114836 4.4459343 4287396160
-3.569685 -1.1898949 4.8816204 4290495691
-3.2229545 -1.0790509 4.5433722 4292332400
-3.300365 -1.4668289 5.1020136 4283914842
-3.2798867 -1.4719491 5.119823 4283783256
-3.4047058 -1.4474112 5.2633133 4285224227
-3.3097496 -1.4091014 5.2431679 4285763491
-3.9296901 -1.4289782 5.7159128 4292859581
-3.8806453 -1.42409 5.6963601 4291808190
-3.2433543 -1.0617259 4.6541409 4286675802
-3.8378181 -1.4053981 5.7657361 4293455089
-3.7887452 -1.4118437 5.7188606 4290756772
-3.4758186 -1.386903 5.4791231 4286881713
-3.8623283 -1.3807356 5.9707489 4293520625
-3.4065132 -1.2417831 5.369873 4287077803
-3.1811459 -1.4769605 5.1937075 4287599507
-3.157001 -1.4808613 5.2074242 4288324003
-3.2199085 -1.3915184 5.1777425 4284827405
-3.1974273 -1.4578943 5.301434 4287459356
-3.2072444 -1.3310065 5.1315913 4286669325
-3.3040433 -1.4380291 5.4782062 4290163627
-3.2077641 -1.2029115 5.1324224 4288183324
-1.7821844 -1.3989189 6.1322474 4293914086
-1.6506958 -1.4040401 6.0715251 4292859316
-1.5933526 -1.4036678 6.0699148 4292925373
-1.5203456 -1.4063196 6.0813823 4292991426
-1.3262466 -1.4031305 6.1507092 4293386444
-1.2892411 -1.4046954 6.1575689 4292925367
-1.1837064 -1.4128108 6.1094522 4291545539
-1.0190804 -1.4036391 6.1529384 4293123015
-0.96246874 -1.4052043 6.1597996 4293189064
0.55514705 -0.70318633 2.3686275 4291875024
0.55420381 -0.66504455 2.3646028 4292203988
0.57992446 -0.65867966 2.2910597 4292204503
0.58405554 -0.66952717 2.2792413 4292072144
0.57921273 -0.60781586 2.2882478 4292204246
0.58393389 -0.63378191 2.2787664 4292927453
0.57890451 -0.60034537 2.28703 4292204247
0.578803 -0.52163732 2.2866292 4290625214
0.582506 -0.51857239 2.2731941 4292993245
0.64994478 -0.5554074 1.8907485 4289170771
0.64944237 -0.53136194 1.889287 4290026858
0.65086472 -0.49110699 1.8934245 4291807676
0.65194094 -0.44050059 1.8794693 4289894751
0.65267628 -0.55943686 1.8647895 4292073434
0.66713631 -0.50855476 1.7498658 4288914594
0.65199471 -0.52392435 1.8628421 4291416279
0.65698487 -0.49273863 1.7519596 4290425767
0.65141249 -0.4554123 1.844708 4292007642
0.66649473 -0.42807382 1.7339699 4289704369
0.65133584 -0.43806657 1.8444908 4292402143
0.66067213 -0.39858732 1.7472321 4290688938
0.67110223 -0.42755708 1.7318767 4292073433
0.67151517 -0.4115738 1.7329423 4292073433
0.75554901 -0.35039955 1.1679984 4290623928
0.75483674 -0.32818991 1.1668974 4290953409
0.75532985 -0.30286172 1.1676596 4291281858
0.75460291 -0.33739457 1.1609275 4290160270
0.7551983 -0.32676849 1.1618435 4290359458
0.79808885 -0.33374625 1.1608565 4288389027
0.81345558 -0.32390991 1.1778542 4288456366
0.75732607 -0.28988558 1.1595423 4290096543
0.75881964 -0.27956513 1.1618291 4290426291
0.91162616 -0.32851392 1.3140557 4288588210
0.82915127 -0.28758851 1.195173 4288588466
-7.0145736 -1.2208909 7.1033654 4286873719
-6.9113555 -1.2325985 7.0434198 4287268478
-7.1027703 -1.1950693 7.2155128 4283909673
-7.0928168 -1.1971953 7.2283487 4285226313
-6.7974176 -1.2138245 7.062252 4287531649
-7.1051493 -1.1490175 7.5037875 4285160775
-7.0929208 -1.1508381 7.5156779 4285820772
-4.8664293 -1.3496739 6.0830369 4293649341
-4.8762865 -1.3263499 6.2416463 4293649342
-4.9415884 -1.3098186 6.350636 4290295987
-4.8813486 -1.3187515 6.2985144 4293649598
-4.8939657 -1.2983992 6.3921189 4293649342
-4.8303885 -1.2881037 6.4405184 4292927971
-3.4218469 -1.0573947 4.699532 4290495152
-3.14343 -0.93751419 4.4118314 4280953394
-3.1920762 -0.90809059 4.4028635 4288653228
-3.1291616 -0.84351313 4.3536162 4282203451
-3.1817071 -0.77132297 4.4075599 4286553006
-3.1322875 -0.74902529 4.3579655 4282729284
-3.2193413 -0.75257325 4.4596934 4285499030
-3.1378522 -0.66849893 4.3657074 4285631131
-3.241343 -1.022045 4.6722059 4286675803
-3.3127964 -0.98934191 4.7968092 4286675803
-4.4954157 -1.2578915 6.5987754 4291412401
-3.3466148 -1.170491 5.2754521 4283389015
-4.3018141 -1.2884661 6.6501474 4291018422
-3.2508655 -1.0189281 5.1755075 4285228092
-3.4548059 -0.94652212 5.0481181 4289169442
-3.5601933 -0.92301303 5.2743602 4288248348
-3.3107305 -0.80122697 4.8375969 4279047702
-3.4581981 -0.79183042 5.1711373 4284105498
-3.4318707 -0.91184968 5.3053074 4286225333
-3.3488445 -0.91480637 5.2274647 4281877840
-3.3905888 -0.88450146 5.2414899 4281745998
-3.2951083 -0.83177501 5.1186152 4285687126
-3.1751931 -1.1430695 5.0803089 4285028633
-3.3613782 -1.0420272 5.3782048 4291080836
-3.3906436 -1.0171931 5.4250298 4290355826
-3.6398709 -0.94636643 5.8237934 4290492591
-3.8689983 -1.1446741 7.3259139 4288650123
-3.4714775 -1.2008256 6.9866214 4289900456
-3.44981 -1.2008833 6.9869571 4290032042
-3.5064712 -1.1908771 7.0570493 4289176471
-3.4605892 -1.1902664 7.0534301 4289044368
-3.2602754 -1.1954342 6.9552536 4290624694
-3.2654252 -1.1773301 7.1084085 4288715661
-3.2410216 -1.1765354 7.1036096 4288846733
-1.8283819 -1.3565414 6.2912068 4293914603
-1.8639286 -1.322788 6.4135175 4292926141
-1.8323408 -1.3543389 6.3733592 4294309365
-1.8585594 -1.3333143 6.4645543 4293980396
-1.3369516 -1.39508 6.2003555 4294309365
-1.281106 -1.3975701 6.2114229 4294309364
-1.1844587 -1.3980496 6.2135539 4294309365
-1.0087776 -1.396769 6.2078624 4294243572
-0.91373503 -1.3706025 6.3564177 4294309622
-0.91630477 -1.3439138 6.5159454 4294112244
-0.84141397 -1.3003671 6.1193743 4290559155
-0.84583819 -1.2687572 6.1515503 4290690740
-0.99181855 -1.2936764 6.8996072 4294112244
1.102325 -1.3184671 6.9165487 4292597181
1.1463447 -1.3374021 6.7931538 4294111985
1.2168242 -1.3846619 6.7135124 4294309366
1.0938618 -1.3126341 7.0007153 4292597181
0.57897758 -0.51464677 2.2873189 4290033851
0.58387852 -0.47707146 2.2785504 4292270297
0.57971001 -0.47235632 2.2902124 4286545529
0.58364809 -0.45553023 2.2776511 4292270296
0.57867324 -0.42864686 2.2861166 4286940031
0.58306164 -0.41951996 2.2753625 4292204503
0.57736909 -0.38491273 2.2809644 4287269254
0.58062488 -0.35403955 2.2658532 4290362557
0.65213829 -0.39363301 1.8800383 4291807160
0.65260637 -0.38215688 1.8813877 4292136644
0.65273118 -0.35282764 1.8817475 4292795607
0.65329379 -0.31781861 1.8833696 4292927194
0.65610498 -0.38560554 1.8416982 4292270555
0.66037726 -0.37657875 1.7464522 4291347384
0.65656048 -0.36859536 1.8429768 4292073434
0.65915865 -0.3486459 1.7432295 4292071111
0.6732012 -0.36374584 1.7372935 4291217609
0.67191219 -0.34137473 1.7339669 4289769906
0.6564967 -0.34552458 1.8427978 4292402656
0.66023165 -0.30846888 1.7317551 4290623402
0.65394413 -0.28610057 1.8684119 4292004798
0.66222364 -0.26381266 1.7228582 4289505441
0.66955853 -0.31858027 1.727893 4289046182
0.68009591 -0.27846447 1.7136275 4291676090
0.68638921 -0.26927575 1.6895734 4288388513
0.75791019 -0.24541855 1.1549108 4290427058
0.75773573 -0.22983453 1.1491727 4289832334
0.8443467 -0.25368264 1.2116185 4288719797
1.1328928 -0.30851099 1.6184183 4288720054
0.75779027 -0.21548538 1.1492554 4290227874
0.75802982 -0.17878062 1.1441959 4289832859
0.82833415 -0.21078146 1.1833345 4288720054
1.3853089 -0.3078464 1.970217 4288983484
1.8037035 -0.39904946 2.5539165 4290362814
-6.8056579 -0.92902631 6.9136839 4284313225
-6.8126707 -0.93294537 6.9428492 4284832075
-6.7478118 -0.89970827 6.8549204 4287138186
-6.8763504 -0.92863894 7.0753441 4284700750
-7.0940795 -1.1238146 7.4920974 4282396196
-7.1291022 -1.1281744 7.6811876 4285687894
-6.8396177 -0.91046858 7.1060963 4284569161
-6.8443656 -0.88387507 7.2523084 4284503370
-7.1347113 -1.1125314 7.7393484 4284633915
-7.1621313 -1.0904284 7.930388 4285555533
-6.8886933 -0.86108667 7.4472356 4284699976
-7.2616987 -1.070145 8.1534863 4282858798
-7.1294355 -1.0794568 8.0331669 4286676342
-7.1874056 -1.0666821 8.1271019 4285885530
-7.245523 -1.0085343 8.4929209 4285028414
-6.8614793 -0.84304857 7.4937654 4284831563
-6.9772005 -0.8449896 7.7256193 4284897613
-7.0288606 -0.80329835 8.0329838 4285158723
-7.0047293 -0.78392279 8.0921059 4285884507
-6.9456697 -0.74417889 7.9379077 4287464308
-6.9607711 -0.76212823 8.1293678 4285884764
-7.3094931 -1.0016713 8.6631031 4285357381
-7.1873183 -0.99973983 8.6463985 4287400063
-7.3199396 -0.98695815 8.7729607 4285555273
-7.3185968 -0.97026843 8.871026 4285687377
-7.0312462 -0.73735917 8.4269619 4286147936
-7.1403594 -0.71130025 8.7544641 4285556058
-7.3293176 -0.93747091 9.0906267 4285885018
-7.3823118 -0.9045521 9.3373117 4284700221
-7.1820803 -0.69593799 8.9080067 4285358935
-7.4189887 -0.89027864 9.4963055 4284831810
-4.4515171 -0.92499053 6.1666036 4289177765
-3.1374669 -0.65477574 4.3651714 4285169807
-5.2639399 -0.95708001 7.292038 4287996071
-3.1712852 -0.55393624 4.4314899 4285367445
-7.038301 -0.93654805 9.0816784 4287663494
-7.0239677 -0.9072625 9.3652906 4287531650
-7.3791361 -0.86637622 9.5600138 4284832327
-7.3670721 -0.8253566 9.7820044 4284438091
-3.1098771 -0.46375361 4.3647399 4286026407
-7.3725152 -0.78098679 9.9966307 4284437829
-3.0802429 -0.40708056 4.3421926 4282928464
-3.4686847 -0.77440405 5.1626935 4284038942
-3.1442113 -0.58953959 4.4917302 4280427042
-3.7572567 -0.7165001 5.592196 4288708646
-4.75775 -1.0926889 7.2845931 4290097576
-3.2484386 -0.6141327 5.1716437 4289036831
-3.2151928 -0.45099989 4.6554828 4279045389
-4.3658962 -0.69364703 6.5284429 4289173359
-3.2700813 -0.4161922 4.7564821 4279637532
-3.3909779 -0.47537073 5.070621 4287067212
-3.4292228 -0.53379411 5.1761856 4288840500
-3.4972129 -0.4783923 5.2788119 4284250768
-4.6142516 -1.0843492 7.3828025 4289899422
-4.9657173 -0.99314344 7.945148 4289440673
-5.2781129 -0.94950181 8.9364872 4290888123
-5.3003626 -0.89787561 9.2683935 4292991415
-5.262084 -0.89628905 9.2520161 4293059041
-5.3828077 -0.88242739 9.4125595 4289704626
-5.201848 -0.88166916 9.4044704 4291150781
-4.3111734 -1.0326164 8.260931 4291874505
-4.2374759 -1.0064005 8.4749517 4293585121
-4.247015 -0.99455416 8.6015491 4293718002
-5.0695753 -0.89293653 9.2174091 4294112244
-4.7362132 -0.88447362 9.1300497 4294178036
-5.1221838 -0.87808865 9.3662786 4291216831
-4.940196 -0.87179929 9.2991924 4291413954
-4.565433 -0.88455266 9.1308661 4294112243
-4.5078282 -0.88444728 9.1297789 4294177780
-4.7631955 -0.87131625 9.2940397 4291545540
-4.5807877 -0.86976987 9.277545 4290558389
-4.3416867 -0.88547564 9.1403933 4293190884
-4.4174204 -0.87185925 9.2998323 4290229680
-3.3905227 -0.78484327 10.045994 4287400313
-2.4239721 -0.87263 10.342281 4291414210
-2.3485241 -0.88863075 10.15578 4292006092
-2.1402745 -0.88128948 10.07188 4291348418
0.6766941 -0.95352346 9.842823 4293980400
0.72290784 -0.89502877 11.015738 4291084988
0.88766098 -0.92180175 10.925058 4294177780
0.98140591 -0.95166636 9.5166636 4293716707
1.1345556 -0.95541525 9.5541525 4292926674
1.0765706 -0.90835649 10.765706 4294112244
1.3248332 -0.90646476 11.156489 4291611593
1.2127831 -0.97022647 9.7022648 4292926673
1.4252017 -0.99144459 9.9144459 4292860879
1.406656 -0.91432637 11.253248 4293059297
1.5788667 -0.92672616 10.983421 4293980397
0.56517065 -0.32193264 2.2892988 4289307807
0.58014035 -0.33959433 2.2639623 4289111716
0.56411332 -0.27848631 2.2850161 4289701786
0.58320987 -0.28809163 2.2485201 4292204504
0.56340551 -0.25674173 2.2821488 4289768096
0.58151197 -0.23820972 2.2419739 4292204504
0.56620854 -0.2123282 2.2648342 4287926669
0.58388829 -0.17377628 2.2243364 4292072918
0.62817794 -0.23477359 2.0304742 4290228384
0.65458876 -0.25357944 1.8871027 4288517759
0.64028001 -0.24626155 1.9700923 4291676605
0.64917976 -0.25245878 1.9234955 4291544504
0.61308277 -0.22413778 2.1095321 4290821038
0.6234287 -0.23137558 2.0566719 4290294435
0.60722637 -0.20018454 2.1353016 4291216835
0.63670832 -0.22253883 1.9781229 4290624184
0.65496337 -0.25730705 1.8713239 4290886051
0.66376793 -0.25313184 1.8000486 4288849324
0.65775603 -0.23450431 1.8302777 4290231230
0.66013008 -0.20394261 1.7174115 4291281074
0.67868829 -0.25651211 1.7100807 4290294701
0.67072284 -0.1969583 1.7034231 4291086280
0.65636265 -0.1800641 1.8587261 4292005055
0.66021866 -0.18786711 1.7176421 4291544509
0.65848815 -0.15894541 1.816519 4292138972
0.66172171 -0.16139553 1.7215524 4292071624
0.67016548 -0.17020077 1.7020077 4289835956
0.67008942 -0.15954509 1.7018144 4288585374
0.7567032 -0.15986687 1.136831 4289897354
0.75630814 -0.15196845 1.130928 4287532940
0.75685543 -0.14568579 1.1370598 4289833113
0.75608492 -0.13425806 1.1305943 4289898381
0.89855736 -0.18769865 1.2779483 4288785589
1.6442635 -0.32012209 2.3281608 4290362040
0.80127573 -0.14957146 1.1395922 4288719284
0.80979979 -0.13257785 1.1466192 4288457395
0.75824487 -0.12815405 1.1391472 4290427061
0.75834233 -0.10985333 1.1339698 4290029977
0.75981295 -0.10344871 1.1415031 4290821564
0.75917983 -0.10642709 1.1352222 4290161564
0.79814643 -0.12770343 1.1351416 4287465857
0.84995013 -0.11607249 1.1981676 4288062122
0.80588782 -0.09940467 1.1360533 4288391347
-7.103601 -0.62359858 8.6761541 4286804047
-7.2046232 -0.67808217 9.0410957 4285095249
-7.1669464 -0.65412605 9.1008844 4284766542
-7.2838416 -0.62432927 9.5135889 4284043592
-7.3693838 -0.60904002 9.7446404 4282265384
-7.0686455 -0.40724707 9.3085041 4283851123
-7.3863053 -0.51887268 9.7670155 4282266409
-7.3313394 -0.6834299 9.9407988 4285358675
-3.1083376 -0.29011151 4.4207468 4283393399
-7.2700882 -0.55449831 9.8577471 4285885792
-6.8534646 -0.54827714 9.7471495 4287203200
-7.1181231 -0.35151225 9.3736601 4283520092
-7.3412743 -0.36403012 9.7074699 4282200614
-7.1854577 -0.11779438 9.4235506 4284180345
-7.3295965 -0.091619954 9.7727957 4283518279
-3.2062507 -0.27195877 4.580358 4283656830
-3.5204518 -0.34226614 5.2154841 4283910978
-3.5390835 -0.2697956 5.0785055 4283853437
-3.3780937 -0.27892518 4.9586697 4284106535
-4.7605982 -0.49402434 7.1858082 4287663238
-3.6127784 -0.19706064 5.2549505 4284705131
-6.8426104 -0.38369775 10.23194 4287266928
-6.7378473 -0.062677644 10.028423 4286938220
-6.1239214 -0.64124829 10.259973 4287661944
-6.0712748 -0.44501489 10.171769 4288648840
-6.063117 -0.38092881 10.158102 4288912270
-6.0547485 -0.063070297 10.091248 4288582789
-5.3840771 -0.25486755 10.194702 4289570715
-5.4044156 -0.19074407 10.173018 4288649356
-4.3367534 -0.42072982 10.356426 4287729805
-4.4910312 -0.031851284 10.192411 4290033074
-4.334691 -0.22476175 10.274823 4289111975
-4.3035097 -0.22481021 10.277039 4287860876
-4.3797612 -0.095907174 10.230099 4288456109
-4.3017793 -0.19261697 10.272905 4287795339
-4.1671433 -0.62837875 10.58322 4287925634
-3.4872246 -0.66423327 10.627732 4287991942
-3.4888473 -0.59808809 10.632677 4287860099
-4.0383697 -0.032567497 10.421599 4289768614
-3.6877122 -0.22844236 10.443079 4287663754
-3.4438183 -0.29518443 10.495446 4288912788
-3.6831601 -0.19556603 10.430188 4287663753
-3.4242637 -0.16306019 10.435852 4289176217
-3.4894257 -0.6710434 10.736694 4288913560
-3.4859672 -0.60334051 10.726053 4288847509
-1.1865058 -0.35155728 14.062291 4293190625
-1.189275 -0.33299702 15.22272 4290098866
-1.3709508 -0.14688759 15.668009 4291348934
-1.3613861 -0.157083 16.755522 4291216834
1.2874053 -0.83507377 11.134316 4290295213
1.2788086 -0.60388184 11.367188 4288716697
1.022537 -0.28207919 11.283168 4289571490
1.2609057 -0.24517611 11.208051 4288979869
1.05703 -0.21140596 11.274985 4288321167
1.2635056 -0.21058425 11.23116 4288979612
1.439167 -0.84243929 11.232523 4290426799
1.7718887 -0.70875549 11.340088 4287137404
1.8411728 -0.70814335 11.330294 4287203197
1.8711525 -0.45046264 11.088311 4288848026
1.6695013 -0.27825022 11.130009 4288189067
1.6279119 -0.17318213 11.083656 4289899941
1.8782797 -0.34782958 11.130547 4288913819
1.8677835 -0.2075315 11.068347 4288913819
0.5650143 -0.14831625 2.2600572 4289110685
0.58465046 -0.16008286 2.2272398 4292204504
0.56531358 -0.12719555 2.2612543 4288978580
0.5844748 -0.12524459 2.2265706 4292138454
0.5649783 -0.084746741 2.2599132 4289373597
0.5848425 -0.048736874 2.2279713 4290230456
0.56896281 -0.042145394 2.2477543 4287795083
0.58504903 -0.034824349 2.2287583 4288914338
0.65859544 -0.13626114 1.816815 4291349711
0.66264051 -0.12929572 1.7239429 4292401109
0.65562904 -0.080515847 1.8403622 4291807418
0.6628232 -0.096998513 1.724418 4292467162
0.6626296 -0.11221953 1.7100118 4290689455
0.67179877 -0.084636062 1.6927212 4289770162
0.65840864 -0.056274243 1.8007758 4291810520
0.66133112 -0.039231509 1.7934403 4292861143
0.6561628 -0.011411527 1.8258443 4290488450
0.66207707 -0.0056108227 1.7954632 4291414989
0.66372478 -0.042478386 1.6991354 4290426024
0.67471993 -0.0052712495 1.6867998 4289441197
0.76020634 -0.078518964 1.142094 4291018167
0.75897115 -0.06707187 1.1296315 4289568132
0.75972641 -0.045724273 1.1255206 4289569159
0.96071053 -0.0884865 1.3483657 4288325554
0.82159662 -0.061259396 1.153118 4288192420
0.76024193 -0.031676747 1.1262844 4290030236
0.75983083 -0.0035015247 1.1204879 4289830789
0.85667306 -0.041150235 1.1970977 4288127919
1.2640753 -0.010991959 1.7587135 4287930538
-7.1155267 0.14521483 9.2937489 4284313220
-7.2914772 0 9.6816292 4282726434
-7.1129317 0.20322661 9.2903595 4283851379
-7.1765261 0.32620573 9.4896212 4285091618
-7.0507369 0.30522671 9.7672548 4284241484
-6.9976339 0.30557355 9.7783537 4284241484
-7.1158533 0.49174595 9.2563944 4283262332
-7.1836166 0.35621238 9.4989967 4285552162
-7.1058607 0.54882663 9.2433958 4283261561
-7.1790099 0.53397596 9.4929056 4286211650
-6.7958159 0.36244354 9.6651611 4284766276
-6.7032447 0.6852206 9.5335035 4286739801
-6.7234406 0.093815461 10.006982 4287398771
-6.5855951 0.33078331 9.6227875 4283652701
-6.4616861 0.29777354 9.5287533 4285227605
-6.1452489 0.29687193 9.4999018 4285424728
-6.1041598 0.29631844 9.4821901 4285424728
-6.6007209 0.36003932 9.6010485 4285300614
-6.4880614 0.50828135 9.5676489 4283645212
-6.5866585 0.68860519 9.5805941 4282863183
-6.4879341 0.53816962 9.5674601 4283381789
-6.341362 0.50850546 9.571867 4283389539
-6.0435872 0.35550514 9.4801369 4287918638
-6.3499632 0.5691005 9.5848503 4283191129
-5.9988341 0.68643373 9.5503826 4286286994
-6.0320921 0.094251439 10.053487 4288912269
-5.8920217 0.30061334 9.619627 4285227350
-5.7257419 0.30294931 9.6943779 4283252530
-5.7003617 0.30321074 9.7027435 4283253298
-5.3866291 0.30432934 9.7385387 4283779385
-6.0257025 0.36335897 9.6895723 4283848277
-5.8097191 0.51440221 9.6828651 4285555022
-6.033051 0.57313985 9.6528816 4285165680
-5.7722378 0.5742017 9.6707649 4283519837
-5.5309253 0.47835031 9.5670061 4286473259
-5.4474654 0.48154393 9.6308784 4287075482
-5.5150623 0.68565637 9.539567 4287590965
-5.4553328 0.54251927 9.6447868 4286811796
-5.3752451 0.095418558 10.177979 4289899683
-5.3562131 0.30433029 9.7385693 4283910458
-5.1120315 0.30428758 9.7372026 4286477673
-5.032342 0.2516171 10.064684 4287855171
-4.9966512 0.25299498 10.1198 4288782492
-5.3983183 0.52142847 9.8151236 4286411364
-5.0048866 0.36399174 9.7064466 4288576827
-5.0608921 0.60974604 9.7559366 4287195178
-5.0297689 0.46286219 9.8743935 4284242517
-4.9468818 0.5322594 10.019001 4285685826
-5.0441999 0.55702817 9.9027233 4284110417
-4.9432936 0.56316006 10.011734 4285554498
-4.4838543 0.031800386 10.176124 4288456623
-4.462184 0.25317356 10.126943 4288456365
-4.4496217 0 10.170564 4286480768
-4.3512564 0.34434405 10.017282 4288390572
-4.7849827 0.48170966 10.276473 4288715406
-4.7503409 0.6695112 10.202075 4288517513
-4.3235855 0.37596396 10.025705 4288325292
-4.2626371 0.59992677 10.10403 4287466375
-3.9682622 0.16131146 10.323934 4287727217
-3.9507725 0.12953353 10.362682 4289966250
-3.9651947 0.19342414 10.315953 4287727214
-3.9372017 0.19363287 10.327086 4290031786
-3.6901774 0.097109929 10.358393 4288980388
-3.437161 0.065469727 10.475157 4289439646
-3.6915278 0.22667277 10.362184 4288651165
-3.4548519 0.22815061 10.429742 4288386187
-4.0226874 0.38311309 10.21635 4289308318
-4.0251331 0.57049131 10.142068 4288913043
-3.8955173 0.73440087 10.217751 4288061348
-3.6923435 0.38866776 10.364473 4288387992
-3.4229469 0.54896319 10.333425 4288518029
-3.7160232 0.57662427 10.251099 4289505955
-3.5439525 0.74100822 10.30968 4286216306
-2.8527539 0.92413151 12.857482 4290888643
-2.0543752 0.052676283 16.856411 4294309365
-2.0041873 0.052741773 16.877367 4294243829
-1.6622 0.053619355 17.158194 4292861918
-0.45025849 1.100632 16.009192 4290163887
-0.19020802 1.0936961 15.216641 4291150782
1.0598322 0 11.304876 4288715667
1.2585146 0 11.186797 4288913563
1.0469526 0.20939052 11.167495 4288781460
1.2475772 0.20792952 11.089575 4288848026
1.0514754 0.42059022 11.215738 4289110681
1.2836833 0.55510628 11.102126 4290229424
1.2786086 0.69113976 11.058236 4289966509
1.6571882 0 11.047921 4288649872
1.6451845 0.23992273 10.967896 4288781201
1.8719366 0.034665491 11.092957 4288716183
1.8539689 0.27466205 10.986482 4288716183
1.6500517 0.41251293 11.000344 4289307802
1.8729572 0.54486024 10.897205 4289506213
1.8765976 0.68239915 10.918386 4289571751
0.56727612 0.014006819 2.241091 4288583566
0.58958209 0.0069362605 2.2196033 4291875795
0.56605667 0.048918478 2.2362733 4288780947
0.58968377 0.048562191 2.219986 4291875795
0.56606424 0.083861366 2.2363031 4288913304
0.58914983 0.10396762 2.2179759 4289901748
0.56492066 0.12553792 2.2317853 4289176479
0.58859885 0.12464447 2.2159016 4287993493
0.65873659 0.017184433 1.8330061 4291609782
0.66225863 0.028061807 1.7959557 4291810263
0.65861332 0.034362435 1.8326632 4292071111
0.66222632 0.033672523 1.7958679 4291875800
0.66482598 0.026381981 1.6884469 4289570456
0.68082315 0.058054686 1.6888636 4290691010
0.68518239 0.057976972 1.6866028 4292532179
0.65832508 0.068102591 1.8160691 4289236297
0.66025925 0.067145005 1.7905335 4290033854
0.63445914 0.12579794 1.7502322 4292577875
0.6425848 0.1097096 1.6717653 4286598725
0.65758336 0.076463178 1.6312145 4290277490
0.66941732 0.076070152 1.6228299 4290201405
0.64287972 0.1088748 1.6590445 4288370765
0.67831886 0.11054085 1.607867 4288506221
0.68120921 0.1152045 1.6028452 4291084744
0.68792564 0.10295486 1.4975252 4291413700
0.69299108 0.10163869 1.4783809 4289837507
0.75983095 0 1.120488 4289963925
0.76026845 0.0348747 1.1159904 4289963925
1.0222975 0 1.4223269 4287930023
1.6990719 0.044131737 2.3536928 4289309094
0.76069844 0.041873313 1.1166216 4289633665
0.76188993 0.066100046 1.1132638 4289568386
0.76044375 0.058761559 1.1061 4287334275
1.1927999 0.061963629 1.6523635 4287996074
0.7597689 0.075976893 1.1051184 4287925636
1.7941736 0.069601558 2.4747221 4289374886
1.7963865 0.10065959 2.4777746 4289769386
-7.0963387 0.99747735 9.1197929 4286018671
-7.0954843 1.0543491 9.1186943 4286018671
-7.1424837 1.3481796 9.1790953 4283784551
-7.1177011 0.83568144 9.2213125 4282735217
-7.1649437 0.71057296 9.4743061 4286411358
-7.119586 1.0047803 9.1865625 4284179310
-7.210978 0.89763212 9.5747423 4284176463
-6.707839 0.77512807 9.5400381 4286540354
-6.8009949 0.99306566 9.6297274 4285620032
-7.1302924 1.0350425 9.2003775 4283785326
-7.1340165 1.2086556 9.4334097 4284111444
-7.1625123 1.213006 9.241951 4282077030
-7.1767206 1.2752025 9.4898787 4282332969
-6.7962317 1.0825856 9.622983 4285885793
-6.7395983 1.2279776 9.1384382 4282595626
-6.5383043 0.82838249 9.4672279 4283982690
-6.5634017 0.89095956 9.5035686 4282402633
-6.5092149 1.0547339 9.643281 4283514918
-6.1656852 0.86379164 9.5314941 4281872934
-5.9817014 0.8332718 9.5231066 4285562240
-6.169364 1.0133255 9.5371809 4284434987
-6.0041432 0.89614075 9.558835 4284705644
-6.2791953 1.1131301 9.1333752 4281742129
-6.4896469 1.1609919 9.5260868 4281413164
-6.3819327 1.1795989 9.6787605 4281873972
-6.11444 1.1559638 9.7344322 4283718233
-6.0546894 0.75683618 9.6875029 4282334518
-6.0527039 0.90790558 9.6843262 4282268209
-5.8611078 1.0574163 9.6678066 4285096010
-5.5016146 0.74346149 9.5163069 4287458858
-5.4332409 0.72042978 9.6057301 4285888113
-5.4779716 0.88831979 9.4754105 4287461977
-5.4461703 0.89772046 9.5756845 4286745741
-6.0476904 1.1912117 9.774045 4283321420
-5.8755255 1.0903037 9.6915884 4285029961
-5.4494653 1.0604365 9.4261017 4288780422
-5.4352021 1.0750949 9.5563993 4286611317
-5.0402699 0.75907677 9.7161827 4287853362
-5.0502071 0.91268808 9.7353392 4287919677
-5.0410609 0.79919261 9.8362169 4286547075
-4.9071727 0.86962557 9.9385777 4284832072
-5.0337691 0.92081147 9.8219891 4285954681
-4.9473963 0.93937892 10.020042 4285161554
-5.0550175 1.1029129 9.8036699 4286942094
-5.0644007 1.1116978 9.8817577 4284045403
-3.4396775 0.89926207 7.1940966 4285030483
-4.7442737 0.76417828 10.189044 4288649099
-4.7740936 1.0893905 10.253087 4288781459
-4.2792749 0.75516623 10.068883 4288322459
-4.2816629 0.94448453 10.074501 4287532684
-3.4565747 0.91705036 7.5245161 4291470626
-3.3220532 0.9101516 7.2812123 4287199830
-3.1936228 0.95129186 7.2479382 4283514936
-3.2055802 0.91588002 7.3270402 4285622359
-3.174998 0.9477607 7.5820851 4285820519
-3.1342435 0.95390016 7.2678108 4283383861
-2.9855583 0.97204226 7.4060364 4283514933
-3.8667812 0.7989217 10.226198 4284310619
-3.8772492 1.1032822 10.087152 4287929251
-3.8567379 1.1064413 10.116034 4285164123
-3.6703231 0.85429937 10.12503 4287203204
-3.5397477 0.80448818 10.297448 4286216306
-3.5742562 1.0121787 10.121787 4287465360
-3.3989539 0.99403369 10.260993 4288123530
-3.0439239 0.96632499 7.7306004 4285490772
-2.9600101 0.99496138 7.959691 4285425239
-2.9267857 0.98339999 7.4925714 4283646520
-2.8040049 1.0065658 7.6690731 4284107069
-3.4923549 1.1741538 9.6340828 4287203466
-2.6913035 1.0252584 8.2020674 4285490777
-2.6221864 1.0283084 8.2264671 4285556828
-2.6729157 1.090986 8.7278881 4285688925
-2.5786345 1.105129 8.4200306 4283448875
-2.6766312 1.2614009 9.8450804 4284702550
-2.7912579 1.3307159 10.386076 4286807668
-2.6064291 1.2882349 9.5868654 4284176465
-2.7473412 1.4695081 10.222665 4285622619
-2.7506382 1.013393 11.581635 4291940038
-2.8308752 1.156273 12.758874 4290822850
-2.7810624 1.0977877 11.709736 4291874244
-2.7480614 1.3546782 12.385629 4290757056
-4.0194573 1.7141802 18.915092 4291083179
-4.0164137 2.0672717 18.90077 4289700230
-2.7312932 1.2937706 11.500182 4291545019
-2.6895318 1.401587 12.121834 4290691518
-2.7642379 1.7322557 11.794082 4289770160
-2.7669377 1.7677658 12.297502 4287598733
-3.7285104 2.0287483 17.545931 4289437056
-3.8702722 2.5593734 19.975597 4290359195
-3.0100002 2.021642 14.376121 4284767053
-4.6124201 3.8032234 25.894287 4288518288
-4.1891632 2.3820729 26.284945 4292203212
-3.8521695 2.4285417 26.797701 4285954157
-4.1772709 2.5391254 26.210327 4292532433
-4.2250171 2.5867453 27.591949 4287336331
-3.6002743 2.4859037 27.430662 4285756521
-3.3245895 2.5371869 27.996544 4291807939
-3.4102433 2.6232638 27.981482 4288255370
-3.336946 2.7222455 28.100597 4292268746
-3.8870945 3.0420737 27.040657 4288125573
-4.5369959 3.8078358 25.92569 4289900712
-3.4543793 3.1089416 27.635035 4290164656
-3.2683284 3.0963111 27.522766 4292466125
-1.9761584 2.7666216 25.294827 4287203458
-0.97546178 1.7680244 19.509235 4288321682
-0.44709301 1.1922481 15.896641 4287400840
-1.0206271 2.2326217 20.412542 4289506213
-0.5031547 1.710726 16.10095 4289243298
-2.1931305 3.0366421 26.992374 4292467156
-2.1954978 3.5465732 27.021509 4290493361
-1.0450656 2.4167142 20.901312 4290032301
-0.50248134 1.9094292 16.079403 4289045919
-1.0915471 2.8653111 21.830942 4289176471
-0.50177145 2.1074402 16.056686 4288782746
-0.24598405 1.2299201 15.742979 4288519320
-0.24798051 1.5870751 15.870751 4288979868
-0.24798098 1.785463 15.870782 4289045404
-0.084845461 1.6969092 13.575274 4288452231
1.2743218 0.82658708 11.021162 4289900459
1.8725891 0.81712973 10.895063 4289440421
1.8831837 1.027191 10.956705 4289308578
0.56412959 0.16714951 2.2286601 4289374115
0.59271586 0.16540907 2.2054543 4290954693
0.56347227 0.20869343 2.2260633 4290427063
0.59199995 0.20651162 2.2027905 4290822594
0.56278139 0.27096882 2.2233338 4290098612
0.5912863 0.2475152 2.2001352 4289046181
0.56249583 0.29166448 2.2222056 4290098354
0.59525102 0.30788845 2.189429 4291151561
0.59854859 0.27886924 2.1765404 4290953140
0.5985558 0.2992779 2.1765666 4291150528
0.62879848 0.2858175 2.03248 4289769652
0.64201814 0.25310332 1.9754404 4291150264
0.65534675 0.24650657 1.9239538 4291084727
0.6422106 0.27523312 1.9572134 4289572275
0.65629518 0.2660656 1.892022 4288716967
0.63815272 0.13203159 1.7604213 4292513888
0.63362986 0.12672597 1.6896796 4284111441
0.63778555 0.17988823 1.7443708 4291855175
0.63161439 0.18734325 1.7128526 4290201408
0.64343464 0.15048069 1.6604766 4287007096
0.67781645 0.1205007 1.606676 4287509044
0.64283609 0.15552486 1.6589319 4284044609
0.67811114 0.15571441 1.6073745 4287573299
0.63862908 0.19650126 1.7466779 4292051010
0.64089024 0.21363008 1.6673567 4291509299
0.67275351 0.25875136 1.8400097 4286677378
0.67322862 0.24630316 1.7514892 4289835446
0.65450329 0.20294675 1.623574 4290856238
0.68088353 0.18156894 1.6139461 4286906381
0.67725044 0.24577637 1.747743 4291283406
0.70183909 0.23746435 1.6886353 4289045413
0.68033606 0.12506178 1.6007907 4290953159
0.68768156 0.11227454 1.4969939 4291348165
0.68314552 0.17580952 1.6074013 4288772733
0.68809444 0.13482931 1.4877717 4290095509
0.6881755 0.13949503 1.487947 4290096022
0.68373895 0.18098971 1.6087976 4288641921
0.68535864 0.21010995 1.6008377 4287790981
0.6905219 0.21636352 1.4731134 4290489493
0.76185119 0.086969316 1.1132072 4289965739
0.76229799 0.10442438 1.11386 4290163633
0.75968826 0.093234465 1.1050011 4289436289
0.76069003 0.10373046 1.1064582 4289437582
0.76056957 0.12502514 1.1113346 4290426293
0.76094121 0.13428375 1.1018153 4289173117
0.76095349 0.14461559 1.1018331 4289041788
-7.1832376 1.3847206 9.2314701 4283193190
-7.1415534 1.6854067 9.1411886 4283126883
-7.1522851 1.7451575 9.1549244 4281682271
-7.2452364 2.0205839 9.2369547 4282667102
-7.3192339 1.416626 9.4441729 4279635213
-7.32445 1.5948398 9.4509029 4280030742
-5.0104542 1.044733 6.8227463 4283974958
-5.0252609 1.1498477 6.8139129 4283514922
-7.1702118 1.7488321 9.3271046 4280423949
-4.8790941 1.2558006 6.5878067 4283584594
-7.1320062 1.9134651 9.2774067 4280423949
-4.8619065 1.2937262 6.6772962 4282790171
-4.804534 1.2951353 6.6845689 4283053088
-4.7969775 1.4536295 6.6451635 4283118114
-4.7198195 1.4346588 6.6534901 4288518800
-4.702424 1.3015637 6.7177482 4282987810
-4.5029006 1.2895631 6.7649212 4285360223
-4.659317 1.435236 6.656167 4290295472
-4.5385566 1.4431355 6.6928024 4290032043
-4.3992705 1.2964035 6.8008051 4284504911
-4.3809361 1.2972674 6.8053374 4284439115
-4.3985872 1.4379996 6.7670569 4284832591
-4.3666029 1.4414028 6.783072 4284832589
-4.2783794 1.3049057 6.845407 4284306759
-4.1510224 1.3052185 6.8470473 4284175170
-4.1588812 1.4502766 6.824831 4289110938
-4.0888782 1.4557264 6.8504767 4289899943
-4.0380249 1.3102102 6.8732338 4283315748
-3.8787639 1.3218133 6.934103 4282723874
-4.0255632 1.4560549 6.8520231 4290031530
-3.819592 1.4674138 6.9054766 4290097322
-3.4047208 1.1794131 7.1209841 4284435261
-3.3873928 1.2619698 7.084743 4283251498
-3.7180214 1.3263117 6.9577007 4282263834
-3.6965249 1.3264002 6.9581647 4282197526
-3.8032691 1.469445 6.9150352 4290031528
-3.583482 1.4551109 6.9497833 4284635207
-3.569891 1.3278253 6.965641 4282065430
-3.3764653 1.315506 7.0160317 4282860861
-3.5055709 1.5363921 6.9245844 4285096534
-3.3764763 1.2661785 7.1083708 4283514158
-3.1860206 1.2788956 7.1797647 4283251502
-3.1416109 1.2790844 7.1808248 4282988586
-3.0003152 1.2955906 7.2734914 4282725670
-3.3403404 1.3272877 7.0788674 4282860093
-3.2362962 1.3391569 7.1421704 4281677106
-3.0559855 1.3582157 7.2438173 4280030733
-2.9385104 1.366749 7.2893286 4280028416
-2.8502271 1.3453072 7.2965817 4282991165
-2.7341087 1.3442701 7.2909565 4281873714
-2.6794865 1.3397433 7.6556759 4283383090
-2.5335119 1.3840482 7.5067019 4280686093
-2.8675332 1.376416 7.3408852 4280028416
-2.8086638 1.3813101 7.3669872 4280423936
-2.4586179 1.4404024 7.9470477 4282067484
-2.6726553 1.6090475 8.7270374 4284766281
-2.6959131 1.6423378 9.9160023 4284110415
-2.7542634 1.6973947 10.248422 4285359706
-2.6977153 1.7685022 9.591877 4283385666
-2.7658744 1.8975185 10.291626 4285426015
-2.4607806 1.4913821 7.9540381 4282330400
-2.6739368 1.6643893 8.7312222 4284700235
-2.8002799 2.0365672 10.182836 4282860864
-2.759707 1.9253771 10.268678 4285426015
-2.7940826 2.2543168 10.1603 4283387207
-2.7481861 2.1090732 10.225809 4285886568
-2.7306914 1.7476425 11.65095 4289441710
-2.7044072 1.7542102 11.694735 4284572254
-2.509001 2.0430436 11.469719 4283652960
-3.1987753 2.4826317 15.277733 4285362804
-3.2821758 2.7162833 18.108557 4286018154
-2.2118833 2.0077095 10.889272 4285956222
-3.2255924 3.1709211 17.494738 4285364610
-2.4715409 2.1184635 11.298472 4283783247
-2.524123 2.524123 11.376329 4285427565
-2.1395054 2.0715845 10.867329 4287404690
-2.4960928 2.7499328 13.538131 4284047958
-2.145505 2.2476718 10.897803 4286486441
-2.691237 2.9603605 14.353263 4287401867
-3.3451984 2.8673129 19.115419 4285625204
-3.4979954 3.625195 20.351973 4284963922
-2.6949582 3.0799522 15.399761 4285426015
-2.4009528 2.9154427 13.71973 4289242522
-1.7560486 3.582339 22.477421 4285887342
-1.7426255 3.8079591 20.653337 4290164142
-1.4909567 3.2801049 19.084246 4286216269
-1.3655756 3.6187751 21.849209 4289045146
-1.3282219 3.6526103 21.251551 4287926663
-1.6421576 3.6492391 19.462608 4290032298
-1.5365067 3.5457845 18.910851 4287530595
-1.1235229 3.3705685 17.976366 4286610796
-0.43476343 3.0916512 15.458256 4288191127
-0.24454753 2.4454753 15.651042 4287334786
-0.19725935 2.9095755 15.780748 4289242526
-0.38481313 3.078505 15.392525 4286347894
1.2051924 1.8938739 11.018903 4287861651
1.1442538 2.4272051 11.095795 4287728771
1.4019376 2.5522454 11.503078 4287595636
1.7991962 1.9010376 10.863071 4290362302
1.5124094 2.4404788 10.999341 4288386187
1.553928 2.3984542 10.809934 4288584337
1.7472687 2.3856938 10.752422 4288386442
1.9247262 2.3561304 10.61918 4286675567
0.56252211 0.33334643 2.2223096 4290032562
0.59507895 0.33515939 2.188796 4290033073
0.59469432 0.40329847 2.1873815 4288059025
2.179996 2.418433 10.89998 4288123265
0.59382743 0.41636175 2.1841929 4287400063
0.59364349 0.45035022 2.1835163 4284505434
0.59872472 0.34698817 2.1771808 4291084471
0.59839261 0.40119505 2.1759732 4290558128
0.59866822 0.44219813 2.1769755 4289375401
0.59881324 0.46271929 2.1775026 4289243559
0.6702348 0.27496815 1.8331209 4290886059
0.66740263 0.29410964 1.8099054 4289305990
0.66690648 0.30780298 1.8240178 4291150264
0.66677117 0.30513257 1.808193 4289767320
0.66594154 0.35223353 1.7611676 4287994785
0.66363615 0.39037421 1.7845678 4288779393
0.69590545 0.24106529 1.4554886 4287797668
0.69738066 0.24000764 1.4491028 4289967803
0.69614089 0.2502467 1.4559809 4286417563
0.69744068 0.25361478 1.4492273 4289836733
0.69055194 0.29725748 1.4634213 4286085502
0.69681442 0.29411 1.447926 4287404973
0.69024366 0.30626708 1.4627681 4289570971
0.6969704 0.29870158 1.4482502 4287601836
0.76092613 0.17823496 1.0968305 4288384120
0.76062155 0.18844227 1.0963914 4289110686
0.76183826 0.21181154 1.0932208 4288515445
0.76265633 0.24173482 1.089509 4288516734
-6.9908743 1.8778076 7.2397404 4286676348
-6.9477754 1.8907061 7.2894692 4287137416
-6.9631782 1.9032686 7.4273901 4287793799
-6.2146082 1.7164156 6.3132524 4284444295
-6.7587557 1.8810775 6.9993587 4284443782
-4.4424582 1.2833768 4.5129733 4284105014
-4.4297309 1.2837756 4.5143757 4283048977
-6.8143363 1.9089022 7.1028914 4285226062
-6.9770103 1.970252 7.4174194 4285226061
-4.2079229 1.2692751 4.4148698 4283319619
-4.1898642 1.2625087 4.4395914 4282726707
-7.0597801 2.0136142 7.7633324 4285621851
-7.0646477 2.021951 7.7954731 4285226062
-6.9941111 1.9726979 8.198225 4285885543
-7.031424 2.0302 7.9227314 4285357648
-7.015017 2.0439439 8.0748396 4285226063
-7.0345879 2.0030692 7.6307397 4283974177
-7.1480255 2.1197593 7.8874764 4284175944
-6.6686621 2.15484 7.2584081 4287070842
-6.7713919 2.185853 7.6029668 4286216821
-7.1314597 2.1344159 8.0354481 4284110937
-7.1641669 2.1647124 8.2465229 4284506467
-6.7535338 2.1877644 7.6096153 4285955451
-6.7060165 2.2027061 7.8318443 4285560183
-6.962503 1.9856027 8.2518559 4286544506
-7.0490179 2.0795953 8.6424742 4286281072
-6.967382 2.0492301 8.1969204 4283514146
-7.0494995 2.1067472 8.6430645 4283844928
-7.0896668 2.1324389 8.8620834 4283055926
-7.2678461 2.0848002 9.2657795 4281681755
-7.0516863 2.1155057 8.678998 4282527008
-7.2226548 2.2552953 9.1353731 4281476630
-6.8125482 2.2453341 8.1648512 4285427050
-6.7770171 2.2590058 8.3089867 4285625975
-6.6753378 2.2087514 7.8533387 4286610547
-6.4931426 2.196928 7.8112993 4287071357
-6.7954154 2.2739522 8.4612179 4285558892
-6.8846107 2.3225193 8.8476925 4285098342
-6.9358206 2.3496861 9.0590315 4283584067
-6.8351402 2.3442836 9.0382023 4283387723
-4.7979364 1.5993121 6.6464915 4283249186
-4.6848702 1.4991585 6.6629267 4288715147
-4.7915697 1.7216461 6.6376719 4285880874
-4.7786689 1.6205921 6.6485829 4286146641
-6.8009405 2.3222725 8.8467522 4284638568
-4.9598856 1.8547472 6.6687541 4283782747
-4.9258146 1.9661865 6.6229444 4283258721
-4.7869635 1.7407141 6.6312919 4285880874
-4.6580563 1.8218176 6.6247911 4286739554
-4.9173894 1.9794575 6.6676464 4281672214
-4.5863023 1.5009716 6.6709847 4288846732
-4.5455089 1.501269 6.6723065 4288780683
-4.5795546 1.7199233 6.6310291 4288846733
-4.4554911 1.7200267 6.6314282 4288715147
-4.4019761 1.7234151 6.6444921 4288714889
-4.6328125 1.8200334 6.6183038 4286870885
-4.5005317 1.8167284 6.6062851 4286936936
-4.6610494 2.0127258 6.7797079 4281868828
-4.4966068 2.0055289 6.7554655 4282197532
-4.3874216 1.8211939 6.6225233 4286870630
-4.276155 1.805949 6.642571 4285356612
-4.394351 2.0167313 6.7932 4282859591
-4.2345915 2.0014241 6.7416387 4282201403
-4.1261239 1.5234919 6.7710748 4288517252
-4.0739107 1.5277164 6.7898507 4288912267
-4.0545974 1.725803 6.6536984 4288122233
-3.9642708 1.7226937 6.6417103 4289043596
-3.917768 1.5330397 6.8135095 4289175182
-3.7804828 1.5378234 6.8347712 4288912010
-3.908324 1.7254835 6.6524668 4289175182
-3.7279048 1.7285817 6.6644111 4289043854
-4.0477538 1.805921 6.642468 4286607715
-4.0081053 1.8067623 6.6455626 4288319624
-4.0816555 1.9884989 6.6981015 4282332986
-3.9750581 1.987529 6.6948342 4282728769
-3.8916829 1.8009384 6.6241412 4289109912
-3.6999886 1.7983185 6.6145048 4288978325
-3.846808 1.9969766 6.7266583 4283123527
-3.8248951 2.0075414 6.7622452 4283321161
-3.7609429 1.5385674 6.8380775 4288911753
-3.6751201 1.7331533 6.6820369 4288254079
-3.4940562 1.7576163 6.7763519 4286016863
-3.4938693 1.6390991 6.9014702 4284701521
-3.4909682 1.7023859 6.89574 4284438603
-3.6514401 1.8049732 6.6389818 4287135609
-3.565815 1.8038828 6.712122 4283581494
-3.643348 2.0240822 6.8179607 4284111451
-3.6094673 2.0289903 6.8344941 4284637795
-3.464576 1.7964466 6.8436065 4282728517
-3.4377358 2.032372 6.9187131 4281938740
-3.3519681 2.0460064 6.9651279 4282203704
-3.2966118 2.0521953 6.986197 4282269244
-3.1859577 2.0512331 6.9829211 4284638051
-3.0822101 2.0771415 7.1471539 4281676335
-2.9166873 2.0801179 7.2351933 4281609517
-2.7195528 2.0687196 7.4380932 4280030733
-2.8923469 2.0788743 7.2308674 4281742131
-2.7570014 2.0907261 7.3520041 4281742899
-2.63217 2.1104786 7.5882378 4281873720
-2.602952 2.1253462 7.6416941 4283189833
-2.638962 2.1018281 7.4731669 4283453260
-2.5905519 2.1195424 7.5361505 4285559154
-2.7055066 2.3352792 9.1132851 4283911739
-2.8090854 2.3987696 10.100082 4283056694
-2.7809572 2.3282433 10.347748 4286281841
-2.7885928 2.3945527 9.6994534 4283122225
-2.541528 2.1505237 7.820086 4283913555
-2.6485279 2.2935705 8.7374115 4284438341
-2.4616156 2.1302443 7.5742016 4288123789
-2.4619238 2.565949 11.095995 4285231993
-2.2926817 2.528693 10.78909 4286152317
-2.2417121 2.6900544 11.955797 4286215269
0.67661142 2.448689 10.310269 4289506217
0.93083203 2.5511694 11.032084 4286743169
1.0947338 2.5315719 10.947338 4287467150
1.3267779 2.5174761 10.886383 4287858032
1.4775591 2.4849858 10.745884 4287533200
1.553789 2.4463913 10.578989 4287533716
1.71066 2.4344008 10.527139 4287598734
1.8914143 2.4131837 10.43539 4287400840
1.7115259 2.3017073 9.4429016 4290229683
2.0722671 2.4284377 10.361335 4288782749
0.59304368 0.49079475 2.1813099 4284571998
0.5919987 0.53075749 2.1774666 4284637535
0.57128733 0.57128733 2.1763327 4287070841
0.57493794 0.64257765 2.1644721 4286083174
0.59845912 0.48964843 2.1762152 4289178022
0.59685016 0.54259104 2.1703641 4287796111
0.60078466 0.60078466 2.1601248 4288585369
0.60004836 0.6337589 2.1574771 4288256660
0.66379726 0.40162525 1.785001 4289307285
0.66730541 0.43757734 1.7503093 4288586664
0.66344601 0.48099837 1.7691894 4288055666
0.66387361 0.49790525 1.7703297 4288714374
0.67021334 0.51346993 1.7295829 4289834145
0.6925267 0.32803896 1.4579509 4290687387
0.69790143 0.32418647 1.4408288 4289046703
0.69191372 0.36871716 1.4566604 4289176468
0.69814628 0.36033356 1.4413342 4287929513
0.69206822 0.38245875 1.4569857 4288909934
0.69812167 0.37833688 1.4412833 4288258215
0.69146216 0.41396746 1.4557098 4289702048
0.69695175 0.41817102 1.438868 4288783789
0.76220286 0.25179917 1.0888612 4288846995
0.76267529 0.25647488 1.0798942 4286347893
0.76139271 0.27410138 1.0828696 4288582529
0.76197851 0.27647007 1.0789076 4286019445
0.76146233 0.28427926 1.0829686 4288781976
0.76093215 0.29965913 1.0774261 4288252530
0.75900555 0.31034893 1.0794746 4289044640
0.7600143 0.31274924 1.0761265 4288321686
-4.472084 1.4152164 4.5286927 4286214991
-4.5306044 1.4284389 4.6171765 4285749794
-6.85847 2.1516769 7.1722565 4286145047
-6.8464394 2.1763515 7.2545052 4286086784
-6.4973593 2.1288276 7.0960922 4287926667
-6.3901925 2.1153741 7.0512466 4288057996
-4.8796129 2.0177302 6.5885072 4286870097
-4.8782926 2.0257316 6.614634 4286348930
-4.7281179 2.0203853 6.6651883 4284703589
-4.6844549 2.0285363 6.6920786 4285954174
-4.5182519 2.0268793 6.7562642 4282860355
-4.4821639 2.0296593 6.7655306 4283517512
-4.2274485 2.0190797 6.7302656 4283255112
-4.0737324 1.9952974 6.6509914 4286741363
-4.0049753 1.9921122 6.6403737 4286020221
-3.8163044 2.0019956 6.6733189 4287401619
-3.798615 2.0036652 6.6788836 4287533203
-3.6792417 2.0068591 6.6895299 4287665821
-3.5834923 2.0236192 6.7453971 4287073168
-3.4497802 2.0193837 6.7312789 4287531911
-3.281812 2.0195765 6.7319221 4287597968
-3.2082183 2.0262432 6.7541437 4288124048
-3.0307515 2.0346303 6.7821012 4288584340
-2.9690974 2.0359523 6.7865081 4287860615
0.57421434 0.66879076 2.1617479 4286148968
0.57359111 0.69505751 2.1594019 4286215530
0.82104933 1.3723253 3.7533684 4290097577
0.57258546 0.72752035 2.1556158 4286346605
0.5762496 0.79066807 2.1441846 4285490778
0.59929705 0.6801011 2.1547759 4287269768
0.59927636 0.70027798 2.1547015 4286611580
0.60324466 0.75070441 2.1448698 4288125074
0.60293537 0.77711666 2.1437702 4287730830
0.66821152 0.5323962 1.7384365 4287599767
0.66494793 0.57152551 1.75854 4287331682
0.67002624 0.54574716 1.7291 4288782492
0.67003405 0.57817453 1.7291201 4288651681
0.66533631 0.59385389 1.7595671 4288385407
0.6650244 0.64867133 1.7443262 4286013490
0.67074394 0.60042399 1.7309521 4288586663
0.67024827 0.63241166 1.7296729 4287271057
0.69271886 0.45728499 1.4488237 4288911492
0.69649929 0.44486085 1.437934 4287862172
0.69242942 0.47972235 1.4482185 4289504669
0.69807881 0.46986073 1.4319565 4288520876
0.6923815 0.48873988 1.4481181 4289966509
0.69721049 0.49162278 1.4301754 4288323495
0.69235432 0.51587188 1.4480613 4290098354
0.69396663 0.51822186 1.4420086 4288714112
0.75811237 0.32346129 1.0782043 4289176479
0.7598635 0.32277387 1.075913 4288584600
0.75819218 0.34371379 1.0783178 4289308067
0.76141417 0.34548748 1.0733591 4287923052
0.76138872 0.3706761 1.0686158 4288187003
0.76123381 0.38395566 1.0683984 4288321952
0.81283265 0.37774795 1.0792799 4284898645
0.80290711 0.39645618 1.0661007 4285359450
-4.2317042 1.7274996 4.2852702 4287596904
0.57459581 0.82848704 2.138031 4285622621
0.57439691 0.84155828 2.1372907 4285622365
0.57412839 0.89457214 2.1362917 4285885794
0.57844961 0.95078498 2.1276307 4285029968
0.60060936 0.8341797 2.1355 4287006853
0.60420358 0.86978757 2.1246719 4287927953
0.60344416 0.9084819 2.1220014 4287927696
0.60236996 0.94658148 2.1182241 4287994002
0.66463447 0.67008227 1.7433035 4287265894
0.66452783 0.68631566 1.7430239 4287991166
0.66950172 0.64790487 1.7277464 4285560437
0.671076 0.70328772 1.7179546 4287666072
0.65879506 0.76014817 1.8018327 4287731877
0.66579753 0.7476579 1.7463541 4287264799
0.66677052 0.74808395 1.7346874 4285823874
0.67108649 0.73014212 1.7179815 4284704869
0.66877794 0.74967849 1.7258786 4283840532
0.68175155 0.73856413 1.6527309 4288326591
0.69254839 0.54864222 1.4390615 4289768616
0.6927368 0.58547437 1.4301664 4288123788
0.68739831 0.72277915 1.6174078 4287594854
0.69272387 0.58993256 1.4301395 4288649356
0.69517529 0.63724405 1.4260006 4287725663
0.76083261 0.40377516 1.0678352 4288189585
0.76269364 0.43440375 1.061139 4287924343
0.76171261 0.45040399 1.059774 4288254863
0.76105821 0.45994392 1.0588636 4287991434
0.80405331 0.40534917 1.063211 4284635729
0.80739099 0.43193755 1.0632309 4284700741
1.5628103 0.83904982 2.0495872 4283385134
0.76255506 0.45030195 1.0518001 4285623914
0.80618411 0.43792716 1.0616416 4285029203
0.76214862 0.46977264 1.0512395 4285164136
0.80242872 0.45570025 1.0566963 4285096022
0.81204164 0.45594138 1.0649726 4284107573
0.80412322 0.46797338 1.0545878 4284504141
0.57773745 0.98945838 2.1250112 4285227345
0.57750529 0.99569881 2.1241574 4285227347
0.5761677 1.0463735 2.1192374 4285622362
0.5760923 1.0727236 2.1189601 4286151548
0.60250109 0.98651284 2.1186852 4284966756
0.6052618 1.0197346 2.1052585 4288060055
0.60435653 1.057624 2.1021097 4288125848
0.60368907 1.095827 2.0997882 4286875268
0.66703492 0.78091896 1.7353754 4287925369
0.66587353 0.81204093 1.7323539 4288649355
0.67339492 0.76959419 1.7102094 4288191388
0.68632662 0.73716563 1.6268483 4287665315
0.66755205 0.83444005 1.7227149 4285882171
0.66617006 0.8448987 1.7331254 4288715149
0.66600817 0.87718153 1.7327043 4288715661
0.66721916 0.85554713 1.7218559 4287068774
0.66704655 0.87146395 1.7214104 4288056957
0.69200838 0.7318362 1.5931128 4288853189
0.69487518 0.71444917 1.5659159 4287662200
0.69494873 0.64149112 1.4255358 4288517252
0.6941725 0.68082303 1.4239436 4288978841
0.69553435 0.69996452 1.4176496 4287990649
0.69496191 0.71709448 1.4164829 4288517515
0.7017861 0.65353835 1.4035722 4288717220
0.70130932 0.67939341 1.4026186 4287861911
0.70124668 0.69686389 1.4024934 4287402651
0.70138413 0.71015143 1.4027683 4287336856
0.76206195 0.47505158 1.0556703 4287072917
0.76099432 0.50074083 1.0541912 4287267708
0.75955069 0.52609569 1.0521914 4287398517
0.75940228 0.53585529 1.0519859 4287530364
0.76239836 0.47649893 1.0515839 4287266664
0.79929119 0.47365403 1.0525645 4285360221
0.76236045 0.49290547 1.0515317 4287068003
0.93293202 0.56737494 1.2185234 4284239161
0.88236934 0.5402261 1.1524824 4283843878
0.76239598 0.51593173 1.0515807 4286414471
0.76180249 0.54508281 1.0507621 4286936682
0.80907708 0.52622896 1.0524579 4283977543
0.80812252 0.53217828 1.0512164 4284306761
2.230305 1.2465677 2.4030221 4280425500
2.266248 1.2531902 2.4013224 4279045376
2.2988849 1.2280688 2.3962319 4279045376
2.3434088 1.2203695 2.3958173 4280030733
0.57610601 1.1124806 2.1190107 4288255893
0.5755173 1.1510346 2.1168451 4288387736
0.57547981 1.1906478 2.1167073 4288453529
0.57658017 1.2326887 2.1207547 4288716701
0.60371137 1.1221157 2.0998657 4285296237
0.60576087 1.1659268 2.0843384 4288388763
0.61112571 1.1442354 2.0804279 4289702816
0.60428602 1.1955767 2.0792637 4288455069
0.60869014 1.1979539 2.0721366 4289900195
0.60189813 1.2361563 2.0710473 4286283646
0.60635465 1.2320611 2.0641861 4289177247
0.66600144 0.92174596 1.7049637 4285948475
0.6659562 0.93233871 1.7048479 4286607701
0.66644728 0.95968407 1.706105 4287464312
0.66820157 1.0129087 1.6970198 4286146117
0.69642055 0.75812876 1.410472 4287924341
0.69585711 0.76632369 1.4093308 4288189590
0.69883925 0.80871964 1.4064689 4287067738
0.69851166 0.82591313 1.4058096 4287662989
0.70135409 0.73642176 1.4027082 4286808967
0.70257384 0.77675861 1.39642 4287401107
0.70264566 0.80302364 1.3965628 4286282621
0.70242614 0.82816905 1.3875084 4287073167
0.75933886 0.55553365 1.051898 4288320401
0.76129091 0.56440532 1.0500565 4287858812
0.76298755 0.56978476 1.0478799 4287069040
0.82697362 0.56247604 1.0713829 4283646502
1.7794768 1.2485038 2.2960989 4283252778
0.76384109 0.59736288 1.044569 4286938227
0.76258957 0.61919665 1.0428575 4287464829
0.8052395 0.58444804 1.0390188 4283977538
0.81135094 0.60606933 1.0426999 4283384370
1.0843103 0.82841301 1.3879172 4283120946
2.060859 1.4108388 2.3637092 4280690210
2.2306206 1.2617652 2.4033623 4280689174
2.2381387 1.26928 2.4033704 4280028416
2.2751212 1.3484991 2.4107246 4280423936
2.0853586 1.4124238 2.3663645 4280690210
2.1419172 1.4155924 2.3716731 4280030733
2.283329 1.3639688 2.4114366 4280028416
2.1861043 1.4127884 2.3794332 4280423949
2.2810447 1.4077735 2.4090242 4280028416
2.3025594 1.2518771 2.3845277 4279042048
2.3261828 1.2485583 2.3782063 4279637517
2.3296881 1.298393 2.3742044 4278190080
2.2881207 1.3578684 2.4006512 4278190080
2.2787623 1.4167306 2.3986974 4279635200
0.60147685 1.2482262 2.0695977 4285099113
0.60516083 1.2682626 2.060122 4288389278
0.59236121 1.3006192 2.0603869 4288060321
0.60398734 1.278654 2.0561271 4287134801
0.59044725 1.3156705 2.0537295 4289442230
0.60453665 1.2981629 2.036334 4288979610
0.58899188 1.344438 2.0486674 4289244851
0.629861 1.2657783 1.9380338 4288056437
0.63102245 1.2620449 1.9231161 4287925888
0.63360065 1.261224 1.9127567 4288320394
0.66813034 1.0181034 1.696839 4286475857
0.67577261 1.0581867 1.6763352 4285757815
0.67736673 1.0577343 1.6673642 4288452751
0.67010456 1.097494 1.6884524 4286080320
0.67656195 1.0877035 1.6653832 4288059801
0.66989976 1.1077082 1.6879364 4286804565
0.67625415 1.1184204 1.6646255 4288586923
0.69840074 0.84335184 1.4055864 4288518290
0.69791001 0.8690955 1.4045988 4288781978
0.69732535 0.89468157 1.403422 4288913823
0.69951081 0.86127269 1.3990216 4286804565
0.69891983 0.88238633 1.3978397 4287202433
0.69856548 0.89067096 1.397131 4287794047
0.69816816 0.93233645 1.3876635 4287200616
0.76373804 0.62399024 1.0399837 4286543468
0.76394904 0.65388858 1.0358632 4286412396
0.8030138 0.63209116 1.0319856 4284108610
0.81235778 0.64013803 1.039818 4282723862
0.80248499 0.63812059 1.031306 4284174661
0.80768555 0.63968694 1.0338376 4282988582
0.76378566 0.66022146 1.0356416 4286609260
0.76542008 0.66893852 1.0291362 4285950033
0.76231378 0.69155049 1.0292845 4286478188
0.76404017 0.69020438 1.0272809 4285756789
0.80123204 0.65643108 1.0296959 4284438091
0.81907165 0.6689629 1.0442348 4282527254
0.80754042 0.6756314 1.0295336 4283517245
1.8691461 1.409161 2.3364327 4281675302
1.950403 1.4098418 2.3375616 4280423949
1.8410122 1.4086533 2.23153 4279635200
1.9650223 1.4098488 2.3375731 4280687629
2.044872 1.4122858 2.3538096 4280030733
1.8785843 1.4020317 2.2100992 4279045389
1.7919735 1.400623 2.1970556 4279639068
1.7964602 1.3949785 2.1775274 4280690214
1.8517908 1.3991308 2.194715 4280032290
1.8803183 1.399945 2.1959922 4280428066
2.096246 1.4171804 2.3619673 4280423949
2.0621848 1.4155066 2.2993 4279042048
2.0341525 1.4132007 2.2839608 4279045389
2.0362136 1.4118694 2.2703428 4279045389
2.1608367 1.4136999 2.3439584 4279045389
2.1441071 1.410218 2.3023968 4280028416
2.0981126 1.4082247 2.2759187 4279045376
2.1419151 1.4067363 2.2620885 4279045389
2.231591 1.4167666 2.3490431 4279042048
2.2453656 1.4087167 2.2882707 4279045389
2.1657972 1.4018104 2.2428968 4279639068
2.1782398 1.4007974 2.2412758 4280033826
0.58387762 1.3859073 2.053196 4285228113
0.59795469 1.3803847 2.0355904 4290426805
0.62495583 1.2856234 1.9046273 4289901494
0.64128453 1.2592496 1.8655549 4287857757
0.61636466 1.3717135 1.9336931 4289507761
0.63787997 1.2757599 1.8389331 4288519575
0.6180051 1.3680112 1.9200158 4290164148
0.64971876 1.24859 1.8079131 4287529827
0.65306407 1.2447289 1.7861581 4287530097
0.65494365 1.2432829 1.7761184 4287596664
0.6694724 1.1386302 1.6868596 4288715147
0.67577612 1.1436211 1.6634488 4286941573
0.67150402 1.175132 1.6787601 4285882158
0.6756236 1.1589544 1.6630735 4285625713
0.64980125 1.2662795 1.7772342 4288387471
0.66212726 1.2374182 1.7367272 4288649879
0.65969092 1.2550218 1.716269 4287795856
0.6720143 1.2127758 1.6800357 4287926148
0.67772961 1.2054274 1.6555227 4287863711
0.67051244 1.2362573 1.6762811 4282531106
0.67511177 1.2255876 1.6618136 4281151023
0.69788349 0.93629086 1.3870976 4287136644
0.69763792 0.96032876 1.3780502 4287397993
0.69721997 0.98988026 1.3772247 4286935624
0.70723689 0.97990644 1.3633481 4286809483
0.76227385 0.69473058 1.0292305 4286609517
0.76316202 0.70544386 1.0261002 4286215022
0.76140177 0.71321183 1.028053 4287070586
0.76278335 0.71150374 1.025591 4286346608
0.80786514 0.6988675 1.0258605 4283384379
0.80935001 0.72617567 1.0236838 4282990648
0.76392668 0.74155223 1.0228307 4286543469
0.7649042 0.7457816 1.0198723 4285884503
0.80762994 0.734209 1.0215082 4283385144
0.80566549 0.74834543 1.0190235 4283648827
